{
classes = (
{
code = "colon exclam period question semicolon quotedblleft quotedblright quoteleft quoteright questiondown exclamdown periodcentered ellipsis comma divide";
name = circular_punctuation;
},
{
code = "colon.ss01 exclam.ss01 period.ss01 question.ss01 semicolon.ss01 quotedblleft.ss01 quotedblright.ss01 quoteleft.ss01 quoteright.ss01 questiondown.ss01 exclamdown.ss01 periodcentered.ss01 ellipsis.ss01 comma.ss01 divide.ss01";
name = square_punctuation;
},
{
code = "a.old aacute abreve acircumflex adieresis agrave amacron aogonek aring atilde";
name = single_storey_a;
},
{
code = "a aacute.ss02 abreve.ss02 acircumflex.ss02 adieresis.ss02 agrave.ss02 amacron.ss02 aogonek.ss02 aring.ss02 atilde.ss02";
name = double_storey_a;
}
);
copyright = "Copyright 2020 The Albert Sans Project Authors (https://github.com/usted/AlbertSans)";
designer = "Andreas Rasmussen,  Jonny Pinhorn";
designerURL = andreasrasmussen.net;
familyName = "Albert Sans";
customParameters = (
{
name = glyphOrder;
value = (
A,
Aacute,
Abreve,
Acircumflex,
Adieresis,
Agrave,
Amacron,
Aogonek,
Aring,
Atilde,
AE,
AEacute,
B,
C,
Cacute,
Ccaron,
Ccedilla,
Cdotaccent,
D,
Eth,
Dcaron,
Dcroat,
E,
Eacute,
Ebreve,
Ecaron,
Ecircumflex,
Edieresis,
Edotaccent,
Egrave,
Emacron,
Eogonek,
Etilde,
F,
G,
Gbreve,
Gcommaaccent,
Gdotaccent,
H,
I,
Iacute,
Ibreve,
Icircumflex,
Idieresis,
Idotaccent,
Igrave,
Imacron,
Iogonek,
Itilde,
J,
K,
Kcommaaccent,
L,
Lacute,
Lcaron,
Lcommaaccent,
Ldot,
Lslash,
M,
N,
Nacute,
Ncaron,
Ncommaaccent,
Ntilde,
O,
Oacute,
Obreve,
Ocircumflex,
Odieresis,
Ograve,
Ohungarumlaut,
Omacron,
Oslash,
Otilde,
OE,
P,
Thorn,
Q,
R,
Racute,
Rcaron,
Rcommaaccent,
S,
Sacute,
Scaron,
Scedilla,
Scommaaccent,
T,
Tcaron,
Tcedilla,
Tcommaaccent,
U,
Uacute,
Ubreve,
Ucircumflex,
Udieresis,
Ugrave,
Uhungarumlaut,
Umacron,
Uogonek,
Uring,
Utilde,
V,
W,
Wacute,
Wcircumflex,
Wdieresis,
Wgrave,
X,
Y,
Yacute,
Ycircumflex,
Ydieresis,
Ygrave,
Ytilde,
Z,
Zacute,
Zcaron,
Zdotaccent,
a.old,
aacute,
abreve,

glyphs = (
{
glyphname = A;
leftMetricsKey = "H*0.1";
rightMetricsKey = "H*0.1";
layers = (
{
anchors = (
{
name = ogonek;
position = "{777, 1}";
},
{
name = top;
position = "{438, 700}";
}
);
hints = (
{
horizontal = 1;
place = "{523, 177}";
type = Stem;
},
{
horizontal = 1;
place = "{106, 166}";
type = Stem;
},
{
horizontal = 1;
place = "{0, 21}";
target = up;
type = BottomGhost;
}
);
layerId = "9A3F6695-68A9-4551-BE26-76B666927AA0";
paths = (
{
closed = 1;
nodes = (
"263.324 700.035 LINE",
"3.338 0 LINE",
"236.697 0 LINE",
"271.849 106.311 LINE",
"603.24 106.312 LINE",
"638.303 0 LINE",
"872.659 0 LINE",
"613.677 700.035 LINE"
);
},
{
closed = 1;
nodes = (
"420.692 555.54 LINE",
"454.779 556.457 LINE",
"548.415 272.545 LINE",
"326.816 272.545 LINE"
);
},
{
closed = 1;
nodes = (
"306 523.035 LINE",
"567 523.035 LINE",
"567 639.95 LINE",
"306 639.95 LINE"
);
}
);
width = 876;
},
{
anchors = (
{
name = ogonek;
position = "{638, 0}";
},
{
name = top;
position = "{356, 700}";
}
);
hints = (
{
horizontal = 1;
place = "{143, 93}";
type = Stem;
},
{
horizontal = 1;
place = "{700, -20}";
target = down;
type = TopGhost;
},
{
horizontal = 1;
place = "{0, 21}";
target = up;
type = BottomGhost;
}
);
layerId = "122FC69B-F67C-4AD1-868A-17406666C75E";
paths = (
{
closed = 1;
nodes = (
"256.921 700.328 LINE",
"8.159 0 LINE",
"127.078 0 LINE",
"176.71 143.021 LINE",
"535.403 142.797 LINE",
"584.922 0 LINE",
"704.841 0 LINE",
"456.079 700.328 LINE"
);
},
{
closed = 1;
nodes = (
"338.093 608.343 LINE",
"374.387 608.118 LINE",
"502.92 236.021 LINE",
"209.267 236.465 LINE"
);
},
{
closed = 1;
nodes = (
"276 607.399 LINE",
"438.176 607.399 LINE",
"438.176 668.105 LINE",
"276 668.105 LINE"
);
}
);
width = 713;
},
{
anchors = (
{
name = ogonek;
position = "{580, 0}";
},
{
name = top;
position = "{311, 697}";
}
);
hints = (
{
horizontal = 1;
place = "{700, -20}";
target = down;
type = TopGhost;
},
{
horizontal = 1;
place = "{0, 21}";
target = up;
type = BottomGhost;
}
);
layerId = "507F13DB-CCAB-4622-AAF1-433E81077BAF";
paths = (
{
closed = 1;
nodes = (
"278.65 700.038 LINE",
"10.5 0.051 LINE",
"33.5 0.051 LINE",
"107.305 192.945 LINE",
"511.691 192.945 LINE",
"585 0.051 LINE",
"608 0.051 LINE",
"340.65 700.038 LINE"
);
},
{
closed = 1;
nodes = (
"294.1 682.141 LINE",
"326.15 682.141 LINE",
"504.889 210.843 LINE",
"114.153 210.843 LINE"
);
},
{
closed = 1;
nodes = (
"284.543 682.496 LINE",
"334.932 682.496 LINE",
"334.932 691.444 LINE",
"284.543 691.444 LINE"
);
}
);
width = 618;
}
);
unicode = 0041;
},
{
glyphname = Aogonek;
leftMetricsKey = A;
rightMetricsKey = A;
layers = (
{
layerId = "1582CC8D-D691-4666-AA4B-D76697B66E9F";
name = "Sep 20 17, 19:55";
paths = (
{
closed = 1;
nodes = (
"117 194 LINE",
"484 194 LINE",
"477 212 LINE",
"123 212 LINE"
);
},
{
closed = 1;
nodes = (
"30 0 LINE",
"53 0 LINE",
"306 662 LINE",
"296 662 LINE",
"551 -6 LINE",
"557 0 LINE",
"466 0 OFFCURVE",
"428 -42 OFFCURVE",
"428 -95 CURVE",
"428 -148 OFFCURVE",
"466 -190 OFFCURVE",
"543 -190 CURVE",
"611 -190 LINE",
"611 -170 LINE",
"543 -170 LINE SMOOTH",
"484 -170 OFFCURVE",
"448 -142 OFFCURVE",
"448 -95 CURVE",
"448 -48 OFFCURVE",
"484 -20 OFFCURVE",
"543 -20 CURVE SMOOTH",
"571 -20 LINE",
"571 0 LINE",
"311 683 LINE",
"291 683 LINE"
);
}
);
width = 601;
},
{
anchors = (
{
name = _ogonek;
position = "{872, 1}";
}
);
components = (
{
name = A;
transform = "{1, 0, 0, 1, 0.414, 0}";
alignment = -1;
}
);
hints = (
{
place = "{383, 155}";
type = Stem;
},
{
horizontal = 1;
place = "{-220, 117}";
type = Stem;
},
{
horizontal = 1;
place = "{523, 177}";
type = Stem;
},
{
horizontal = 1;
place = "{106, 167}";
type = Stem;
}
);
layerId = "9A3F6695-68A9-4551-BE26-76B666927AA0";
paths = (
{
closed = 1;
nodes = (
"577.741 91.208 LINE SMOOTH",
"421.824 28.946 OFFCURVE",
"382.741 -23.475 OFFCURVE",
"382.741 -94.217 CURVE SMOOTH",
"382.741 -173.86 OFFCURVE",
"442.741 -219.655 OFFCURVE",
"542.741 -219.655 CURVE SMOOTH",
"585.607 -219.655 OFFCURVE",
"623.621 -213.724 OFFCURVE",
"656.741 -203.838 CURVE",
"656.741 -87.048 LINE",
"623.884 -97.836 OFFCURVE",
"596.875 -102.74 OFFCURVE",
"574.741 -102.74 CURVE SMOOTH",
"550.741 -102.74 OFFCURVE",
"537.741 -94.353 OFFCURVE",
"537.741 -79.442 CURVE SMOOTH",
"537.741 -64.315 OFFCURVE",
"549.741 -45.202 OFFCURVE",
"612.741 -18.607 CURVE SMOOTH",
"657.334 0.361 LINE",
"614.483 105.88 LINE"
);
}
);
width = 877;
},
{
anchors = (
{
name = _ogonek;
position = "{663, 0}";
}
);
components = (
{
name = A;
transform = "{1, 0, 0, 1, 0.044, 0}";
alignment = -1;
}
);
hints = (
{
place = "{410, 93}";
type = Stem;
},
{
place = "{410, 214}";
type = Stem;
},
{
horizontal = 1;
place = "{-213, 74}";
type = Stem;
},
{
horizontal = 1;
place = "{143, 93}";
type = Stem;
},
{
horizontal = 1;
place = "{700, -20}";
target = down;
type = TopGhost;
}
);
layerId = "122FC69B-F67C-4AD1-868A-17406666C75E";
paths = (
{
closed = 1;
nodes = (
"536.964 38.642 LINE SMOOTH",
"442.964 -4.667 OFFCURVE",
"409.964 -52.893 OFFCURVE",
"409.964 -104.075 CURVE SMOOTH",
"409.964 -184.402 OFFCURVE",
"479.964 -212.517 OFFCURVE",
"542.964 -212.517 CURVE SMOOTH",
"572.004 -212.517 OFFCURVE",
"600.999 -206.483 OFFCURVE",
"623.964 -197.432 CURVE",
"623.964 -124.53 LINE",
"600.927 -133.61 OFFCURVE",
"576.928 -138.654 OFFCURVE",
"557.964 -138.654 CURVE SMOOTH",
"523.964 -138.654 OFFCURVE",
"502.964 -120.393 OFFCURVE",
"502.964 -91.989 CURVE SMOOTH",
"502.964 -67.622 OFFCURVE",
"516.964 -47.375 OFFCURVE",
"559.964 -25.216 CURVE SMOOTH",
"608.781 -0.131 LINE",
"579.027 57.807 LINE"
);
}
);
width = 713;
},
{
anchors = (
{
name = _ogonek;
position = "{585, 0}";
}
);
components = (
{
name = A;
transform = "{1, 0, 0, 1, -0.5, 0}";
alignment = -1;
}
);
hints = (
{
place = "{423, 20}";
type = Stem;
},
{
horizontal = 1;
place = "{-189, 21}";
target = up;
type = BottomGhost;
},
{
horizontal = 1;
place = "{700, -20}";
target = down;
type = TopGhost;
}
);
layerId = "507F13DB-CCAB-4622-AAF1-433E81077BAF";
paths = (
{
closed = 1;
nodes = (
"509.389 -15.858 LINE SMOOTH",
"447.389 -43.699 OFFCURVE",
"423.389 -77.506 OFFCURVE",
"423.389 -115.29 CURVE SMOOTH",
"423.389 -166 OFFCURVE",
"462.389 -188.869 OFFCURVE",
"513.389 -188.869 CURVE SMOOTH",
"532.389 -188.869 OFFCURVE",
"554.389 -184.892 OFFCURVE",
"575.389 -176.938 CURVE",
"575.389 -157.051 LINE",
"554.389 -165.006 OFFCURVE",
"532.389 -169.977 OFFCURVE",
"512.389 -169.977 CURVE SMOOTH",
"473.389 -169.977 OFFCURVE",
"443.389 -153.074 OFFCURVE",
"443.389 -114.295 CURVE SMOOTH",
"443.389 -85.46 OFFCURVE",
"461.389 -56.625 OFFCURVE",
"513.389 -32.761 CURVE SMOOTH",
"585.389 0.051 LINE",
"578.389 14.966 LINE"
);
}
);
width = 618;
}
);
unicode = 0104;
},
{
glyphname = AE;
leftMetricsKey = A;
rightMetricsKey = E;
layers = (
{
hints = (
{
place = "{494, 222}";
type = Stem;
},
{
horizontal = 1;
place = "{0, 177}";
type = Stem;
},
{
horizontal = 1;
place = "{96, 167}";
type = Stem;
},
{
horizontal = 1;
place = "{276, 167}";
type = Stem;
},
{
horizontal = 1;
place = "{524, 176}";
type = Stem;
}
);
layerId = "9A3F6695-68A9-4551-BE26-76B666927AA0";
paths = (
{
closed = 1;
nodes = (
"157.884 95.545 LINE",
"602 95.545 LINE",
"602 262.695 LINE",
"252.385 262.695 LINE"
);
},
{
closed = 1;
nodes = (
"956 524.02 LINE",
"956 700.035 LINE",
"343.367 700.035 LINE",
"3.076 0 LINE",
"244.638 0 LINE",
"494 529.714 LINE",
"494 0 LINE",
"956 0 LINE",
"956 177 LINE",
"716 177 LINE",
"716 275.8 LINE",
"926 275.8 LINE",
"926 442.95 LINE",
"716 442.95 LINE",
"716 524.02 LINE"
);
}
);
width = 966;
},
{
hints = (
{
place = "{468, 114}";
type = Stem;
},
{
horizontal = 1;
place = "{0, 89}";
type = Stem;
},
{
horizontal = 1;
place = "{143, 89}";
type = Stem;
},
{
horizontal = 1;
place = "{310, 88}";
type = Stem;
},
{
horizontal = 1;
place = "{611, 89}";
type = Stem;
}
);
layerId = "122FC69B-F67C-4AD1-868A-17406666C75E";
paths = (
{
closed = 1;
nodes = (
"148.278 143.021 LINE",
"521 143.021 LINE",
"521 231.992 LINE",
"197.905 231.992 LINE"
);
},
{
closed = 1;
nodes = (
"851 611.364 LINE",
"851 700.336 LINE",
"390.905 700.336 LINE",
"8.271 0 LINE",
"132.094 0 LINE",
"468 621.102 LINE",
"468 0 LINE",
"851 0 LINE",
"851 88.971 LINE",
"582 89.306 LINE",
"582 310.214 LINE",
"821 310.214 LINE",
"821 398.346 LINE",
"582 398.346 LINE",
"582 611.364 LINE"
);
}
);
width = 916;
},
{
hints = (
{
place = "{443, 20}";
type = Stem;
},
{
horizontal = 1;
place = "{700, -20}";
target = down;
type = TopGhost;
},
{
horizontal = 1;
place = "{0, 21}";
target = up;
type = BottomGhost;
}
);
layerId = "507F13DB-CCAB-4622-AAF1-433E81077BAF";
paths = (
{
closed = 1;
nodes = (
"137 192.945 LINE",
"450 192.945 LINE",
"450 210.843 LINE",
"143 210.843 LINE"
);
},
{
closed = 1;
nodes = (
"787 682.141 LINE",
"787 700.038 LINE",
"443 700.038 LINE",
"10 0.051 LINE",
"33 0.051 LINE",
"443 663.249 LINE",
"443 0.051 LINE",
"787 0.051 LINE",
"787 17.949 LINE",
"463 17.949 LINE",
"463 341.096 LINE",
"757 341.096 LINE",
"757 358.993 LINE",
"463 358.993 LINE",
"463 682.141 LINE"
);
}
);
width = 872;
}
);
unicode = 00C6;
},
{
glyphname = B;
leftMetricsKey = H;
rightMetricsKey = "H*0.66";
layers = (
{
hints = (
{
place = "{30, 222}";
type = Stem;
},
{
place = "{437, 226}";
type = Stem;
},
{
place = "{452, 227}";
type = Stem;
},
{
horizontal = 1;
place = "{0, 178}";
type = Stem;
},
{
horizontal = 1;
place = "{274, 154}";
type = Stem;
},
{
horizontal = 1;
place = "{524, 176}";
type = Stem;
}
);
layerId = "9A3F6695-68A9-4551-BE26-76B666927AA0";
paths = (
{
closed = 1;
nodes = (
"437 442.157 OFFCURVE",
"418 428.175 OFFCURVE",
"378 428.175 CURVE SMOOTH",
"252 428.175 LINE",
"252 524.02 LINE",
"378 524.02 LINE SMOOTH",
"418 524.02 OFFCURVE",
"437 508.332 OFFCURVE",
"437 475.112 CURVE SMOOTH"
);
},
{
closed = 1;
nodes = (
"679 282.806 OFFCURVE",
"615 353.299 OFFCURVE",
"491 358.224 CURVE",
"485.922 364.24 LINE",
"589.344 364.24 OFFCURVE",
"663 414.534 OFFCURVE",
"663 517.467 CURVE SMOOTH",
"663 639.51 OFFCURVE",
"572 700.035 OFFCURVE",
"431 700.035 CURVE SMOOTH",
"30 700.035 LINE",
"30 0 LINE",
"441 0 LINE SMOOTH",
"595 0 OFFCURVE",
"679 69.429 OFFCURVE",
"679 192.417 CURVE SMOOTH"
);
},
{
closed = 1;
nodes = (
"452 191.79 OFFCURVE",
"433 177.985 OFFCURVE",
"393 177.985 CURVE SMOOTH",
"252 177.985 LINE",
"252 273.83 LINE",
"393 273.83 LINE SMOOTH",
"433 273.83 OFFCURVE",
"452 257.86 OFFCURVE",
"452 224.923 CURVE SMOOTH"
);
},
{
closed = 1;
nodes = (
"441 330.96 LINE",
"508 330.96 LINE",
"508 386.805 LINE",
"441 386.805 LINE"
);
}
);
width = 698;
},
{
hints = (
{
place = "{85, 114}";
type = Stem;
},
{
place = "{499, 116}";
type = Stem;
},
{
place = "{517, 114}";
type = Stem;
},
{
horizontal = 1;
place = "{0, 93}";
type = Stem;
},
{
horizontal = 1;
place = "{312, 93}";
type = Stem;
},
{
horizontal = 1;
place = "{607, 93}";
type = Stem;
}
);
layerId = "122FC69B-F67C-4AD1-868A-17406666C75E";
paths = (
{
closed = 1;
nodes = (
"499 440.599 OFFCURVE",
"454 405.396 OFFCURVE",
"380 405.396 CURVE SMOOTH",
"199 405.396 LINE",
"199 607.328 LINE",
"380 607.328 LINE SMOOTH",
"454 607.328 OFFCURVE",
"499 568.939 OFFCURVE",
"499 505.275 CURVE SMOOTH"
);
},
{
closed = 1;
nodes = (
"631 303.134 OFFCURVE",
"560.956 353.727 OFFCURVE",
"461 358.865 CURVE",
"461 359.524 LINE",
"545 371.431 OFFCURVE",
"615 415.889 OFFCURVE",
"615 519.376 CURVE SMOOTH",
"615 617.897 OFFCURVE",
"537 700.328 OFFCURVE",
"390 700.328 CURVE SMOOTH",
"85 700.328 LINE",
"85 0 LINE",
"403 0 LINE SMOOTH",
"545 0 OFFCURVE",
"631 81.438 OFFCURVE",
"631 188.01 CURVE SMOOTH"
);
},
{
closed = 1;
nodes = (
"517 132.403 OFFCURVE",
"470. 92.867 OFFCURVE",
"393 93 CURVE SMOOTH",
"199 93.334 LINE",
"199 312.229 LINE",
"389 312.229 LINE SMOOTH",
"465 312.229 OFFCURVE",
"517 269.8 OFFCURVE",
"517 200.096 CURVE SMOOTH"
);
},
{
closed = 1;
nodes = (
"408 338.416 LINE",
"484 338.416 LINE",
"484 392.135 LINE",
"408 392.135 LINE"
);
}
);
width = 687;
},
{
hints = (
{
place = "{105, 20}";
type = Stem;
},
{
place = "{544, 20}";
type = Stem;
},
{
place = "{560, 20}";
type = Stem;
},
{
horizontal = 1;
place = "{0, 20}";
type = Stem;
},
{
horizontal = 1;
place = "{354, 20}";
type = Stem;
},
{
horizontal = 1;
place = "{680, 20}";
type = Stem;
}
);
layerId = "507F13DB-CCAB-4622-AAF1-433E81077BAF";
paths = (
{
closed = 1;
nodes = (
"544 434.569 OFFCURVE",
"482 373.915 OFFCURVE",
"363 373.915 CURVE SMOOTH",
"125 373.915 LINE",
"125 680.166 LINE",
"357 680.166 LINE SMOOTH",
"489 680.166 OFFCURVE",
"544 616.53 OFFCURVE",
"544 529.029 CURVE"
);
},
{
closed = 1;
nodes = (
"580 291.387 OFFCURVE",
"496 363.972 OFFCURVE",
"399 363.972 CURVE",
"391 361.984 LINE",
"472 362.978 OFFCURVE",
"564 408.717 OFFCURVE",
"564 529.029 CURVE",
"564 624.484 OFFCURVE",
"504 700.052 OFFCURVE",
"357 700.052 CURVE SMOOTH",
"105 700.052 LINE",
"105 0.051 LINE",
"357 0.051 LINE SMOOTH",
"509 0.051 OFFCURVE",
"580 83.574 OFFCURVE",
"580 186.983 CURVE SMOOTH"
);
},
{
closed = 1;
nodes = (
"560 83.574 OFFCURVE",
"485 19.938 OFFCURVE",
"357 19.938 CURVE SMOOTH",
"125 19.938 LINE",
"125 354.029 LINE",
"355 354.029 LINE SMOOTH",
"483 354.029 OFFCURVE",
"560 288.404 OFFCURVE",
"560 186.983 CURVE SMOOTH"
);
},
{
closed = 1;
nodes = (
"342 358.006 LINE",
"431 358.006 LINE",
"431 370.932 LINE",
"342 370.932 LINE"
);
}
);
width = 649;
}
);
unicode = 0042;
},
{
glyphname = C;
leftMetricsKey = O;
rightMetricsKey = "O*1.3333";
layers = (
{
anchors = (
{
name = bottom;
position = "{362, 1}";
},
{
name = top;
position = "{365, 702}";
}
);
hints = (
{
place = "{15, 225}";
type = Stem;
},
{
horizontal = 1;
place = "{-4, 202}";
type = Stem;
},
{
horizontal = 1;
place = "{504, 202}";
type = Stem;
}
);
layerId = "9A3F6695-68A9-4551-BE26-76B666927AA0";
paths = (
{
closed = 1;
nodes = (
"15 143.168 OFFCURVE",
"148 -3.598 OFFCURVE",
"365 -3.598 CURVE SMOOTH",
"542.755 -3.598 OFFCURVE",
"666.296 96.084 OFFCURVE",
"702.985 247.224 CURVE",
"488.804 284.801 LINE",
"458.643 212.97 OFFCURVE",
"410.106 198.328 OFFCURVE",
"361 198.328 CURVE SMOOTH",
"286 198.328 OFFCURVE",
"240 258.413 OFFCURVE",
"240 351.003 CURVE SMOOTH",
"240 443.593 OFFCURVE",
"286 503.678 OFFCURVE",
"361 503.678 CURVE SMOOTH",
"409.473 503.678 OFFCURVE",
"449.697 487.841 OFFCURVE",
"480.829 425.681 CURVE",
"700.612 464.036 LINE",
"661.194 609.977 OFFCURVE",
"539.101 705.603 OFFCURVE",
"365 705.603 CURVE SMOOTH",
"148 705.603 OFFCURVE",
"15 558.838 OFFCURVE",
"15 351.003 CURVE SMOOTH"
);
}
);
width = 722;
},
{
anchors = (
{
name = bottom;
position = "{391, 0}";
},
{
name = top;
position = "{399, 709}";
}
);
hints = (
{
place = "{42, 117}";
type = Stem;
},
{
horizontal = 1;
place = "{-6, 100}";
type = Stem;
},
{
horizontal = 1;
place = "{608, 101}";
type = Stem;
}
);
layerId = "122FC69B-F67C-4AD1-868A-17406666C75E";
paths = (
{
closed = 1;
nodes = (
"42 140.674 OFFCURVE",
"201 -6.378 OFFCURVE",
"397 -6.378 CURVE SMOOTH",
"537.818 -6.378 OFFCURVE",
"657.835 58.807 OFFCURVE",
"719.639 202.733 CURVE",
"619.722 239.303 LINE",
"567.149 129.628 OFFCURVE",
"477.669 93.335 OFFCURVE",
"397 93.335 CURVE SMOOTH",
"259 93.335 OFFCURVE",
"159 193.048 OFFCURVE",
"159 351.179 CURVE SMOOTH",
"159 509.309 OFFCURVE",
"259 608.015 OFFCURVE",
"397 608.015 CURVE SMOOTH",
"475.429 608.015 OFFCURVE",
"562.537 573.05 OFFCURVE",
"609.41 483.845 CURVE",
"710.262 520.995 LINE",
"652.709 643.339 OFFCURVE",
"533.749 708.735 OFFCURVE",
"397 708.735 CURVE SMOOTH",
"201 708.735 OFFCURVE",
"42 560.676 OFFCURVE",
"42 351.179 CURVE SMOOTH"
);
}
);
width = 776;
},
{
anchors = (
{
name = bottom;
position = "{403, 0}";
},
{
name = top;
position = "{380, 700}";
}
);
hints = (
{
place = "{52, 21}";
type = Stem;
},
{
horizontal = 1;
place = "{-7, 21}";
target = up;
type = BottomGhost;
},
{
horizontal = 1;
place = "{707, -20}";
target = down;
type = TopGhost;
}
);
layerId = "507F13DB-CCAB-4622-AAF1-433E81077BAF";
paths = (
{
closed = 1;
nodes = (
"52 140.247 OFFCURVE",
"189 -6.909 OFFCURVE",
"380 -6.909 CURVE SMOOTH",
"546.969 -6.909 OFFCURVE",
"650.491 75.587 OFFCURVE",
"699.245 201.265 CURVE",
"681.934 207.516 LINE",
"640.702 96.608 OFFCURVE",
"538.288 8.877 OFFCURVE",
"380 10.988 CURVE",
"210 10.988 OFFCURVE",
"73 139.253 OFFCURVE",
"73 349.05 CURVE SMOOTH",
"73 560.836 OFFCURVE",
"210 689.101 OFFCURVE",
"380 689.101 CURVE SMOOTH",
"536.03 689.101 OFFCURVE",
"635. 609.673 OFFCURVE",
"677.839 501.533 CURVE",
"695.248 507.853 LINE",
"644.952 628.823 OFFCURVE",
"542.538 706.998 OFFCURVE",
"380 706.998 CURVE SMOOTH",
"189 706.998 OFFCURVE",
"52 559.842 OFFCURVE",
"52 349.05 CURVE SMOOTH"
);
}
);
width = 769;
}
);
unicode = 0043;
},
{
glyphname = D;
leftMetricsKey = H;
rightMetricsKey = "H*0.5";
layers = (
{
anchors = (
{
name = top;
position = "{359, 702}";
}
);
hints = (
{
place = "{30, 222}";
type = Stem;
},
{
place = "{488, 225}";
type = Stem;
},
{
horizontal = 1;
place = "{0, 198}";
type = Stem;
},
{
horizontal = 1;
place = "{506, 194}";
type = Stem;
}
);
layerId = "9A3F6695-68A9-4551-BE26-76B666927AA0";
paths = (
{
closed = 1;
nodes = (
"30 700.035 LINE",
"30 0 LINE",
"345 0 LINE SMOOTH",
"571 0 OFFCURVE",
"713 152.264 OFFCURVE",
"713 351.988 CURVE SMOOTH",
"713 553.697 OFFCURVE",
"571 700.035 OFFCURVE",
"345 700.035 CURVE SMOOTH"
);
},
{
closed = 1;
nodes = (
"252 197.685 LINE",
"252 506.29 LINE",
"325 506.29 LINE SMOOTH",
"423 506.29 OFFCURVE",
"488 452.577 OFFCURVE",
"488 351.988 CURVE SMOOTH",
"488 251.398 OFFCURVE",
"423 197.685 OFFCURVE",
"325 197.685 CURVE SMOOTH"
);
}
);
width = 728;
},
{
anchors = (
{
name = top;
position = "{385, 701}";
}
);
hints = (
{
place = "{85, 114}";
type = Stem;
},
{
place = "{584, 117}";
type = Stem;
},
{
horizontal = 1;
place = "{0, 93}";
type = Stem;
},
{
horizontal = 1;
place = "{607, 93}";
type = Stem;
}
);
layerId = "122FC69B-F67C-4AD1-868A-17406666C75E";
paths = (
{
closed = 1;
nodes = (
"85 700.328 LINE",
"85 0 LINE",
"332 0 LINE SMOOTH",
"555 0 OFFCURVE",
"701 131.815 OFFCURVE",
"701 347.146 CURVE SMOOTH",
"701 563.487 OFFCURVE",
"555 700.328 OFFCURVE",
"332 700.328 CURVE SMOOTH"
);
},
{
closed = 1;
nodes = (
"199 93.334 LINE",
"199 607.328 LINE",
"332 607.328 LINE SMOOTH",
"496 607.328 OFFCURVE",
"584 507.496 OFFCURVE",
"584 347.146 CURVE SMOOTH",
"584 187.801 OFFCURVE",
"495.999 92.588 OFFCURVE",
"332 93 CURVE SMOOTH"
);
}
);
width = 743;
},
{
anchors = (
{
name = top;
position = "{370, 679}";
}
);
hints = (
{
place = "{105, 20}";
type = Stem;
},
{
place = "{662, 20}";
type = Stem;
},
{
horizontal = 1;
place = "{0, 21}";
target = up;
type = BottomGhost;
},
{
horizontal = 1;
place = "{700, -20}";
target = down;
type = TopGhost;
}
);
layerId = "507F13DB-CCAB-4622-AAF1-433E81077BAF";
paths = (
{
closed = 1;
nodes = (
"105 700.038 LINE",
"105 0.051 LINE",
"310 0.051 LINE",
"555 0.051 OFFCURVE",
"682 129.31 OFFCURVE",
"682 350.045 CURVE",
"682 570.779 OFFCURVE",
"555 700.038 OFFCURVE",
"310 700.038 CURVE"
);
},
{
closed = 1;
nodes = (
"125 17.949 LINE",
"125 682.141 LINE",
"310 682.141 LINE",
"546 682.141 OFFCURVE",
"662 554.871 OFFCURVE",
"662 350.045 CURVE",
"662 145.219 OFFCURVE",
"546 17.949 OFFCURVE",
"310 17.949 CURVE"
);
}
);
width = 734;
}
);
unicode = 0044;
},
{
glyphname = Eth;
leftMetricsKey = "=D-20";
rightMetricsKey = D;
layers = (
{
hints = (
{
place = "{60, 222}";
type = Stem;
},
{
place = "{498, 225}";
type = Stem;
},
{
horizontal = 1;
place = "{0, 198}";
type = Stem;
},
{
horizontal = 1;
place = "{264, 176}";
type = Stem;
},
{
horizontal = 1;
place = "{506, 194}";
type = Stem;
}
);
layerId = "9A3F6695-68A9-4551-BE26-76B666927AA0";
paths = (
{
closed = 1;
nodes = (
"10 263.98 LINE",
"412 263.98 LINE",
"412 439.995 LINE",
"10 439.995 LINE"
);
},
{
closed = 1;
nodes = (
"60 700.035 LINE",
"60 0 LINE",
"355 0 LINE SMOOTH",
"581 0 OFFCURVE",
"723 152.264 OFFCURVE",
"723 351.987 CURVE SMOOTH",
"723 553.697 OFFCURVE",
"581 700.035 OFFCURVE",
"355 700.035 CURVE SMOOTH"
);
},
{
closed = 1;
nodes = (
"282 197.685 LINE",
"282 506.29 LINE",
"335 506.29 LINE SMOOTH",
"433 506.29 OFFCURVE",
"498 452.577 OFFCURVE",
"498 351.987 CURVE SMOOTH",
"498 251.398 OFFCURVE",
"433 197.685 OFFCURVE",
"335 197.685 CURVE SMOOTH"
);
}
);
width = 738;
},
{
hints = (
{
place = "{142, 115}";
type = Stem;
},
{
place = "{621, 117}";
type = Stem;
},
{
horizontal = 1;
place = "{0, 87}";
type = Stem;
},
{
horizontal = 1;
place = "{295, 105}";
type = Stem;
},
{
horizontal = 1;
place = "{608, 92}";
type = Stem;
}
);
layerId = "122FC69B-F67C-4AD1-868A-17406666C75E";
paths = (
{
closed = 1;
nodes = (
"65 295.107 LINE",
"435 295.107 LINE",
"435 400.193 LINE",
"65 400.193 LINE"
);
},
{
closed = 1;
nodes = (
"142 700.328 LINE",
"142 0 LINE",
"370 0 LINE SMOOTH",
"593 0 OFFCURVE",
"738 131.815 OFFCURVE",
"738 347.146 CURVE SMOOTH",
"738 563.487 OFFCURVE",
"593 700.328 OFFCURVE",
"370 700.328 CURVE SMOOTH"
);
},
{
closed = 1;
nodes = (
"257 87.291 LINE",
"257 608.336 LINE",
"370 608.336 LINE SMOOTH",
"533 608.336 OFFCURVE",
"621 507.495 OFFCURVE",
"621 347.146 CURVE SMOOTH",
"621 187.805 OFFCURVE",
"532.999 86.475 OFFCURVE",
"370 86.957 CURVE SMOOTH"
);
}
);
width = 780;
},
{
hints = (
{
place = "{200, 20}";
type = Stem;
},
{
place = "{737, 20}";
type = Stem;
},
{
horizontal = 1;
place = "{0, 21}";
target = up;
type = BottomGhost;
},
{
horizontal = 1;
place = "{700, -20}";
target = down;
type = TopGhost;
}
);
layerId = "507F13DB-CCAB-4622-AAF1-433E81077BAF";
paths = (
{
closed = 1;
nodes = (
"85 341.096 LINE",
"453 341.096 LINE",
"453 358.993 LINE",
"85 358.993 LINE"
);
},
{
closed = 1;
nodes = (
"200 700.038 LINE",
"200 0.051 LINE",
"385 0.051 LINE",
"630 0.051 OFFCURVE",
"757 129.31 OFFCURVE",
"757 350.045 CURVE",
"757 570.779 OFFCURVE",
"630 700.038 OFFCURVE",
"385 700.038 CURVE"
);
},
{
closed = 1;
nodes = (
"220 17.949 LINE",
"220 682.141 LINE",
"385 682.141 LINE",
"621 682.141 OFFCURVE",
"737 554.871 OFFCURVE",
"737 350.045 CURVE",
"737 145.219 OFFCURVE",
"621 17.949 OFFCURVE",
"385 17.949 CURVE"
);
}
);
width = 809;
}
);
unicode = 00D0;
},
{
glyphname = E;
leftMetricsKey = H;
rightMetricsKey = "=H-20";
layers = (
{
anchors = (
{
name = bottom;
position = "{302, 1}";
},
{
name = ogonek;
position = "{542, 1}";
},
{
name = top;
position = "{302, 702}";
}
);
hints = (
{
place = "{30, 222}";
type = Stem;
},
{
horizontal = 1;
place = "{0, 177}";
type = Stem;
},
{
horizontal = 1;
place = "{273, 167}";
type = Stem;
},
{
horizontal = 1;
place = "{523, 177}";
type = Stem;
}
);
layerId = "9A3F6695-68A9-4551-BE26-76B666927AA0";
paths = (
{
closed = 1;
nodes = (
"592 700.035 LINE",
"30 700.035 LINE",
"30 0 LINE",
"592 0 LINE",
"592 177 LINE",
"252 177 LINE",
"252 272.845 LINE",
"482 272.845 LINE",
"482 439.995 LINE",
"252 439.995 LINE",
"252 523.035 LINE",
"592 523.035 LINE"
);
}
);
width = 602;
},
{
anchors = (
{
name = bottom;
position = "{312, 0}";
},
{
name = ogonek;
position = "{509, 0}";
},
{
name = top;
position = "{322, 701}";
}
);
hints = (
{
place = "{85, 114}";
type = Stem;
},
{
horizontal = 1;
place = "{0, 93}";
type = Stem;
},
{
horizontal = 1;
place = "{308, 93}";
type = Stem;
},
{
horizontal = 1;
place = "{607, 93}";
type = Stem;
}
);
layerId = "122FC69B-F67C-4AD1-868A-17406666C75E";
paths = (
{
closed = 1;
nodes = (
"559 700.336 LINE",
"85 700.336 LINE",
"85 0 LINE",
"559 0 LINE",
"559 93 LINE",
"199 93.334 LINE",
"199 308.2 LINE",
"469 308.2 LINE",
"469 401.367 LINE",
"199 401.367 LINE",
"199 607.335 LINE",
"559 607.335 LINE"
);
}
);
width = 624;
},
{
anchors = (
{
name = bottom;
position = "{293, 0}";
},
{
name = ogonek;
position = "{489, 0}";
},
{
name = top;
position = "{322, 690}";
}
);
hints = (
{
place = "{105, 20}";
type = Stem;
},
{
horizontal = 1;
place = "{700, -20}";
target = down;
type = TopGhost;
},
{
horizontal = 1;
place = "{0, 21}";
target = up;
type = BottomGhost;
}
);
layerId = "507F13DB-CCAB-4622-AAF1-433E81077BAF";
paths = (
{
closed = 1;
nodes = (
"539 700.038 LINE",
"105 700.038 LINE",
"105 0.051 LINE",
"539 0.051 LINE",
"539 17.949 LINE",
"125 17.949 LINE",
"125 341.096 LINE",
"449 341.096 LINE",
"449 358.993 LINE",
"125 358.993 LINE",
"125 682.141 LINE",
"539 682.141 LINE"
);
}
);
width = 624;
}
);
unicode = 0045;
},
{
glyphname = F;
leftMetricsKey = H;
rightMetricsKey = "E*0.666";
layers = (
{
hints = (
{
place = "{30, 222}";
type = Stem;
},
{
horizontal = 1;
place = "{263, 167}";
type = Stem;
},
{
horizontal = 1;
place = "{524, 176}";
type = Stem;
},
{
horizontal = 1;
place = "{0, 21}";
target = up;
type = BottomGhost;
}
);
layerId = "9A3F6695-68A9-4551-BE26-76B666927AA0";
paths = (
{
closed = 1;
nodes = (
"30 0 LINE",
"252 0 LINE",
"252 262.995 LINE",
"497.462 262.995 LINE",
"497.462 430.145 LINE",
"252 430.145 LINE",
"252 524.02 LINE",
"610 524.02 LINE",
"610 700.035 LINE",
"30 700.035 LINE"
);
}
);
width = 616;
},
{
hints = (
{
place = "{85, 114}";
type = Stem;
},
{
horizontal = 1;
place = "{306, 93}";
type = Stem;
},
{
horizontal = 1;
place = "{607, 93}";
type = Stem;
},
{
horizontal = 1;
place = "{0, 21}";
target = up;
type = BottomGhost;
}
);
layerId = "122FC69B-F67C-4AD1-868A-17406666C75E";
paths = (
{
closed = 1;
nodes = (
"85 0 LINE",
"199 0 LINE",
"199 306.186 LINE",
"486.559 306.186 LINE",
"486.559 399.186 LINE",
"199 399.52 LINE",
"199 607.328 LINE",
"574 607.328 LINE",
"574 700.328 LINE",
"85 700.328 LINE"
);
}
);
width = 617;
},
{
hints = (
{
place = "{105, 20}";
type = Stem;
},
{
horizontal = 1;
place = "{700, -20}";
target = down;
type = TopGhost;
},
{
horizontal = 1;
place = "{0, 21}";
target = up;
type = BottomGhost;
}
);
layerId = "507F13DB-CCAB-4622-AAF1-433E81077BAF";
paths = (
{
closed = 1;
nodes = (
"105 0.051 LINE",
"125 0.051 LINE",
"125 341.103 LINE",
"439 341.103 LINE",
"439 359 LINE",
"125 359 LINE",
"125 682.154 LINE",
"529 682.154 LINE",
"529 700.052 LINE",
"105 700.052 LINE"
);
}
);
width = 585;
}
);
unicode = 0046;
},
{
glyphname = G;
leftMetricsKey = O;
rightMetricsKey = "O*1.2";
layers = (
{
anchors = (
{
name = bottom;
position = "{362, 1}";
},
{
name = top;
position = "{362, 702}";
}
);
hints = (
{
place = "{15, 225}";
type = Stem;
},
{
horizontal = 1;
place = "{-5, 195}";
type = Stem;
},
{
horizontal = 1;
place = "{249, 156}";
type = Stem;
},
{
horizontal = 1;
place = "{502, 205}";
type = Stem;
}
);
layerId = "9A3F6695-68A9-4551-BE26-76B666927AA0";
paths = (
{
closed = 1;
nodes = (
"694.755 500.086 LINE",
"658.406 626.895 OFFCURVE",
"542.921 706.93 OFFCURVE",
"373 706.93 CURVE SMOOTH",
"151 706.93 OFFCURVE",
"15 559.616 OFFCURVE",
"15 351.003 CURVE SMOOTH",
"15 142.389 OFFCURVE",
"152 -4.925 OFFCURVE",
"375 -4.925 CURVE SMOOTH",
"557.678 -4.925 OFFCURVE",
"657.828 100.84 OFFCURVE",
"707 184.86 CURVE",
"707 405.52 LINE",
"373 405.52 LINE",
"373 249.205 LINE",
"522.922 249.205 LINE",
"522.935 250.261 LINE",
"490.426 208.46 OFFCURVE",
"448.633 189.805 OFFCURVE",
"399 189.805 CURVE SMOOTH",
"290 189.805 OFFCURVE",
"240 243.538 OFFCURVE",
"240 351.003 CURVE SMOOTH",
"240 442.787 OFFCURVE",
"288 502.35 OFFCURVE",
"374 502.35 CURVE SMOOTH",
"419.473 502.35 OFFCURVE",
"451.229 486.227 OFFCURVE",
"468.445 460.47 CURVE"
);
}
);
width = 725;
},
{
anchors = (
{
name = bottom;
position = "{391, 0}";
},
{
name = top;
position = "{391, 701}";
}
);
hints = (
{
place = "{42, 117}";
type = Stem;
},
{
place = "{599, 122}";
type = Stem;
},
{
horizontal = 1;
place = "{-6, 103}";
type = Stem;
},
{
horizontal = 1;
place = "{292, 91}";
type = Stem;
},
{
horizontal = 1;
place = "{604, 104}";
type = Stem;
}
);
layerId = "122FC69B-F67C-4AD1-868A-17406666C75E";
paths = (
{
closed = 1;
nodes = (
"708.628 520.684 LINE",
"654.846 641.924 OFFCURVE",
"530.651 708.393 OFFCURVE",
"397 708.393 CURVE SMOOTH",
"201 708.393 OFFCURVE",
"42 560.475 OFFCURVE",
"42 351.175 CURVE SMOOTH",
"42 140.869 OFFCURVE",
"201 -6.043 OFFCURVE",
"397 -6.043 CURVE SMOOTH",
"553.053 -6.043 OFFCURVE",
"673.046 89.547 OFFCURVE",
"721 215.425 CURVE",
"721 383.071 LINE",
"401 383.071 LINE",
"401 292.085 LINE",
"599 291.751 LINE",
"599 220.356 LINE",
"564.995 143.737 OFFCURVE",
"495.291 97.029 OFFCURVE",
"397 97.029 CURVE SMOOTH",
"259 97.029 OFFCURVE",
"159 196.872 OFFCURVE",
"159 351.175 CURVE SMOOTH",
"159 505.479 OFFCURVE",
"259 604.314 OFFCURVE",
"397 604.314 CURVE SMOOTH",
"478.3 604.314 OFFCURVE",
"564.716 562.5 OFFCURVE",
"603.981 482.147 CURVE"
);
}
);
width = 772;
},
{
anchors = (
{
name = bottom;
position = "{403, 0}";
},
{
name = top;
position = "{403, 679}";
}
);
hints = (
{
place = "{52, 21}";
type = Stem;
},
{
horizontal = 1;
place = "{706, -20}";
target = down;
type = TopGhost;
},
{
horizontal = 1;
place = "{-8, 21}";
target = up;
type = BottomGhost;
}
);
layerId = "507F13DB-CCAB-4622-AAF1-433E81077BAF";
paths = (
{
closed = 1;
nodes = (
"694.65 508.138 LINE",
"643.7 627.504 OFFCURVE",
"536.5 706.004 OFFCURVE",
"388 706.004 CURVE SMOOTH",
"192 706.004 OFFCURVE",
"52 558.848 OFFCURVE",
"52 349.05 CURVE SMOOTH",
"52 139.253 OFFCURVE",
"192 -7.903 OFFCURVE",
"388 -7.903 CURVE SMOOTH",
"547.65 -7.903 OFFCURVE",
"670.15 89.737 OFFCURVE",
"710.1 239.379 CURVE",
"710 357.005 LINE",
"388 357.005 LINE",
"388 339.107 LINE",
"691 339.107 LINE",
"691.2 241.716 LINE",
"651.4 95.554 OFFCURVE",
"530.7 9.994 OFFCURVE",
"388 9.994 CURVE SMOOTH",
"213 9.994 OFFCURVE",
"73 138.259 OFFCURVE",
"73 349.05 CURVE SMOOTH",
"73 559.842 OFFCURVE",
"213 688.107 OFFCURVE",
"388 688.107 CURVE SMOOTH",
"529.8 688.107 OFFCURVE",
"633.9 609.308 OFFCURVE",
"677.3 501.825 CURVE"
);
}
);
width = 774;
}
);
unicode = 0047;
},
{
glyphname = Gcommaaccent;
leftMetricsKey = G;
rightMetricsKey = G;
layers = (
{
anchors = (
{
name = _bottom;
position = "{378, 1}";
}
);
components = (
{
name = G;
alignment = -1;
}
);
hints = (
{
place = "{15, 225}";
type = Stem;
},
{
place = "{298, 182}";
type = Stem;
},
{
place = "{370, 110}";
type = Stem;
},
{
horizontal = 1;
place = "{-341, 79}";
type = Stem;
},
{
horizontal = 1;
place = "{-179, 147}";
type = Stem;
},
{
horizontal = 1;
place = "{-5, 195}";
type = Stem;
},
{
horizontal = 1;
place = "{249, 156}";
type = Stem;
},
{
horizontal = 1;
place = "{502, 205}";
type = Stem;
}
);
layerId = "9A3F6695-68A9-4551-BE26-76B666927AA0";
paths = (
{
closed = 1;
nodes = (
"298 -31.82 LINE",
"298 -179.27 LINE",
"370 -179.27 LINE",
"370 -188.777 LINE",
"370 -239.077 OFFCURVE",
"350 -261.325 OFFCURVE",
"315 -261.325 CURVE",
"315 -340.81 LINE",
"429 -340.81 OFFCURVE",
"480 -261.407 OFFCURVE",
"480 -166.122 CURVE SMOOTH",
"480 -124.455 OFFCURVE",
"471.898 -78.705 OFFCURVE",
"453.668 -31.82 CURVE"
);
}
);
width = 725;
},
{
anchors = (
{
name = _bottom;
position = "{386, 0}";
}
);
components = (
{
name = G;
alignment = -1;
}
);
hints = (
{
place = "{42, 117}";
type = Stem;
},
{
place = "{332, 117}";
type = Stem;
},
{
place = "{336, 113}";
type = Stem;
},
{
place = "{385, 64}";
type = Stem;
},
{
place = "{599, 122}";
type = Stem;
},
{
horizontal = 1;
place = "{-143, 96}";
type = Stem;
},
{
horizontal = 1;
place = "{-6, 103}";
type = Stem;
},
{
horizontal = 1;
place = "{292, 91}";
type = Stem;
},
{
horizontal = 1;
place = "{604, 104}";
type = Stem;
},
{
horizontal = 1;
place = "{-272, 21}";
target = up;
type = BottomGhost;
}
);
layerId = "122FC69B-F67C-4AD1-868A-17406666C75E";
paths = (
{
closed = 1;
nodes = (
"332 -47 LINE",
"332 -143.022 LINE",
"385 -143.356 LINE",
"385 -164.507 LINE SMOOTH",
"385 -203.003 OFFCURVE",
"370 -222.251 OFFCURVE",
"336 -222.251 CURVE",
"336 -271.942 LINE",
"410 -271.942 OFFCURVE",
"449 -229.752 OFFCURVE",
"449 -146.377 CURVE SMOOTH",
"449 -117.224 OFFCURVE",
"444.022 -84.102 OFFCURVE",
"435.062 -47 CURVE"
);
}
);
width = 772;
},
{
anchors = (
{
name = _bottom;
position = "{396, -8}";
}
);
components = (
{
name = G;
alignment = -1;
}
);
hints = (
{
place = "{52, 21}";
type = Stem;
},
{
place = "{408, 22}";
type = Stem;
},
{
horizontal = 1;
place = "{-175, 185}";
type = Stem;
},
{
horizontal = 1;
place = "{706, -20}";
target = down;
type = TopGhost;
}
);
layerId = "507F13DB-CCAB-4622-AAF1-433E81077BAF";
paths = (
{
closed = 1;
nodes = (
"377 -58.614 LINE",
"377 -96.398 LINE",
"408 -96.398 LINE",
"408 -103.358 LINE SMOOTH",
"408 -136.171 OFFCURVE",
"397 -157.051 OFFCURVE",
"365 -157.051 CURVE",
"365 -174.949 LINE",
"401 -174.949 OFFCURVE",
"430 -160.034 OFFCURVE",
"430 -89.438 CURVE SMOOTH",
"430 -80.489 OFFCURVE",
"429 -67.563 OFFCURVE",
"428 -58.614 CURVE"
);
}
);
width = 774;
}
);
unicode = 0122;
},
{
glyphname = H;
layers = (
{
hints = (
{
place = "{30, 222}";
type = Stem;
},
{
place = "{463, 222}";
type = Stem;
},
{
horizontal = 1;
place = "{272, 177}";
type = Stem;
},
{
horizontal = 1;
place = "{0, 21}";
target = up;
type = BottomGhost;
},
{
horizontal = 1;
place = "{700, -20}";
target = down;
type = TopGhost;
}
);
layerId = "9A3F6695-68A9-4551-BE26-76B666927AA0";
paths = (
{
closed = 1;
nodes = (
"30 0 LINE",
"252 0 LINE",
"252 700.035 LINE",
"30 700.035 LINE"
);
},
{
closed = 1;
nodes = (
"463 0 LINE",
"685 0 LINE",
"685 700.035 LINE",
"463 700.035 LINE"
);
},
{
closed = 1;
nodes = (
"232 271.86 LINE",
"485 271.86 LINE",
"485 448.86 LINE",
"232 448.86 LINE"
);
}
);
width = 715;
},
{
guideLines = (
{
position = "{0, 699.66}";
}
);
hints = (
{
place = "{85, 114}";
type = Stem;
},
{
place = "{526, 114}";
type = Stem;
},
{
horizontal = 1;
place = "{306, 93}";
type = Stem;
},
{
horizontal = 1;
place = "{0, 21}";
target = up;
type = BottomGhost;
},
{
horizontal = 1;
place = "{700, -20}";
target = down;
type = TopGhost;
}
);
layerId = "122FC69B-F67C-4AD1-868A-17406666C75E";
paths = (
{
closed = 1;
nodes = (
"85 0 LINE",
"199 0 LINE",
"199 700.328 LINE",
"85 700.328 LINE"
);
},
{
closed = 1;
nodes = (
"526 0 LINE",
"640 0 LINE",
"640 700.328 LINE",
"526 700.328 LINE"
);
},
{
closed = 1;
nodes = (
"179 306.186 LINE",
"553 306.186 LINE",
"553 399.186 LINE",
"179 399.186 LINE"
);
}
);
width = 725;
},
{
hints = (
{
place = "{105, 20}";
type = Stem;
},
{
place = "{564, 20}";
type = Stem;
},
{
horizontal = 1;
place = "{0, 21}";
target = up;
type = BottomGhost;
},
{
horizontal = 1;
place = "{700, -20}";
target = down;
type = TopGhost;
}
);
layerId = "507F13DB-CCAB-4622-AAF1-433E81077BAF";
paths = (
{
closed = 1;
nodes = (
"105 0.051 LINE",
"125 0.051 LINE",
"125 700.052 LINE",
"105 700.052 LINE"
);
},
{
closed = 1;
nodes = (
"564 0.051 LINE",
"584 0.051 LINE",
"584 700.052 LINE",
"564 700.052 LINE"
);
},
{
closed = 1;
nodes = (
"115 351.046 LINE",
"576 351.046 LINE",
"576 368.944 LINE",
"115 368.944 LINE"
);
}
);
width = 689;
}
);
unicode = 0048;
},
{
glyphname = I;
leftMetricsKey = H;
rightMetricsKey = H;
layers = (
{
anchors = (
{
name = ogonek;
position = "{252, 1}";
},
{
name = top;
position = "{142, 702}";
}
);
hints = (
{
place = "{30, 222}";
type = Stem;
},
{
horizontal = 1;
place = "{0, 21}";
target = up;
type = BottomGhost;
},
{
horizontal = 1;
place = "{700, -20}";
target = down;
type = TopGhost;
}
);
layerId = "9A3F6695-68A9-4551-BE26-76B666927AA0";
paths = (
{
closed = 1;
nodes = (
"30 0 LINE",
"252 0 LINE",
"252 700.035 LINE",
"30 700.035 LINE"
);
}
);
width = 282;
},
{
anchors = (
{
name = ogonek;
position = "{199, 1}";
},
{
name = top;
position = "{142, 701}";
}
);
hints = (
{
place = "{85, 114}";
type = Stem;
},
{
horizontal = 1;
place = "{0, 21}";
target = up;
type = BottomGhost;
},
{
horizontal = 1;
place = "{700, -20}";
target = down;
type = TopGhost;
}
);
layerId = "122FC69B-F67C-4AD1-868A-17406666C75E";
paths = (
{
closed = 1;
nodes = (
"85 0 LINE",
"199 0 LINE",
"199 700.328 LINE",
"85 700.328 LINE"
);
}
);
width = 284;
},
{
anchors = (
{
name = ogonek;
position = "{125, 0}";
},
{
name = top;
position = "{115, 679}";
}
);
hints = (
{
place = "{105, 20}";
type = Stem;
},
{
horizontal = 1;
place = "{0, 21}";
target = up;
type = BottomGhost;
},
{
horizontal = 1;
place = "{700, -20}";
target = down;
type = TopGhost;
}
);
layerId = "507F13DB-CCAB-4622-AAF1-433E81077BAF";
paths = (
{
closed = 1;
nodes = (
"105 0.051 LINE",
"125 0.051 LINE",
"125 700.038 LINE",
"105 700.038 LINE"
);
}
);
width = 230;
}
);
unicode = 0049;
},
{
glyphname = J;
leftMetricsKey = "H*0.66";
rightMetricsKey = U;
layers = (
{
hints = (
{
place = "{327, 221}";
type = Stem;
},
{
horizontal = 1;
place = "{-6, 197}";
type = Stem;
},
{
horizontal = 1;
place = "{700, -20}";
target = down;
type = TopGhost;
}
);
layerId = "9A3F6695-68A9-4551-BE26-76B666927AA0";
paths = (
{
closed = 1;
nodes = (
"19.533 205.846 LINE",
"43.518 64.458 OFFCURVE",
"143.077 -5.568 OFFCURVE",
"289 -5.568 CURVE SMOOTH",
"445 -5.568 OFFCURVE",
"548 78.158 OFFCURVE",
"548 248.563 CURVE SMOOTH",
"548 699.708 LINE",
"327 699.708 LINE",
"327 248.563 LINE SMOOTH",
"327 203.253 OFFCURVE",
"303 191.433 OFFCURVE",
"279 191.433 CURVE SMOOTH",
"254.702 191.433 OFFCURVE",
"234.616 202.496 OFFCURVE",
"226.977 242.004 CURVE"
);
}
);
width = 576;
},
{
hints = (
{
place = "{343, 115}";
type = Stem;
},
{
horizontal = 1;
place = "{-7, 102}";
type = Stem;
},
{
horizontal = 1;
place = "{700, -20}";
target = down;
type = TopGhost;
}
);
layerId = "122FC69B-F67C-4AD1-868A-17406666C75E";
paths = (
{
closed = 1;
nodes = (
"56.096 127.377 LINE",
"83.039 41.765 OFFCURVE",
"151.205 -7.385 OFFCURVE",
"248 -7.385 CURVE SMOOTH",
"368 -7.385 OFFCURVE",
"458 73.191 OFFCURVE",
"458 200.099 CURVE SMOOTH",
"458 699.67 LINE",
"343 699.67 LINE",
"343 200.099 LINE SMOOTH",
"343 141.681 OFFCURVE",
"309 94.343 OFFCURVE",
"248 94.343 CURVE SMOOTH",
"198.119 94.343 OFFCURVE",
"169.636 121.955 OFFCURVE",
"155.988 163.963 CURVE"
);
}
);
width = 538;
},
{
hints = (
{
place = "{367, 20}";
type = Stem;
},
{
horizontal = 1;
place = "{-7, 21}";
target = up;
type = BottomGhost;
},
{
horizontal = 1;
place = "{700, -20}";
target = down;
type = TopGhost;
}
);
layerId = "507F13DB-CCAB-4622-AAF1-433E81077BAF";
paths = (
{
closed = 1;
nodes = (
"367 154.168 LINE SMOOTH",
"367 96.498 OFFCURVE",
"336 10.988 OFFCURVE",
"231 10.988 CURVE SMOOTH",
"136.615 10.988 OFFCURVE",
"100.588 71.334 OFFCURVE",
"89.287 142.889 CURVE",
"82.47 140.411 OFFCURVE",
"75.933 138.034 OFFCURVE",
"69.993 135.874 CURVE",
"85.127 47.571 OFFCURVE",
"138.103 -6.909 OFFCURVE",
"231 -6.909 CURVE SMOOTH",
"332 -6.909 OFFCURVE",
"387 71.641 OFFCURVE",
"387 154.168 CURVE SMOOTH",
"387 700.038 LINE",
"367 700.038 LINE"
);
}
);
width = 486;
}
);
unicode = 004A;
},
{
glyphname = K;
leftMetricsKey = H;
rightMetricsKey = "H*0.15";
layers = (
{
anchors = (
{
name = bottom;
position = "{354, 1}";
},
{
name = top;
position = "{354, 702}";
}
);
hints = (
{
place = "{30, 222}";
type = Stem;
},
{
horizontal = 1;
place = "{0, 21}";
target = up;
type = BottomGhost;
},
{
horizontal = 1;
place = "{700, -20}";
target = down;
type = TopGhost;
}
);
layerId = "9A3F6695-68A9-4551-BE26-76B666927AA0";
paths = (
{
closed = 1;
nodes = (
"30 0 LINE",
"252 0 LINE",
"252 700.035 LINE",
"30 700.035 LINE"
);
},
{
closed = 1;
nodes = (
"492.082 364.385 LINE",
"737.538 700.035 LINE",
"485.401 700.035 LINE",
"246.489 354.952 LINE",
"488.4 0 LINE",
"753.502 0 LINE"
);
},
{
closed = 1;
nodes = (
"232 271.86 LINE",
"425 271.86 LINE",
"425 448.86 LINE",
"232 448.86 LINE"
);
}
);
width = 758;
},
{
anchors = (
{
name = bottom;
position = "{327, 0}";
},
{
name = top;
position = "{327, 701}";
}
);
hints = (
{
place = "{85, 114}";
type = Stem;
},
{
horizontal = 1;
place = "{0, 21}";
target = up;
type = BottomGhost;
},
{
horizontal = 1;
place = "{700, -20}";
target = down;
type = TopGhost;
}
);
layerId = "122FC69B-F67C-4AD1-868A-17406666C75E";
paths = (
{
closed = 1;
nodes = (
"85 0 LINE",
"199 0 LINE",
"199 700.328 LINE",
"85 700.328 LINE"
);
},
{
closed = 1;
nodes = (
"339.659 356.017 LINE",
"641.511 700.328 LINE",
"498.901 700.328 LINE",
"200.186 353.185 LINE",
"497.901 0 LINE",
"646.522 0 LINE"
);
},
{
closed = 1;
nodes = (
"179 306.186 LINE",
"323 306.186 LINE",
"323 399.186 LINE",
"179 399.186 LINE"
);
}
);
width = 659;
},
{
anchors = (
{
name = bottom;
position = "{275, 0}";
},
{
name = top;
position = "{275, 679}";
}
);
hints = (
{
place = "{105, 20}";
type = Stem;
},
{
horizontal = 1;
place = "{0, 21}";
target = up;
type = BottomGhost;
},
{
horizontal = 1;
place = "{700, -20}";
target = down;
type = TopGhost;
}
);
layerId = "507F13DB-CCAB-4622-AAF1-433E81077BAF";
paths = (
{
closed = 1;
nodes = (
"105 0.051 LINE",
"125 0.051 LINE",
"125 700.038 LINE",
"105 700.038 LINE"
);
},
{
closed = 1;
nodes = (
"166.964 360.771 LINE",
"524 700.038 LINE",
"497 700.038 LINE",
"140 359.988 LINE",
"497 0.051 LINE",
"524 0.051 LINE"
);
},
{
closed = 1;
nodes = (
"115 351.039 LINE",
"166 351.039 LINE",
"166 368.936 LINE",
"115 368.936 LINE"
);
}
);
width = 539;
}
);
unicode = 004B;
},
{
glyphname = Kcommaaccent;
leftMetricsKey = H;
rightMetricsKey = K;
layers = (
{
anchors = (
{
name = _bottom;
position = "{399, 1}";
}
);
components = (
{
name = K;
alignment = -1;
}
);
hints = (
{
place = "{30, 222}";
type = Stem;
},
{
place = "{319, 181}";
type = Stem;
},
{
place = "{391, 109}";
type = Stem;
},
{
horizontal = 1;
place = "{-179, 147}";
type = Stem;
},
{
horizontal = 1;
place = "{700, -20}";
target = down;
type = TopGhost;
},
{
horizontal = 1;
place = "{-341, 21}";
target = up;
type = BottomGhost;
}
);
layerId = "9A3F6695-68A9-4551-BE26-76B666927AA0";
paths = (
{
closed = 1;
nodes = (
"319 -31.82 LINE",
"319 -179.27 LINE",
"391 -179.27 LINE",
"391 -188.777 LINE",
"391 -239.077 OFFCURVE",
"370 -261.325 OFFCURVE",
"336 -261.325 CURVE",
"336 -340.81 LINE",
"449 -340.81 OFFCURVE",
"500 -261.407 OFFCURVE",
"500 -166.122 CURVE SMOOTH",
"500 -124.466 OFFCURVE",
"492.907 -78.729 OFFCURVE",
"474.668 -31.82 CURVE"
);
}
);
width = 758;
},
{
anchors = (
{
name = _bottom;
position = "{317, 0}";
}
);
components = (
{
name = K;
alignment = -1;
}
);
hints = (
{
place = "{85, 114}";
type = Stem;
},
{
place = "{262, 117}";
type = Stem;
},
{
place = "{267, 112}";
type = Stem;
},
{
place = "{315, 64}";
type = Stem;
},
{
horizontal = 1;
place = "{-143, 96}";
type = Stem;
},
{
horizontal = 1;
place = "{700, -20}";
target = down;
type = TopGhost;
},
{
horizontal = 1;
place = "{-272, 21}";
target = up;
type = BottomGhost;
}
);
layerId = "122FC69B-F67C-4AD1-868A-17406666C75E";
paths = (
{
closed = 1;
nodes = (
"262 -47 LINE",
"262 -143.022 LINE",
"315 -143.356 LINE",
"315 -164.507 LINE SMOOTH",
"315 -203.003 OFFCURVE",
"300 -222.251 OFFCURVE",
"267 -222.251 CURVE",
"267 -271.942 LINE",
"341 -271.942 OFFCURVE",
"379 -229.752 OFFCURVE",
"379 -146.377 CURVE SMOOTH",
"379 -117.223 OFFCURVE",
"375.019 -84.089 OFFCURVE",
"365.066 -47 CURVE"
);
}
);
width = 659;
},
{
anchors = (
{
name = _bottom;
position = "{241, 0}";
}
);
components = (
{
name = K;
alignment = -1;
}
);
hints = (
{
place = "{105, 20}";
type = Stem;
},
{
place = "{248, 22}";
type = Stem;
},
{
horizontal = 1;
place = "{-175, 21}";
target = up;
type = BottomGhost;
},
{
horizontal = 1;
place = "{700, -20}";
target = down;
type = TopGhost;
}
);
layerId = "507F13DB-CCAB-4622-AAF1-433E81077BAF";
paths = (
{
closed = 1;
nodes = (
"217 -58.614 LINE",
"217 -96.398 LINE",
"248 -96.398 LINE",
"248 -103.358 LINE SMOOTH",
"248 -136.171 OFFCURVE",
"237 -157.051 OFFCURVE",
"205 -157.051 CURVE",
"205 -174.949 LINE",
"241 -174.949 OFFCURVE",
"270 -160.034 OFFCURVE",
"270 -89.438 CURVE SMOOTH",
"270 -80.489 OFFCURVE",
"269 -67.563 OFFCURVE",
"268 -58.614 CURVE"
);
}
);
width = 539;
}
);
unicode = 0136;
},
{
glyphname = L;
leftMetricsKey = H;
rightMetricsKey = "H*0.333";
layers = (
{
anchors = (
{
name = bottom;
position = "{245, 1}";
},
{
name = commaaccent;
position = "{245, 11}";
},
{
name = top;
position = "{211, 702}";
},
{
name = topright;
position = "{446, 702}";
}
);
hints = (
{
place = "{30, 222}";
type = Stem;
},
{
horizontal = 1;
place = "{0, 168}";
type = Stem;
},
{
horizontal = 1;
place = "{700, -20}";
target = down;
type = TopGhost;
}
);
layerId = "9A3F6695-68A9-4551-BE26-76B666927AA0";
paths = (
{
closed = 1;
nodes = (
"30 700.035 LINE",
"30 0 LINE",
"546 0 LINE",
"546 168.135 LINE",
"252 168.135 LINE",
"252 700.035 LINE"
);
}
);
width = 555;
},
{
anchors = (
{
name = bottom;
position = "{258, 0}";
},
{
name = commaaccent;
position = "{258, 10}";
},
{
name = top;
position = "{232, 701}";
},
{
name = topright;
position = "{434, 701}";
}
);
hints = (
{
place = "{85, 114}";
type = Stem;
},
{
horizontal = 1;
place = "{0, 92}";
type = Stem;
},
{
horizontal = 1;
place = "{700, -20}";
target = down;
type = TopGhost;
}
);
layerId = "122FC69B-F67C-4AD1-868A-17406666C75E";
paths = (
{
closed = 1;
nodes = (
"85 700.328 LINE",
"85 0 LINE",
"514 0 LINE",
"514 91.993 LINE",
"199 92.327 LINE",
"199 700.328 LINE"
);
}
);
width = 542;
},
{
anchors = (
{
name = bottom;
position = "{240, 0}";
},
{
name = commaaccent;
position = "{240, 10}";
},
{
name = top;
position = "{222, 679}";
},
{
name = topright;
position = "{395, 679}";
}
);
hints = (
{
place = "{105, 20}";
type = Stem;
},
{
horizontal = 1;
place = "{0, 21}";
target = up;
type = BottomGhost;
},
{
horizontal = 1;
place = "{700, -20}";
target = down;
type = TopGhost;
}
);
layerId = "507F13DB-CCAB-4622-AAF1-433E81077BAF";
paths = (
{
closed = 1;
nodes = (
"105 700.038 LINE",
"105 0.051 LINE",
"475 0.051 LINE",
"475 17.949 LINE",
"125 17.949 LINE",
"125 700.038 LINE"
);
}
);
width = 509;
}
);
unicode = 004C;
},
{
glyphname = Lcaron;
leftMetricsKey = L;
rightMetricsKey = L;
layers = (
{
anchors = (
{
name = _bottom;
position = "{449, 733}";
}
);
components = (
{
name = L;
alignment = -1;
}
);
hints = (
{
place = "{30, 222}";
type = Stem;
},
{
place = "{369, 181}";
type = Stem;
},
{
place = "{441, 109}";
type = Stem;
},
{
horizontal = 1;
place = "{0, 168}";
type = Stem;
},
{
horizontal = 1;
place = "{555, 145}";
type = Stem;
}
);
layerId = "9A3F6695-68A9-4551-BE26-76B666927AA0";
paths = (
{
closed = 1;
nodes = (
"369 700.035 LINE",
"369 553.57 LINE",
"441 554.897 LINE",
"441 543.077 LINE SMOOTH",
"441 493.757 OFFCURVE",
"420 471.515 OFFCURVE",
"386 471.515 CURVE",
"386 391.045 LINE",
"499 391.045 OFFCURVE",
"550 470.445 OFFCURVE",
"550 566.717 CURVE SMOOTH",
"550 608.377 OFFCURVE",
"542.906 654.117 OFFCURVE",
"524.665 700.035 CURVE"
);
}
);
width = 559;
},
{
anchors = (
{
name = _bottom;
position = "{352, 746}";
}
);
components = (
{
name = L;
alignment = -1;
}
);
hints = (
{
place = "{85, 114}";
type = Stem;
},
{
place = "{297, 117}";
type = Stem;
},
{
place = "{302, 112}";
type = Stem;
},
{
place = "{350, 64}";
type = Stem;
},
{
horizontal = 1;
place = "{0, 92}";
type = Stem;
},
{
horizontal = 1;
place = "{474, 226}";
type = Stem;
},
{
horizontal = 1;
place = "{603, 97}";
type = Stem;
}
);
layerId = "122FC69B-F67C-4AD1-868A-17406666C75E";
paths = (
{
closed = 1;
nodes = (
"297 699.328 LINE",
"297 603.307 LINE",
"350 602.973 LINE",
"350 581.822 LINE SMOOTH",
"350 543.325 OFFCURVE",
"335 524.077 OFFCURVE",
"302 524.077 CURVE",
"302 474.387 LINE",
"376 474.387 OFFCURVE",
"414 516.576 OFFCURVE",
"414 599.951 CURVE SMOOTH",
"414 629.106 OFFCURVE",
"410.019 662.239 OFFCURVE",
"400.066 699.328 CURVE"
);
}
);
width = 542;
},
{
anchors = (
{
name = _bottom;
position = "{259, 736}";
}
);
components = (
{
name = L;
alignment = -1;
}
);
hints = (
{
place = "{105, 20}";
type = Stem;
},
{
place = "{270, 22}";
type = Stem;
},
{
horizontal = 1;
place = "{554, 20}";
type = Stem;
},
{
horizontal = 1;
place = "{554, 146}";
type = Stem;
},
{
horizontal = 1;
place = "{0, 21}";
target = up;
type = BottomGhost;
}
);
layerId = "507F13DB-CCAB-4622-AAF1-433E81077BAF";
paths = (
{
closed = 1;
nodes = (
"232 700.052 LINE",
"232 647.353 LINE",
"270 647.353 LINE",
"270 618.518 LINE SMOOTH",
"270 589.683 OFFCURVE",
"260 573.774 OFFCURVE",
"225 573.774 CURVE",
"225 553.887 LINE",
"265 553.887 OFFCURVE",
"292 568.802 OFFCURVE",
"292 631.444 CURVE SMOOTH",
"292 649.342 OFFCURVE",
"291 671.217 OFFCURVE",
"288 700.052 CURVE"
);
}
);
width = 509;
}
);
unicode = 013D;
},
{
glyphname = Lcommaaccent;
leftMetricsKey = L;
rightMetricsKey = L;
layers = (
{
anchors = (
{
name = _commaaccent;
position = "{290, 11}";
}
);
components = (
{
name = L;
alignment = -1;
}
);
hints = (
{
place = "{30, 222}";
type = Stem;
},
{
place = "{210, 182}";
type = Stem;
},
{
place = "{282, 110}";
type = Stem;
},
{
horizontal = 1;
place = "{-341, 79}";
type = Stem;
},
{
horizontal = 1;
place = "{-179, 147}";
type = Stem;
},
{
horizontal = 1;
place = "{0, 168}";
type = Stem;
},
{
horizontal = 1;
place = "{700, -20}";
target = down;
type = TopGhost;
}
);
layerId = "9A3F6695-68A9-4551-BE26-76B666927AA0";
paths = (
{
closed = 1;
nodes = (
"210 -31.82 LINE",
"210 -179.27 LINE",
"282 -179.27 LINE",
"282 -188.777 LINE",
"282 -239.077 OFFCURVE",
"262 -261.325 OFFCURVE",
"227 -261.325 CURVE",
"227 -340.81 LINE",
"341 -340.81 OFFCURVE",
"392 -261.407 OFFCURVE",
"392 -166.122 CURVE SMOOTH",
"392 -124.455 OFFCURVE",
"383.898 -78.705 OFFCURVE",
"365.668 -31.82 CURVE"
);
}
);
width = 555;
},
{
anchors = (
{
name = _commaaccent;
position = "{248, 0}";
}
);
components = (
{
name = L;
alignment = -1;
}
);
hints = (
{
place = "{85, 114}";
type = Stem;
},
{
place = "{193, 117}";
type = Stem;
},
{
place = "{197, 113}";
type = Stem;
},
{
place = "{246, 64}";
type = Stem;
},
{
horizontal = 1;
place = "{-143, 96}";
type = Stem;
},
{
horizontal = 1;
place = "{0, 92}";
type = Stem;
},
{
horizontal = 1;
place = "{700, -20}";
target = down;
type = TopGhost;
},
{
horizontal = 1;
place = "{-272, 21}";
target = up;
type = BottomGhost;
}
);
layerId = "122FC69B-F67C-4AD1-868A-17406666C75E";
paths = (
{
closed = 1;
nodes = (
"193 -47 LINE",
"193 -143.022 LINE",
"246 -143.356 LINE",
"246 -164.507 LINE SMOOTH",
"246 -203.003 OFFCURVE",
"231 -222.251 OFFCURVE",
"197 -222.251 CURVE",
"197 -271.942 LINE",
"272 -271.942 OFFCURVE",
"310 -229.752 OFFCURVE",
"310 -146.377 CURVE SMOOTH",
"310 -117.223 OFFCURVE",
"306.019 -84.089 OFFCURVE",
"296.066 -47 CURVE"
);
}
);
width = 542;
},
{
anchors = (
{
name = _commaaccent;
position = "{231, 0}";
}
);
components = (
{
name = L;
alignment = -1;
}
);
hints = (
{
place = "{105, 20}";
type = Stem;
},
{
place = "{238, 22}";
type = Stem;
},
{
horizontal = 1;
place = "{-175, 193}";
type = Stem;
},
{
horizontal = 1;
place = "{700, -20}";
target = down;
type = TopGhost;
}
);
layerId = "507F13DB-CCAB-4622-AAF1-433E81077BAF";
paths = (
{
closed = 1;
nodes = (
"207 -58.614 LINE",
"207 -96.398 LINE",
"238 -96.398 LINE",
"238 -103.358 LINE SMOOTH",
"238 -136.171 OFFCURVE",
"227 -157.051 OFFCURVE",
"195 -157.051 CURVE",
"195 -174.949 LINE",
"231 -174.949 OFFCURVE",
"260 -160.034 OFFCURVE",
"260 -89.438 CURVE SMOOTH",
"260 -80.489 OFFCURVE",
"259 -67.563 OFFCURVE",
"258 -58.614 CURVE"
);
}
);
width = 509;
}
);
unicode = 013B;
},
{
color = 4;
glyphname = Ldot;
leftMetricsKey = L;
rightMetricsKey = L;
layers = (
{
hints = (
{
place = "{30, 222}";
type = Stem;
},
{
place = "{309, 172}";
type = Stem;
},
{
horizontal = 1;
place = "{0, 168}";
type = Stem;
},
{
horizontal = 1;
place = "{322, 172}";
type = Stem;
},
{
horizontal = 1;
place = "{700, -20}";
target = down;
type = TopGhost;
}
);
layerId = "9A3F6695-68A9-4551-BE26-76B666927AA0";
paths = (
{
closed = 1;
nodes = (
"466 0 LINE",
"466 168.135 LINE",
"252 168.135 LINE",
"252 700.035 LINE",
"30 700.035 LINE",
"30 0 LINE"
);
},
{
closed = 1;
nodes = (
"444 322.095 OFFCURVE",
"481 359.118 OFFCURVE",
"481 407.148 CURVE SMOOTH",
"481 457.16 OFFCURVE",
"444 494.17 OFFCURVE",
"394 494.17 CURVE SMOOTH",
"346 494.17 OFFCURVE",
"309 457.16 OFFCURVE",
"309 407.148 CURVE SMOOTH",
"309 359.118 OFFCURVE",
"346 322.095 OFFCURVE",
"394 322.095 CURVE SMOOTH"
);
}
);
width = 490;
},
{
hints = (
{
place = "{85, 114}";
type = Stem;
},
{
place = "{302, 120}";
type = Stem;
},
{
horizontal = 1;
place = "{0, 92}";
type = Stem;
},
{
horizontal = 1;
place = "{317, 120}";
type = Stem;
},
{
horizontal = 1;
place = "{699, -20}";
target = down;
type = TopGhost;
}
);
layerId = "122FC69B-F67C-4AD1-868A-17406666C75E";
paths = (
{
closed = 1;
nodes = (
"434 0 LINE",
"434 91.993 LINE",
"199 92.327 LINE",
"199 699.328 LINE",
"85 699.328 LINE",
"85 0 LINE"
);
},
{
closed = 1;
nodes = (
"395 317.265 OFFCURVE",
"422 343.307 OFFCURVE",
"422 377.362 CURVE SMOOTH",
"422 410.415 OFFCURVE",
"395 437.459 OFFCURVE",
"362 437.459 CURVE SMOOTH",
"328 437.459 OFFCURVE",
"302 410.415 OFFCURVE",
"302 377.362 CURVE SMOOTH",
"302 343.307 OFFCURVE",
"328 317.265 OFFCURVE",
"362 317.265 CURVE SMOOTH"
);
}
);
width = 462;
},
{
hints = (
{
place = "{105, 20}";
type = Stem;
},
{
place = "{312, 60}";
type = Stem;
},
{
horizontal = 1;
place = "{346, 60}";
type = Stem;
},
{
horizontal = 1;
place = "{0, 21}";
target = up;
type = BottomGhost;
},
{
horizontal = 1;
place = "{700, -20}";
target = down;
type = TopGhost;
}
);
layerId = "507F13DB-CCAB-4622-AAF1-433E81077BAF";
paths = (
{
closed = 1;
nodes = (
"395 0.051 LINE",
"395 17.949 LINE",
"125 17.949 LINE",
"125 700.052 LINE",
"105 700.052 LINE",
"105 0.051 LINE"
);
},
{
closed = 1;
nodes = (
"358 346.074 OFFCURVE",
"372 359.995 OFFCURVE",
"372 375.904 CURVE SMOOTH",
"372 391.813 OFFCURVE",
"358 405.734 OFFCURVE",
"342 405.734 CURVE SMOOTH",
"326 405.734 OFFCURVE",
"312 391.813 OFFCURVE",
"312 375.904 CURVE SMOOTH",
"312 359.995 OFFCURVE",
"326 346.074 OFFCURVE",
"342 346.074 CURVE SMOOTH"
);
}
);
width = 429;
}
);
unicode = 013F;
},
{
glyphname = Lslash;
leftMetricsKey = L;
rightMetricsKey = L;
layers = (
{
hints = (
{
place = "{85, 222}";
type = Stem;
},
{
horizontal = 1;
place = "{0, 168}";
type = Stem;
},
{
horizontal = 1;
place = "{700, -20}";
target = down;
type = TopGhost;
}
);
layerId = "9A3F6695-68A9-4551-BE26-76B666927AA0";
paths = (
{
closed = 1;
nodes = (
"30 237.433 LINE",
"382 332.978 LINE",
"382 528.597 LINE",
"30 433.052 LINE"
);
},
{
closed = 1;
nodes = (
"85 700.035 LINE",
"85 0 LINE",
"521 0 LINE",
"521 168.135 LINE",
"307 168.135 LINE",
"307 700.035 LINE"
);
}
);
width = 530;
},
{
hints = (
{
place = "{85, 192}";
type = Stem;
},
{
place = "{162, 115}";
type = Stem;
},
{
place = "{162, 207}";
type = Stem;
},
{
horizontal = 1;
place = "{0, 87}";
type = Stem;
},
{
horizontal = 1;
place = "{699, -20}";
target = down;
type = TopGhost;
}
);
layerId = "122FC69B-F67C-4AD1-868A-17406666C75E";
paths = (
{
closed = 1;
nodes = (
"85 268.903 LINE",
"369 361.565 LINE",
"369 448.555 LINE",
"85 354.886 LINE"
);
},
{
closed = 1;
nodes = (
"162 699.328 LINE",
"162 0 LINE",
"511 0 LINE",
"511 86.957 LINE",
"277 87.291 LINE",
"277 699.328 LINE"
);
}
);
width = 539;
},
{
hints = (
{
place = "{200, 20}";
type = Stem;
},
{
horizontal = 1;
place = "{0, 21}";
target = up;
type = BottomGhost;
},
{
horizontal = 1;
place = "{700, -20}";
target = down;
type = TopGhost;
}
);
layerId = "507F13DB-CCAB-4622-AAF1-433E81077BAF";
paths = (
{
closed = 1;
nodes = (
"105 312.268 LINE",
"381 441.529 LINE",
"381 461.416 LINE",
"105 332.154 LINE"
);
},
{
closed = 1;
nodes = (
"200 700.052 LINE",
"200 0.051 LINE",
"490 0.051 LINE",
"490 17.949 LINE",
"220 17.949 LINE",
"220 700.052 LINE"
);
}
);
width = 524;
}
);
unicode = 0141;
},
{
glyphname = M;
leftMetricsKey = H;
rightMetricsKey = H;
layers = (
{
hints = (
{
place = "{30, 222}";
type = Stem;
},
{
place = "{660, 221}";
type = Stem;
},
{
horizontal = 1;
place = "{700, -20}";
target = down;
type = TopGhost;
},
{
horizontal = 1;
place = "{0, 21}";
target = up;
type = BottomGhost;
}
);
layerId = "9A3F6695-68A9-4551-BE26-76B666927AA0";
paths = (
{
closed = 1;
nodes = (
"252 348.947 LINE",
"361.293 0 LINE",
"550.707 0 LINE",
"660 349.338 LINE",
"660 0 LINE",
"881 0 LINE",
"881 700.035 LINE",
"610.319 700.035 LINE",
"458.375 280.53 LINE",
"301.675 700.035 LINE",
"30 700.035 LINE",
"30 0 LINE",
"252 0 LINE"
);
}
);
width = 911;
},
{
hints = (
{
place = "{85, 114}";
type = Stem;
},
{
place = "{703, 114}";
type = Stem;
},
{
horizontal = 1;
place = "{700, -20}";
target = down;
type = TopGhost;
},
{
horizontal = 1;
place = "{0, 21}";
target = up;
type = BottomGhost;
}
);
layerId = "122FC69B-F67C-4AD1-868A-17406666C75E";
paths = (
{
closed = 1;
nodes = (
"199 479.392 LINE",
"411.912 0 LINE",
"491.088 0 LINE",
"703 478.99 LINE",
"703 0 LINE",
"817 0 LINE",
"817 700.328 LINE",
"694.912 700.328 LINE",
"451.5 150.499 LINE",
"208.088 700.328 LINE",
"85 700.328 LINE",
"85 0 LINE",
"199 0 LINE"
);
}
);
width = 902;
},
{
guideLines = (
{
angle = 245.87;
position = "{583, 348.06}";
}
);
hints = (
{
place = "{105, 20}";
type = Stem;
},
{
place = "{712, 20}";
type = Stem;
},
{
horizontal = 1;
place = "{0, 21}";
target = up;
type = BottomGhost;
},
{
horizontal = 1;
place = "{700, -20}";
target = down;
type = TopGhost;
}
);
layerId = "507F13DB-CCAB-4622-AAF1-433E81077BAF";
paths = (
{
closed = 1;
nodes = (
"125 650.675 LINE",
"409 0.051 LINE",
"429 0.051 LINE",
"712 650.696 LINE",
"712 0.051 LINE",
"732 0.051 LINE",
"732 700.045 LINE",
"712 700.045 LINE",
"419.23 25.894 LINE",
"125 700.045 LINE",
"105 700.045 LINE",
"105 0.051 LINE",
"125 0.051 LINE"
);
}
);
width = 837;
}
);
unicode = 004D;
},
{
glyphname = N;
leftMetricsKey = H;
rightMetricsKey = H;
layers = (
{
anchors = (
{
name = bottom;
position = "{369, 1}";
},
{
name = top;
position = "{369, 702}";
}
);
hints = (
{
place = "{30, 222}";
type = Stem;
},
{
place = "{487, 222}";
type = Stem;
},
{
horizontal = 1;
place = "{700, -20}";
target = down;
type = TopGhost;
},
{
horizontal = 1;
place = "{0, 21}";
target = up;
type = BottomGhost;
}
);
layerId = "9A3F6695-68A9-4551-BE26-76B666927AA0";
paths = (
{
closed = 1;
nodes = (
"487 700.035 LINE",
"487 342.86 LINE",
"251.601 700.035 LINE",
"30 700.035 LINE",
"30 0 LINE",
"252 0 LINE",
"252 351.256 LINE",
"487.4 0 LINE",
"709 0 LINE",
"709 700.035 LINE"
);
}
);
width = 739;
},
{
anchors = (
{
name = bottom;
position = "{371, 0}";
},
{
name = top;
position = "{371, 701}";
}
);
hints = (
{
place = "{85, 114}";
type = Stem;
},
{
place = "{542, 114}";
type = Stem;
},
{
horizontal = 1;
place = "{700, -20}";
target = down;
type = TopGhost;
},
{
horizontal = 1;
place = "{0, 21}";
target = up;
type = BottomGhost;
}
);
layerId = "122FC69B-F67C-4AD1-868A-17406666C75E";
paths = (
{
closed = 1;
nodes = (
"542 700.336 LINE",
"542 178.761 LINE",
"199.098 700.336 LINE",
"85 700.336 LINE",
"85 0 LINE",
"199 0 LINE",
"199 522.582 LINE",
"541.902 0 LINE",
"656 0 LINE",
"656 700.336 LINE"
);
}
);
width = 741;
},
{
anchors = (
{
name = bottom;
position = "{344, 0}";
},
{
name = top;
position = "{344, 679}";
}
);
hints = (
{
place = "{105, 20}";
type = Stem;
},
{
place = "{562, 20}";
type = Stem;
},
{
horizontal = 1;
place = "{699, -20}";
target = down;
type = TopGhost;
},
{
horizontal = 1;
place = "{0, 21}";
target = up;
type = BottomGhost;
}
);
layerId = "507F13DB-CCAB-4622-AAF1-433E81077BAF";
paths = (
{
closed = 1;
nodes = (
"562 699.044 LINE",
"562 36.84 LINE",
"125 699.044 LINE",
"105 699.044 LINE",
"105 0.051 LINE",
"125 0.051 LINE",
"125 663.249 LINE",
"562 0.051 LINE",
"582 0.051 LINE",
"582 699.044 LINE"
);
}
);
width = 687;
}
);
unicode = 004E;
},
{
glyphname = Ncommaaccent;
leftMetricsKey = H;
rightMetricsKey = H;
layers = (
{
anchors = (
{
name = _bottom;
position = "{414, 1}";
}
);
components = (
{
name = N;
alignment = -1;
}
);
hints = (
{
place = "{30, 222}";
type = Stem;
},
{
place = "{334, 182}";
type = Stem;
},
{
place = "{487, 222}";
type = Stem;
},
{
place = "{406, 110}";
type = Stem;
},
{
horizontal = 1;
place = "{-341, 79}";
type = Stem;
},
{
horizontal = 1;
place = "{-179, 147}";
type = Stem;
},
{
horizontal = 1;
place = "{700, -20}";
target = down;
type = TopGhost;
}
);
layerId = "9A3F6695-68A9-4551-BE26-76B666927AA0";
paths = (
{
closed = 1;
nodes = (
"334 -31.82 LINE",
"334 -179.27 LINE",
"406 -179.27 LINE",
"406 -188.777 LINE",
"406 -239.077 OFFCURVE",
"386 -261.325 OFFCURVE",
"351 -261.325 CURVE",
"351 -340.81 LINE",
"465 -340.81 OFFCURVE",
"516 -261.407 OFFCURVE",
"516 -166.122 CURVE SMOOTH",
"516 -124.455 OFFCURVE",
"507.898 -78.705 OFFCURVE",
"489.668 -31.82 CURVE"
);
}
);
width = 739;
},
{
anchors = (
{
name = _bottom;
position = "{361, 0}";
}
);
components = (
{
name = N;
alignment = -1;
}
);
hints = (
{
place = "{85, 114}";
type = Stem;
},
{
place = "{306, 117}";
type = Stem;
},
{
place = "{311, 112}";
type = Stem;
},
{
place = "{359, 64}";
type = Stem;
},
{
place = "{542, 114}";
type = Stem;
},
{
horizontal = 1;
place = "{-143, 96}";
type = Stem;
},
{
horizontal = 1;
place = "{700, -20}";
target = down;
type = TopGhost;
},
{
horizontal = 1;
place = "{-272, 21}";
target = up;
type = BottomGhost;
}
);
layerId = "122FC69B-F67C-4AD1-868A-17406666C75E";
paths = (
{
closed = 1;
nodes = (
"306 -47 LINE",
"306 -143.022 LINE",
"359 -143.356 LINE",
"359 -164.507 LINE SMOOTH",
"359 -203.003 OFFCURVE",
"344 -222.251 OFFCURVE",
"311 -222.251 CURVE",
"311 -271.942 LINE",
"385 -271.942 OFFCURVE",
"423 -229.752 OFFCURVE",
"423 -146.377 CURVE SMOOTH",
"423 -117.223 OFFCURVE",
"419.019 -84.089 OFFCURVE",
"409.066 -47 CURVE"
);
}
);
width = 741;
},
{
anchors = (
{
name = _bottom;
position = "{323, 0}";
}
);
components = (
{
name = N;
alignment = -1;
}
);
hints = (
{
place = "{105, 20}";
type = Stem;
},
{
place = "{328, 22}";
type = Stem;
},
{
place = "{562, 20}";
type = Stem;
},
{
horizontal = 1;
place = "{-175, 21}";
target = up;
type = BottomGhost;
},
{
horizontal = 1;
place = "{699, -20}";
target = down;
type = TopGhost;
}
);
layerId = "507F13DB-CCAB-4622-AAF1-433E81077BAF";
paths = (
{
closed = 1;
nodes = (
"297 -58.614 LINE",
"297 -96.398 LINE",
"328 -96.398 LINE",
"328 -103.358 LINE SMOOTH",
"328 -136.171 OFFCURVE",
"317 -157.051 OFFCURVE",
"285 -157.051 CURVE",
"285 -174.949 LINE",
"321 -174.949 OFFCURVE",
"350 -160.034 OFFCURVE",
"350 -89.438 CURVE SMOOTH",
"350 -80.489 OFFCURVE",
"349 -67.563 OFFCURVE",
"348 -58.614 CURVE"
);
}
);
width = 687;
}
);
unicode = 0145;
},
{
glyphname = O;
leftMetricsKey = "H*0.5";
rightMetricsKey = "H*0.5";
layers = (
{
anchors = (
{
name = top;
position = "{380, 702}";
}
);
hints = (
{
place = "{15, 226}";
type = Stem;
},
{
place = "{518, 225}";
type = Stem;
},
{
horizontal = 1;
place = "{-7, 207}";
type = Stem;
},
{
horizontal = 1;
place = "{507, 205}";
type = Stem;
}
);
layerId = "9A3F6695-68A9-4551-BE26-76B666927AA0";
paths = (
{
closed = 1;
nodes = (
"580 -6.895 OFFCURVE",
"743 142.391 OFFCURVE",
"743 352.972 CURVE SMOOTH",
"743 563.556 OFFCURVE",
"582 711.855 OFFCURVE",
"380 711.855 CURVE SMOOTH",
"179 711.855 OFFCURVE",
"15 563.556 OFFCURVE",
"15 352.972 CURVE SMOOTH",
"15 142.391 OFFCURVE",
"179 -6.895 OFFCURVE",
"380 -6.895 CURVE SMOOTH"
);
},
{
closed = 1;
nodes = (
"289 199.655 OFFCURVE",
"241 261.177 OFFCURVE",
"241 352.972 CURVE SMOOTH",
"241 446.726 OFFCURVE",
"289 507.275 OFFCURVE",
"380 507.275 CURVE SMOOTH",
"469 507.275 OFFCURVE",
"518 446.726 OFFCURVE",
"518 352.972 CURVE SMOOTH",
"518 261.177 OFFCURVE",
"469 199.655 OFFCURVE",
"380 199.655 CURVE SMOOTH"
);
}
);
width = 758;
},
{
anchors = (
{
name = top;
position = "{397, 701}";
}
);
hints = (
{
place = "{42, 117}";
type = Stem;
},
{
place = "{635, 117}";
type = Stem;
},
{
horizontal = 1;
place = "{-7, 99}";
type = Stem;
},
{
horizontal = 1;
place = "{608, 100}";
type = Stem;
}
);
layerId = "122FC69B-F67C-4AD1-868A-17406666C75E";
paths = (
{
closed = 1;
nodes = (
"595 -7.05 OFFCURVE",
"752 140.869 OFFCURVE",
"752 351.175 CURVE SMOOTH",
"752 560.475 OFFCURVE",
"595 708.393 OFFCURVE",
"397 708.393 CURVE SMOOTH",
"201 708.393 OFFCURVE",
"42 560.475 OFFCURVE",
"42 351.175 CURVE SMOOTH",
"42 140.869 OFFCURVE",
"201 -7.05 OFFCURVE",
"397 -7.05 CURVE SMOOTH"
);
},
{
closed = 1;
nodes = (
"259 91.993 OFFCURVE",
"159 192.842 OFFCURVE",
"159 351.175 CURVE SMOOTH",
"159 509.51 OFFCURVE",
"259 608.343 OFFCURVE",
"397 608.343 CURVE SMOOTH",
"535 608.343 OFFCURVE",
"635 509.51 OFFCURVE",
"635 351.175 CURVE SMOOTH",
"635 192.842 OFFCURVE",
"535 91.993 OFFCURVE",
"397 91.993 CURVE SMOOTH"
);
}
);
width = 794;
},
{
anchors = (
{
name = top;
position = "{399, 679}";
}
);
hints = (
{
place = "{52, 21}";
type = Stem;
},
{
place = "{703, 21}";
type = Stem;
},
{
horizontal = 1;
place = "{706, -20}";
target = down;
type = TopGhost;
},
{
horizontal = 1;
place = "{-8, 21}";
target = up;
type = BottomGhost;
}
);
layerId = "507F13DB-CCAB-4622-AAF1-433E81077BAF";
paths = (
{
closed = 1;
nodes = (
"584 -7.903 OFFCURVE",
"724 139.253 OFFCURVE",
"724 349.05 CURVE",
"724 558.848 OFFCURVE",
"584 706.004 OFFCURVE",
"388 706.004 CURVE",
"192 706.004 OFFCURVE",
"52 558.848 OFFCURVE",
"52 349.05 CURVE",
"52 139.253 OFFCURVE",
"192 -7.903 OFFCURVE",
"388 -7.903 CURVE"
);
},
{
closed = 1;
nodes = (
"213 9.994 OFFCURVE",
"73 138.259 OFFCURVE",
"73 349.05 CURVE",
"73 559.842 OFFCURVE",
"213 688.107 OFFCURVE",
"388 688.107 CURVE",
"563 688.107 OFFCURVE",
"703 559.842 OFFCURVE",
"703 349.05 CURVE",
"703 138.259 OFFCURVE",
"563 9.994 OFFCURVE",
"388 9.994 CURVE"
);
}
);
width = 776;
}
);
unicode = 004F;
},
{
glyphname = Oslash;
leftMetricsKey = O;
rightMetricsKey = O;
layers = (
{
components = (
{
name = O;
alignment = -1;
}
);
hints = (
{
place = "{15, 226}";
type = Stem;
},
{
place = "{518, 225}";
type = Stem;
},
{
horizontal = 1;
place = "{-7, 207}";
type = Stem;
},
{
horizontal = 1;
place = "{507, 205}";
type = Stem;
}
);
layerId = "9A3F6695-68A9-4551-BE26-76B666927AA0";
paths = (
{
closed = 1;
nodes = (
"154.403 180.051 LINE",
"271.5 120.393 LINE",
"654.685 543.983 LINE",
"538.593 603.644 LINE"
);
}
);
width = 758;
},
{
components = (
{
name = O;
alignment = -1;
}
);
hints = (
{
place = "{42, 117}";
type = Stem;
},
{
place = "{635, 117}";
type = Stem;
},
{
horizontal = 1;
place = "{-7, 99}";
type = Stem;
},
{
horizontal = 1;
place = "{608, 100}";
type = Stem;
}
);
layerId = "122FC69B-F67C-4AD1-868A-17406666C75E";
paths = (
{
closed = 1;
nodes = (
"145.917 156.466 LINE",
"236.636 109.274 LINE",
"649.788 561.102 LINE",
"559.069 608.294 LINE"
);
}
);
width = 794;
},
{
components = (
{
name = O;
alignment = -1;
}
);
hints = (
{
place = "{52, 21}";
type = Stem;
},
{
place = "{703, 21}";
type = Stem;
},
{
horizontal = 1;
place = "{706, -20}";
target = down;
type = TopGhost;
},
{
horizontal = 1;
place = "{-8, 21}";
target = up;
type = BottomGhost;
}
);
layerId = "507F13DB-CCAB-4622-AAF1-433E81077BAF";
paths = (
{
closed = 1;
nodes = (
"148.088 102.788 LINE",
"171.088 100.788 LINE",
"633.607 602.19 LINE",
"611.607 605.19 LINE"
);
}
);
width = 776;
}
);
unicode = 00D8;
},
{
glyphname = OE;
leftMetricsKey = O;
rightMetricsKey = E;
layers = (
{
hints = (
{
place = "{15, 226}";
type = Stem;
},
{
place = "{518, 232}";
type = Stem;
},
{
horizontal = 1;
place = "{-12, 205}";
type = Stem;
},
{
horizontal = 1;
place = "{0, 177}";
type = Stem;
},
{
horizontal = 1;
place = "{273, 167}";
type = Stem;
},
{
horizontal = 1;
place = "{507, 205}";
type = Stem;
},
{
horizontal = 1;
place = "{524, 176}";
type = Stem;
}
);
layerId = "9A3F6695-68A9-4551-BE26-76B666927AA0";
paths = (
{
closed = 1;
nodes = (
"1000 524.02 LINE",
"1000 700.035 LINE",
"528 700.035 LINE",
"528 663.325 LINE",
"483.877 695.184 OFFCURVE",
"421.052 711.855 OFFCURVE",
"363 711.855 CURVE SMOOTH",
"161 711.855 OFFCURVE",
"15 562.335 OFFCURVE",
"15 350.018 CURVE SMOOTH",
"15 137.7 OFFCURVE",
"161 -11.819 OFFCURVE",
"363 -11.819 CURVE",
"421.053 -8.912 OFFCURVE",
"483.831 4.888 OFFCURVE",
"528 36.711 CURVE",
"528 0 LINE",
"1000 0 LINE",
"1000 177 LINE",
"750 177 LINE",
"750 272.845 LINE",
"970 272.845 LINE",
"970 439.995 LINE",
"750 439.995 LINE",
"750 524.02 LINE"
);
},
{
closed = 1;
nodes = (
"241 445.567 OFFCURVE",
"289 507.275 OFFCURVE",
"380 507.275 CURVE SMOOTH",
"469 507.275 OFFCURVE",
"518 445.567 OFFCURVE",
"518 350.017 CURVE SMOOTH",
"518 254.468 OFFCURVE",
"469 192.76 OFFCURVE",
"380 192.76 CURVE SMOOTH",
"289 192.76 OFFCURVE",
"241 254.468 OFFCURVE",
"241 350.017 CURVE SMOOTH"
);
}
);
width = 1010;
},
{
hints = (
{
place = "{42, 117}";
type = Stem;
},
{
place = "{635, 114}";
type = Stem;
},
{
horizontal = 1;
place = "{-7, 103}";
type = Stem;
},
{
horizontal = 1;
place = "{0, 89}";
type = Stem;
},
{
horizontal = 1;
place = "{309, 88}";
type = Stem;
},
{
horizontal = 1;
place = "{604, 104}";
type = Stem;
},
{
horizontal = 1;
place = "{611, 89}";
type = Stem;
}
);
layerId = "122FC69B-F67C-4AD1-868A-17406666C75E";
paths = (
{
closed = 1;
nodes = (
"1019 611.357 LINE",
"1019 700.328 LINE",
"635 700.328 LINE",
"635 592.698 LINE",
"577.066 669.157 OFFCURVE",
"492.065 708.393 OFFCURVE",
"387 708.393 CURVE SMOOTH",
"202 708.393 OFFCURVE",
"42 562.487 OFFCURVE",
"42 351.175 CURVE SMOOTH",
"42 140.869 OFFCURVE",
"201 -7.05 OFFCURVE",
"388 -7.05 CURVE SMOOTH",
"492.065 -7.05 OFFCURVE",
"577.067 32.185 OFFCURVE",
"635 111.464 CURVE",
"635 0 LINE",
"1019 0 LINE",
"1019 88.971 LINE",
"749 89.306 LINE",
"749 309.207 LINE",
"989 309.207 LINE",
"989 397.171 LINE",
"749 397.506 LINE",
"749 611.357 LINE"
);
},
{
closed = 1;
nodes = (
"159 505.479 OFFCURVE",
"259 604.314 OFFCURVE",
"397 604.314 CURVE SMOOTH",
"535 604.314 OFFCURVE",
"635 505.479 OFFCURVE",
"635 351.175 CURVE SMOOTH",
"635 196.873 OFFCURVE",
"535 96.022 OFFCURVE",
"397 96.022 CURVE SMOOTH",
"259 96.022 OFFCURVE",
"159 196.873 OFFCURVE",
"159 351.175 CURVE SMOOTH"
);
}
);
width = 1084;
},
{
hints = (
{
place = "{52, 21}";
type = Stem;
},
{
place = "{703, 21}";
type = Stem;
},
{
horizontal = 1;
place = "{706, -20}";
target = down;
type = TopGhost;
},
{
horizontal = 1;
place = "{-8, 21}";
target = up;
type = BottomGhost;
}
);
layerId = "507F13DB-CCAB-4622-AAF1-433E81077BAF";
paths = (
{
closed = 1;
nodes = (
"1048 682.155 LINE",
"1048 700.052 LINE",
"704 700.052 LINE",
"704 459.427 LINE",
"672 608.575 OFFCURVE",
"543 706.018 OFFCURVE",
"388 706.018 CURVE",
"192 706.018 OFFCURVE",
"52 558.859 OFFCURVE",
"52 349.057 CURVE",
"52 139.256 OFFCURVE",
"192 -7.903 OFFCURVE",
"388 -7.903 CURVE",
"543 -7.903 OFFCURVE",
"672 89.54 OFFCURVE",
"704 238.688 CURVE",
"704 0.051 LINE",
"1048 0.051 LINE",
"1048 17.949 LINE",
"724 17.949 LINE",
"724 341.103 LINE",
"1018 341.103 LINE",
"1018 359 LINE",
"724 359 LINE",
"724 682.154 LINE"
);
},
{
closed = 1;
nodes = (
"73 559.853 OFFCURVE",
"213 688.121 OFFCURVE",
"388 688.121 CURVE",
"563 688.121 OFFCURVE",
"703 559.853 OFFCURVE",
"703 349.057 CURVE",
"703 138.262 OFFCURVE",
"563 9.994 OFFCURVE",
"388 9.994 CURVE",
"213 9.994 OFFCURVE",
"73 138.262 OFFCURVE",
"73 349.057 CURVE"
);
}
);
width = 1133;
}
);
unicode = 0152;
},
{
glyphname = P;
leftMetricsKey = H;
rightMetricsKey = "H*0.5";
layers = (
{
hints = (
{
place = "{30, 222}";
type = Stem;
},
{
place = "{414, 225}";
type = Stem;
},
{
horizontal = 1;
place = "{222, 175}";
type = Stem;
},
{
horizontal = 1;
place = "{522, 178}";
type = Stem;
},
{
horizontal = 1;
place = "{0, 21}";
target = up;
type = BottomGhost;
}
);
layerId = "9A3F6695-68A9-4551-BE26-76B666927AA0";
paths = (
{
closed = 1;
nodes = (
"252 396.655 LINE",
"252 522.05 LINE",
"345 522.05 LINE SMOOTH",
"395 522.05 OFFCURVE",
"414 496.971 OFFCURVE",
"414 459.352 CURVE SMOOTH",
"414 421.734 OFFCURVE",
"395 396.655 OFFCURVE",
"345 396.655 CURVE SMOOTH"
);
},
{
closed = 1;
nodes = (
"639 600.87 OFFCURVE",
"548 700.035 OFFCURVE",
"370 700.035 CURVE SMOOTH",
"30 700.035 LINE",
"30 0 LINE",
"252 0 LINE",
"252 221.625 LINE",
"370 221.625 LINE SMOOTH",
"548 221.625 OFFCURVE",
"639 329.593 OFFCURVE",
"639 459.353 CURVE SMOOTH"
);
}
);
width = 654;
},
{
hints = (
{
place = "{85, 114}";
type = Stem;
},
{
place = "{484, 117}";
type = Stem;
},
{
horizontal = 1;
place = "{284, 93}";
type = Stem;
},
{
horizontal = 1;
place = "{607, 93}";
type = Stem;
},
{
horizontal = 1;
place = "{0, 21}";
target = up;
type = BottomGhost;
}
);
layerId = "122FC69B-F67C-4AD1-868A-17406666C75E";
paths = (
{
closed = 1;
nodes = (
"199 377.362 LINE",
"199 607.328 LINE",
"355 607.328 LINE SMOOTH",
"444 607.328 OFFCURVE",
"484 563.903 OFFCURVE",
"484 491.174 CURVE SMOOTH",
"484 420.464 OFFCURVE",
"444. 376.837 OFFCURVE",
"355 377.028 CURVE SMOOTH"
);
},
{
closed = 1;
nodes = (
"601 604.804 OFFCURVE",
"520 700.328 OFFCURVE",
"355 700.328 CURVE SMOOTH",
"85 700.328 LINE",
"85 0 LINE",
"199 0 LINE",
"199 284.028 LINE",
"355 284.028 LINE SMOOTH",
"536 284.028 OFFCURVE",
"601 391.623 OFFCURVE",
"601 491.174 CURVE SMOOTH"
);
}
);
width = 643;
},
{
hints = (
{
place = "{105, 20}";
type = Stem;
},
{
place = "{518, 20}";
type = Stem;
},
{
horizontal = 1;
place = "{315, 21}";
type = Stem;
},
{
horizontal = 1;
place = "{679, 21}";
type = Stem;
},
{
horizontal = 1;
place = "{0, 21}";
target = up;
type = BottomGhost;
}
);
layerId = "507F13DB-CCAB-4622-AAF1-433E81077BAF";
paths = (
{
closed = 1;
nodes = (
"125 336.131 LINE",
"125 679.172 LINE",
"313 679.172 LINE",
"464 679.172 OFFCURVE",
"518 614.728 OFFCURVE",
"518 506.66 CURVE SMOOTH",
"518 403.55 OFFCURVE",
"464 336.131 OFFCURVE",
"313 336.131 CURVE SMOOTH"
);
},
{
closed = 1;
nodes = (
"538 622.659 OFFCURVE",
"473 700.052 OFFCURVE",
"313 700.052 CURVE SMOOTH",
"105 700.052 LINE",
"105 0.051 LINE",
"125 0.051 LINE",
"125 315.251 LINE",
"313 315.251 LINE SMOOTH",
"459 315.251 OFFCURVE",
"538 377.772 OFFCURVE",
"538 506.66 CURVE SMOOTH"
);
}
);
width = 590;
}
);
unicode = 0050;
},
{
glyphname = Thorn;
leftMetricsKey = H;
rightMetricsKey = D;
layers = (
{
hints = (
{
place = "{30, 220}";
type = Stem;
},
{
place = "{384, 225}";
type = Stem;
},
{
place = "{30, 222}";
type = Stem;
},
{
horizontal = 1;
place = "{123, 165}";
type = Stem;
},
{
horizontal = 1;
place = "{414, 168}";
type = Stem;
},
{
horizontal = 1;
place = "{0, 21}";
target = up;
type = BottomGhost;
},
{
horizontal = 1;
place = "{700, -20}";
target = down;
type = TopGhost;
}
);
layerId = "9A3F6695-68A9-4551-BE26-76B666927AA0";
paths = (
{
closed = 1;
nodes = (
"252 288.305 LINE",
"252 413.7 LINE",
"315 413.7 LINE SMOOTH",
"365 413.7 OFFCURVE",
"384 388.621 OFFCURVE",
"384 351.003 CURVE SMOOTH",
"384 313.384 OFFCURVE",
"365 288.305 OFFCURVE",
"315 288.305 CURVE SMOOTH"
);
},
{
closed = 1;
nodes = (
"609 486.728 OFFCURVE",
"518 581.835 OFFCURVE",
"340 581.835 CURVE SMOOTH",
"250 581.835 LINE",
"250 700.035 LINE",
"30 700.035 LINE",
"30 0 LINE",
"252 0 LINE",
"252 123.125 LINE",
"340 123.125 LINE SMOOTH",
"518 123.125 OFFCURVE",
"609 226.165 OFFCURVE",
"609 351.003 CURVE SMOOTH"
);
}
);
width = 624;
},
{
hints = (
{
place = "{85, 114}";
type = Stem;
},
{
place = "{454, 117}";
type = Stem;
},
{
horizontal = 1;
place = "{143, 89}";
type = Stem;
},
{
horizontal = 1;
place = "{469, 89}";
type = Stem;
},
{
horizontal = 1;
place = "{0, 21}";
target = up;
type = BottomGhost;
},
{
horizontal = 1;
place = "{700, -20}";
target = down;
type = TopGhost;
}
);
layerId = "122FC69B-F67C-4AD1-868A-17406666C75E";
paths = (
{
closed = 1;
nodes = (
"199 232.327 LINE",
"199 469.351 LINE",
"325 469.351 LINE SMOOTH",
"414 469.351 OFFCURVE",
"454 421.879 OFFCURVE",
"454 350.168 CURVE SMOOTH",
"454 279.464 OFFCURVE",
"414. 231.756 OFFCURVE",
"325 231.992 CURVE SMOOTH"
);
},
{
closed = 1;
nodes = (
"571 463.798 OFFCURVE",
"490 558.489 OFFCURVE",
"325 558.489 CURVE SMOOTH",
"198 558.489 LINE",
"198 700.336 LINE",
"85 700.336 LINE",
"85 0 LINE",
"199 0 LINE",
"199 143.021 LINE",
"325 143.021 LINE SMOOTH",
"506 143.021 OFFCURVE",
"571 250.617 OFFCURVE",
"571 350.168 CURVE SMOOTH"
);
}
);
width = 613;
},
{
hints = (
{
place = "{105, 20}";
type = Stem;
},
{
place = "{488, 20}";
type = Stem;
},
{
horizontal = 1;
place = "{158, 21}";
type = Stem;
},
{
horizontal = 1;
place = "{523, 20}";
type = Stem;
},
{
horizontal = 1;
place = "{700, -20}";
target = down;
type = TopGhost;
},
{
horizontal = 1;
place = "{0, 21}";
target = up;
type = BottomGhost;
}
);
layerId = "507F13DB-CCAB-4622-AAF1-433E81077BAF";
paths = (
{
closed = 1;
nodes = (
"125 179.029 LINE",
"125 523.063 LINE",
"283 523.063 LINE SMOOTH",
"434 523.063 OFFCURVE",
"488 458.433 OFFCURVE",
"488 350.052 CURVE SMOOTH",
"488 246.642 OFFCURVE",
"434 179.029 OFFCURVE",
"283 179.029 CURVE SMOOTH"
);
},
{
closed = 1;
nodes = (
"508 466.387 OFFCURVE",
"443 542.95 OFFCURVE",
"283 542.95 CURVE SMOOTH",
"125 542.95 LINE",
"125 700.052 LINE",
"105 700.052 LINE",
"105 0.051 LINE",
"125 0.051 LINE",
"125 158.148 LINE",
"283 158.148 LINE SMOOTH",
"429 158.148 OFFCURVE",
"508 220.79 OFFCURVE",
"508 350.052 CURVE SMOOTH"
);
}
);
width = 560;
}
);
unicode = 00DE;
},
{
glyphname = Q;
leftMetricsKey = O;
rightMetricsKey = O;
layers = (
{
components = (
{
name = O;
alignment = -1;
}
);
hints = (
{
place = "{15, 226}";
type = Stem;
},
{
place = "{323, 144}";
type = Stem;
},
{
place = "{518, 225}";
type = Stem;
},
{
horizontal = 1;
place = "{507, 205}";
type = Stem;
},
{
horizontal = 1;
place = "{-74, 21}";
target = up;
type = BottomGhost;
}
);
layerId = "9A3F6695-68A9-4551-BE26-76B666927AA0";
paths = (
{
closed = 1;
nodes = (
"322.994 -74.003 LINE",
"466.994 -74.003 LINE",
"466.994 265.65 LINE",
"322.994 265.65 LINE"
);
}
);
width = 758;
},
{
components = (
{
name = O;
alignment = -1;
}
);
hints = (
{
place = "{42, 117}";
type = Stem;
},
{
place = "{383, 114}";
type = Stem;
},
{
place = "{635, 117}";
type = Stem;
},
{
horizontal = 1;
place = "{-7, 99}";
type = Stem;
},
{
horizontal = 1;
place = "{608, 100}";
type = Stem;
},
{
horizontal = 1;
place = "{-100, 21}";
target = up;
type = BottomGhost;
}
);
layerId = "122FC69B-F67C-4AD1-868A-17406666C75E";
paths = (
{
closed = 1;
nodes = (
"383.001 -99.834 LINE",
"497.001 -99.834 LINE",
"497.001 199.784 LINE",
"383.001 199.784 LINE"
);
}
);
width = 794;
},
{
components = (
{
name = O;
alignment = -1;
}
);
hints = (
{
place = "{52, 21}";
type = Stem;
},
{
place = "{386, 20}";
type = Stem;
},
{
place = "{703, 21}";
type = Stem;
},
{
horizontal = 1;
place = "{706, -20}";
target = down;
type = TopGhost;
},
{
horizontal = 1;
place = "{-100, 21}";
target = up;
type = BottomGhost;
}
);
layerId = "507F13DB-CCAB-4622-AAF1-433E81077BAF";
paths = (
{
closed = 1;
nodes = (
"385.823 -100.086 LINE",
"405.823 -100.086 LINE",
"405.823 100.193 LINE",
"385.823 100.193 LINE"
);
}
);
width = 776;
}
);
unicode = 0051;
},
{
glyphname = R;
leftMetricsKey = H;
rightMetricsKey = "=H/2";
layers = (
{
anchors = (
{
name = bottom;
position = "{335, 1}";
},
{
name = top;
position = "{335, 702}";
}
);
hints = (
{
place = "{30, 222}";
type = Stem;
},
{
place = "{434, 225}";
type = Stem;
},
{
horizontal = 1;
place = "{514, 186}";
type = Stem;
},
{
horizontal = 1;
place = "{0, 21}";
target = up;
type = BottomGhost;
}
);
layerId = "9A3F6695-68A9-4551-BE26-76B666927AA0";
paths = (
{
closed = 1;
nodes = (
"434 415.957 OFFCURVE",
"412 398.625 OFFCURVE",
"370 398.625 CURVE SMOOTH",
"252 398.625 LINE",
"252 514.17 LINE",
"370 514.17 LINE SMOOTH",
"412 514.17 OFFCURVE",
"434 491.061 OFFCURVE",
"434 456.397 CURVE SMOOTH"
);
},
{
closed = 1;
nodes = (
"30 700.035 LINE",
"30 0 LINE",
"252 0 LINE",
"252 250.19 LINE",
"390 250.19 LINE SMOOTH",
"568 250.19 OFFCURVE",
"659 347.306 OFFCURVE",
"659 470.188 CURVE SMOOTH",
"659 598.571 OFFCURVE",
"568 700.035 OFFCURVE",
"390 700.035 CURVE SMOOTH"
);
},
{
closed = 1;
nodes = (
"259.963 293.23 LINE",
"416.379 0 LINE",
"661.147 0 LINE",
"491.612 293.23 LINE"
);
}
);
width = 677;
},
{
anchors = (
{
name = bottom;
position = "{356, 0}";
},
{
name = top;
position = "{356, 701}";
}
);
hints = (
{
place = "{85, 114}";
type = Stem;
},
{
place = "{484, 117}";
type = Stem;
},
{
horizontal = 1;
place = "{280, 91}";
type = Stem;
},
{
horizontal = 1;
place = "{607, 93}";
type = Stem;
},
{
horizontal = 1;
place = "{0, 21}";
target = up;
type = BottomGhost;
}
);
layerId = "122FC69B-F67C-4AD1-868A-17406666C75E";
paths = (
{
closed = 1;
nodes = (
"484 420.476 OFFCURVE",
"444. 370.794 OFFCURVE",
"355 370.984 CURVE SMOOTH",
"199 371.319 LINE",
"199 607.328 LINE",
"355 607.328 LINE SMOOTH",
"444 607.328 OFFCURVE",
"484 560.874 OFFCURVE",
"484 490.167 CURVE SMOOTH"
);
},
{
closed = 1;
nodes = (
"85 700.328 LINE",
"85 0 LINE",
"199 0 LINE",
"199 279.999 LINE",
"355 279.999 LINE SMOOTH",
"536 279.999 OFFCURVE",
"601 390.614 OFFCURVE",
"601 490.167 CURVE SMOOTH",
"601 603.798 OFFCURVE",
"520 700.328 OFFCURVE",
"355 700.328 CURVE SMOOTH"
);
},
{
closed = 1;
nodes = (
"295.286 316.596 LINE",
"475.904 0 LINE",
"611.7 0 LINE",
"424.097 316.596 LINE"
);
}
);
width = 654;
},
{
anchors = (
{
name = bottom;
position = "{346, 0}";
},
{
name = top;
position = "{346, 679}";
}
);
hints = (
{
place = "{105, 20}";
type = Stem;
},
{
place = "{519, 21}";
type = Stem;
},
{
horizontal = 1;
place = "{680, 20}";
type = Stem;
},
{
horizontal = 1;
place = "{0, 21}";
target = up;
type = BottomGhost;
}
);
layerId = "507F13DB-CCAB-4622-AAF1-433E81077BAF";
paths = (
{
closed = 1;
nodes = (
"519 400.754 OFFCURVE",
"457 324.193 OFFCURVE",
"313 324.193 CURVE SMOOTH",
"125 324.193 LINE",
"125 680.152 LINE",
"311 680.152 LINE SMOOTH",
"462 680.152 OFFCURVE",
"519 611.546 OFFCURVE",
"519 503.167 CURVE SMOOTH"
);
},
{
closed = 1;
nodes = (
"105 700.038 LINE",
"105 0.051 LINE",
"125 0.051 LINE",
"125 305.301 LINE",
"313 305.301 LINE SMOOTH",
"459 305.301 OFFCURVE",
"540 376.891 OFFCURVE",
"540 503.167 CURVE SMOOTH",
"540 619.5 OFFCURVE",
"471 700.038 OFFCURVE",
"311 700.038 CURVE SMOOTH"
);
},
{
closed = 1;
nodes = (
"327 313.256 LINE",
"520 0.051 LINE",
"545 0.051 LINE",
"351 313.256 LINE"
);
}
);
width = 597;
}
);
unicode = 0052;
},
{
glyphname = Rcommaaccent;
leftMetricsKey = R;
rightMetricsKey = R;
layers = (
{
anchors = (
{
name = _bottom;
position = "{360, 1}";
}
);
components = (
{
name = R;
alignment = -1;
}
);
hints = (
{
place = "{30, 222}";
type = Stem;
},
{
place = "{280, 182}";
type = Stem;
},
{
place = "{434, 225}";
type = Stem;
},
{
place = "{352, 110}";
type = Stem;
},
{
horizontal = 1;
place = "{-341, 79}";
type = Stem;
},
{
horizontal = 1;
place = "{-179, 147}";
type = Stem;
},
{
horizontal = 1;
place = "{514, 186}";
type = Stem;
}
);
layerId = "9A3F6695-68A9-4551-BE26-76B666927AA0";
paths = (
{
closed = 1;
nodes = (
"280 -31.82 LINE",
"280 -179.27 LINE",
"352 -179.27 LINE",
"352 -188.777 LINE",
"352 -239.077 OFFCURVE",
"332 -261.325 OFFCURVE",
"297 -261.325 CURVE",
"297 -340.81 LINE",
"411 -340.81 OFFCURVE",
"462 -261.407 OFFCURVE",
"462 -166.122 CURVE SMOOTH",
"462 -124.455 OFFCURVE",
"453.898 -78.705 OFFCURVE",
"435.668 -31.82 CURVE"
);
}
);
width = 677;
},
{
anchors = (
{
name = _bottom;
position = "{356, 0}";
}
);
components = (
{
name = R;
alignment = -1;
}
);
hints = (
{
place = "{85, 114}";
type = Stem;
},
{
place = "{302, 116}";
type = Stem;
},
{
place = "{306, 112}";
type = Stem;
},
{
place = "{354, 64}";
type = Stem;
},
{
place = "{484, 117}";
type = Stem;
},
{
horizontal = 1;
place = "{-143, 96}";
type = Stem;
},
{
horizontal = 1;
place = "{280, 91}";
type = Stem;
},
{
horizontal = 1;
place = "{607, 93}";
type = Stem;
},
{
horizontal = 1;
place = "{-272, 21}";
target = up;
type = BottomGhost;
}
);
layerId = "122FC69B-F67C-4AD1-868A-17406666C75E";
paths = (
{
closed = 1;
nodes = (
"302 -47 LINE",
"302 -143.022 LINE",
"354 -143.356 LINE",
"354 -164.507 LINE SMOOTH",
"354 -203.003 OFFCURVE",
"339 -222.251 OFFCURVE",
"306 -222.251 CURVE",
"306 -271.942 LINE",
"380 -271.942 OFFCURVE",
"418 -229.752 OFFCURVE",
"418 -146.377 CURVE SMOOTH",
"418 -117.219 OFFCURVE",
"414.019 -84.089 OFFCURVE",
"405.062 -47 CURVE"
);
}
);
width = 654;
},
{
anchors = (
{
name = _bottom;
position = "{312, 0}";
}
);
components = (
{
name = R;
alignment = -1;
}
);
hints = (
{
place = "{105, 20}";
type = Stem;
},
{
place = "{318, 22}";
type = Stem;
},
{
place = "{519, 21}";
type = Stem;
},
{
horizontal = 1;
place = "{680, 20}";
type = Stem;
},
{
horizontal = 1;
place = "{-175, 21}";
target = up;
type = BottomGhost;
}
);
layerId = "507F13DB-CCAB-4622-AAF1-433E81077BAF";
paths = (
{
closed = 1;
nodes = (
"287 -58.614 LINE",
"287 -96.398 LINE",
"318 -96.398 LINE",
"318 -103.358 LINE SMOOTH",
"318 -136.171 OFFCURVE",
"307 -157.051 OFFCURVE",
"275 -157.051 CURVE",
"275 -174.949 LINE",
"311 -174.949 OFFCURVE",
"340 -160.034 OFFCURVE",
"340 -89.438 CURVE SMOOTH",
"340 -80.489 OFFCURVE",
"339 -67.563 OFFCURVE",
"338 -58.614 CURVE"
);
}
);
width = 597;
}
);
unicode = 0156;
},
{
glyphname = S;
leftMetricsKey = "H*0.6";
rightMetricsKey = "H*0.6";
layers = (
{
anchors = (
{
name = bottom;
position = "{306, 1}";
},
{
name = top;
position = "{306, 702}";
}
);
hints = (
{
place = "{23, 225}";
type = Stem;
},
{
place = "{361, 229}";
type = Stem;
},
{
horizontal = 1;
place = "{-6, 169}";
type = Stem;
},
{
horizontal = 1;
place = "{542, 168}";
type = Stem;
}
);
layerId = "9A3F6695-68A9-4551-BE26-76B666927AA0";
paths = (
{
closed = 1;
nodes = (
"18.534 188.189 LINE",
"51.757 53.933 OFFCURVE",
"173.634 -5.568 OFFCURVE",
"320 -5.568 CURVE SMOOTH",
"491 -5.568 OFFCURVE",
"590 75.993 OFFCURVE",
"590 204.043 CURVE SMOOTH",
"590 418.773 OFFCURVE",
"248 416.998 OFFCURVE",
"248 504.663 CURVE SMOOTH",
"248 528.303 OFFCURVE",
"271.768 543.289 OFFCURVE",
"296 542.123 CURVE SMOOTH",
"319.466 540.993 OFFCURVE",
"346.074 521.759 OFFCURVE",
"348.854 487.215 CURVE",
"572.838 525.812 LINE",
"545.96 647.743 OFFCURVE",
"448.581 710.528 OFFCURVE",
"294 710.528 CURVE SMOOTH",
"143 710.528 OFFCURVE",
"23 637.638 OFFCURVE",
"23 497.768 CURVE",
"19 259.398 OFFCURVE",
"361 295.878 OFFCURVE",
"361 201.313 CURVE SMOOTH",
"361 173.303 OFFCURVE",
"335 163.838 OFFCURVE",
"313 163.838 CURVE SMOOTH",
"291.763 163.838 OFFCURVE",
"260.202 175.775 OFFCURVE",
"248.215 227.999 CURVE"
);
}
);
width = 608;
},
{
anchors = (
{
name = bottom;
position = "{303, -7}";
},
{
name = top;
position = "{298, 709}";
}
);
hints = (
{
place = "{59, 116}";
type = Stem;
},
{
place = "{428, 115}";
type = Stem;
},
{
horizontal = 1;
place = "{-7, 97}";
type = Stem;
},
{
horizontal = 1;
place = "{611, 98}";
type = Stem;
}
);
layerId = "122FC69B-F67C-4AD1-868A-17406666C75E";
paths = (
{
closed = 1;
nodes = (
"51.472 150.14 LINE",
"78.002 51.731 OFFCURVE",
"180.847 -7.385 OFFCURVE",
"303 -7.385 CURVE SMOOTH",
"458 -7.385 OFFCURVE",
"543 93.335 OFFCURVE",
"543 198.084 CURVE SMOOTH",
"543 453.913 OFFCURVE",
"175 355.207 OFFCURVE",
"175 513.338 CURVE SMOOTH",
"175 580.82 OFFCURVE",
"225.998 612.966 OFFCURVE",
"292 611.036 CURVE SMOOTH",
"358.959 609.078 OFFCURVE",
"406.894 571.572 OFFCURVE",
"419.71 528.24 CURVE",
"530.804 568.789 LINE",
"499.434 658.467 OFFCURVE",
"412.562 708.735 OFFCURVE",
"298 708.735 CURVE SMOOTH",
"156 708.735 OFFCURVE",
"59 632.187 OFFCURVE",
"59 509.309 CURVE SMOOTH",
"59 251.466 OFFCURVE",
"428 361.251 OFFCURVE",
"428 192.041 CURVE SMOOTH",
"428 132.616 OFFCURVE",
"383 89.307 OFFCURVE",
"303 89.307 CURVE SMOOTH",
"224.658 89.307 OFFCURVE",
"176.802 134.869 OFFCURVE",
"165.283 191.615 CURVE"
);
}
);
width = 594;
},
{
anchors = (
{
name = bottom;
position = "{277, 0}";
},
{
name = top;
position = "{277, 679}";
}
);
hints = (
{
place = "{75, 20}";
type = Stem;
},
{
place = "{476, 20}";
type = Stem;
},
{
horizontal = 1;
place = "{-7, 21}";
target = up;
type = BottomGhost;
},
{
horizontal = 1;
place = "{707, -20}";
target = down;
type = TopGhost;
}
);
layerId = "507F13DB-CCAB-4622-AAF1-433E81077BAF";
paths = (
{
closed = 1;
nodes = (
"63.917 139.175 LINE",
"87.415 60.969 OFFCURVE",
"160.888 -6.909 OFFCURVE",
"288 -6.909 CURVE SMOOTH",
"428 -6.909 OFFCURVE",
"496 84.567 OFFCURVE",
"496 169.082 CURVE SMOOTH",
"496 434.56 OFFCURVE",
"95 281.438 OFFCURVE",
"95 532.996 CURVE SMOOTH",
"95 629.443 OFFCURVE",
"181 689.101 OFFCURVE",
"282 689.101 CURVE SMOOTH",
"396.894 689.101 OFFCURVE",
"448.425 621.899 OFFCURVE",
"466.101 572.428 CURVE",
"484.352 578.999 LINE",
"462.18 641.602 OFFCURVE",
"401.687 706.998 OFFCURVE",
"282 706.998 CURVE SMOOTH",
"155 706.998 OFFCURVE",
"75 624.472 OFFCURVE",
"75 532.996 CURVE SMOOTH",
"75 263.541 OFFCURVE",
"476 416.663 OFFCURVE",
"476 169.082 CURVE SMOOTH",
"476 82.578 OFFCURVE",
"404 10.988 OFFCURVE",
"288 10.988 CURVE SMOOTH",
"152.691 10.988 OFFCURVE",
"100.891 88.433 OFFCURVE",
"82.952 146.023 CURVE"
);
}
);
width = 559;
}
);
unicode = 0053;
},
{
glyphname = Scommaaccent;
leftMetricsKey = S;
rightMetricsKey = S;
layers = (
{
anchors = (
{
name = _bottom;
position = "{343, 1}";
}
);
components = (
{
name = S;
alignment = -1;
}
);
hints = (
{
place = "{23, 225}";
type = Stem;
},
{
place = "{263, 182}";
type = Stem;
},
{
place = "{361, 229}";
type = Stem;
},
{
place = "{335, 110}";
type = Stem;
},
{
horizontal = 1;
place = "{-341, 79}";
type = Stem;
},
{
horizontal = 1;
place = "{-179, 147}";
type = Stem;
},
{
horizontal = 1;
place = "{-6, 169}";
type = Stem;
},
{
horizontal = 1;
place = "{542, 168}";
type = Stem;
}
);
layerId = "9A3F6695-68A9-4551-BE26-76B666927AA0";
paths = (
{
closed = 1;
nodes = (
"263 -31.82 LINE",
"263 -179.27 LINE",
"335 -179.27 LINE",
"335 -188.777 LINE",
"335 -239.077 OFFCURVE",
"315 -261.325 OFFCURVE",
"280 -261.325 CURVE",
"280 -340.81 LINE",
"394 -340.81 OFFCURVE",
"445 -261.407 OFFCURVE",
"445 -166.122 CURVE SMOOTH",
"445 -124.455 OFFCURVE",
"436.898 -78.705 OFFCURVE",
"418.668 -31.82 CURVE"
);
}
);
width = 608;
},
{
anchors = (
{
name = _bottom;
position = "{295, 0}";
}
);
components = (
{
name = S;
transform = "{1, 0, 0, 1, -0.111, 0}";
alignment = -1;
}
);
hints = (
{
place = "{59, 116}";
type = Stem;
},
{
place = "{240, 117}";
type = Stem;
},
{
place = "{244, 113}";
type = Stem;
},
{
place = "{293, 64}";
type = Stem;
},
{
place = "{428, 115}";
type = Stem;
},
{
horizontal = 1;
place = "{-143, 96}";
type = Stem;
},
{
horizontal = 1;
place = "{-7, 97}";
type = Stem;
},
{
horizontal = 1;
place = "{611, 98}";
type = Stem;
},
{
horizontal = 1;
place = "{-272, 21}";
target = up;
type = BottomGhost;
}
);
layerId = "122FC69B-F67C-4AD1-868A-17406666C75E";
paths = (
{
closed = 1;
nodes = (
"240 -47 LINE",
"240 -143.022 LINE",
"293 -143.356 LINE",
"293 -164.507 LINE SMOOTH",
"293 -203.003 OFFCURVE",
"278 -222.251 OFFCURVE",
"244 -222.251 CURVE",
"244 -271.942 LINE",
"319 -271.942 OFFCURVE",
"357 -229.752 OFFCURVE",
"357 -146.377 CURVE SMOOTH",
"357 -117.223 OFFCURVE",
"353.019 -84.089 OFFCURVE",
"343.066 -47 CURVE"
);
}
);
width = 594;
},
{
anchors = (
{
name = _bottom;
position = "{291, -7}";
}
);
components = (
{
name = S;
alignment = -1;
}
);
hints = (
{
place = "{75, 20}";
type = Stem;
},
{
place = "{298, 22}";
type = Stem;
},
{
place = "{476, 20}";
type = Stem;
},
{
horizontal = 1;
place = "{-175, 186}";
type = Stem;
},
{
horizontal = 1;
place = "{707, -20}";
target = down;
type = TopGhost;
}
);
layerId = "507F13DB-CCAB-4622-AAF1-433E81077BAF";
paths = (
{
closed = 1;
nodes = (
"267 -58.614 LINE",
"267 -96.398 LINE",
"298 -96.398 LINE",
"298 -103.358 LINE SMOOTH",
"298 -136.171 OFFCURVE",
"287 -157.051 OFFCURVE",
"255 -157.051 CURVE",
"255 -174.949 LINE",
"291 -174.949 OFFCURVE",
"320 -160.034 OFFCURVE",
"320 -89.438 CURVE SMOOTH",
"320 -80.489 OFFCURVE",
"319 -67.563 OFFCURVE",
"318 -58.614 CURVE"
);
}
);
width = 559;
}
);
unicode = 0218;
},
{
glyphname = T;
leftMetricsKey = "=H/2";
rightMetricsKey = "=H/2";
layers = (
{
anchors = (
{
name = bottom;
position = "{338, 1}";
},
{
name = top;
position = "{338, 702}";
}
);
hints = (
{
place = "{231, 222}";
type = Stem;
},
{
horizontal = 1;
place = "{524, 176}";
type = Stem;
},
{
horizontal = 1;
place = "{0, 21}";
target = up;
type = BottomGhost;
}
);
layerId = "9A3F6695-68A9-4551-BE26-76B666927AA0";
paths = (
{
closed = 1;
nodes = (
"15 524.02 LINE",
"231 524.02 LINE",
"231 0 LINE",
"453 0 LINE",
"453 524.02 LINE",
"671 524.02 LINE",
"671 700.035 LINE",
"15 700.035 LINE"
);
}
);
width = 686;
},
{
anchors = (
{
name = bottom;
position = "{313, 0}";
},
{
name = top;
position = "{315, 701}";
}
);
hints = (
{
place = "{258, 114}";
type = Stem;
},
{
horizontal = 1;
place = "{607, 93}";
type = Stem;
},
{
horizontal = 1;
place = "{0, 21}";
target = up;
type = BottomGhost;
}
);
layerId = "122FC69B-F67C-4AD1-868A-17406666C75E";
paths = (
{
closed = 1;
nodes = (
"42 607.328 LINE",
"258 606.994 LINE",
"258 0 LINE",
"372 0 LINE",
"372 607.328 LINE",
"587 607.328 LINE",
"587 700.328 LINE",
"42 700.328 LINE"
);
}
);
width = 629;
},
{
anchors = (
{
name = bottom;
position = "{295, 0}";
},
{
name = top;
position = "{298, 679}";
}
);
hints = (
{
place = "{287, 20}";
type = Stem;
},
{
horizontal = 1;
place = "{700, -20}";
target = down;
type = TopGhost;
},
{
horizontal = 1;
place = "{0, 21}";
target = up;
type = BottomGhost;
}
);
layerId = "507F13DB-CCAB-4622-AAF1-433E81077BAF";
paths = (
{
closed = 1;
nodes = (
"52 682.141 LINE",
"287 682.141 LINE",
"287 0.051 LINE",
"307 0.051 LINE",
"307 682.141 LINE",
"542 682.141 LINE",
"542 700.038 LINE",
"52 700.038 LINE"
);
}
);
width = 594;
}
);
unicode = 0054;
},
{
glyphname = Tcommaaccent;
leftMetricsKey = T;
rightMetricsKey = T;
layers = (
{
components = (
{
name = T;
alignment = -1;
}
);
hints = (
{
place = "{231, 222}";
type = Stem;
},
{
place = "{259, 181}";
type = Stem;
},
{
place = "{331, 109}";
type = Stem;
},
{
horizontal = 1;
place = "{-179, 147}";
type = Stem;
},
{
horizontal = 1;
place = "{524, 176}";
type = Stem;
},
{
horizontal = 1;
place = "{-341, 21}";
target = up;
type = BottomGhost;
}
);
layerId = "9A3F6695-68A9-4551-BE26-76B666927AA0";
paths = (
{
closed = 1;
nodes = (
"259 -31.82 LINE",
"259 -179.27 LINE",
"331 -179.27 LINE",
"331 -188.777 LINE",
"331 -239.077 OFFCURVE",
"310 -261.325 OFFCURVE",
"276 -261.325 CURVE",
"276 -340.81 LINE",
"389 -340.81 OFFCURVE",
"440 -261.407 OFFCURVE",
"440 -166.122 CURVE SMOOTH",
"440 -124.466 OFFCURVE",
"432.907 -78.729 OFFCURVE",
"414.668 -31.82 CURVE"
);
}
);
width = 686;
},
{
components = (
{
name = T;
alignment = -1;
}
);
hints = (
{
place = "{258, 114}";
type = Stem;
},
{
place = "{264, 116}";
type = Stem;
},
{
place = "{268, 112}";
type = Stem;
},
{
place = "{317, 63}";
type = Stem;
},
{
horizontal = 1;
place = "{-143, 96}";
type = Stem;
},
{
horizontal = 1;
place = "{607, 93}";
type = Stem;
},
{
horizontal = 1;
place = "{-272, 21}";
target = up;
type = BottomGhost;
}
);
layerId = "122FC69B-F67C-4AD1-868A-17406666C75E";
paths = (
{
closed = 1;
nodes = (
"264 -47 LINE",
"264 -143.022 LINE",
"317 -143.356 LINE",
"317 -164.507 LINE SMOOTH",
"317 -203.003 OFFCURVE",
"301 -222.251 OFFCURVE",
"268 -222.251 CURVE",
"268 -271.942 LINE",
"342 -271.942 OFFCURVE",
"380 -229.752 OFFCURVE",
"380 -146.377 CURVE SMOOTH",
"380 -117.219 OFFCURVE",
"376.019 -84.089 OFFCURVE",
"367.062 -47 CURVE"
);
}
);
width = 629;
},
{
components = (
{
name = T;
alignment = -1;
}
);
hints = (
{
place = "{287, 20}";
type = Stem;
},
{
place = "{308, 22}";
type = Stem;
},
{
horizontal = 1;
place = "{700, -20}";
target = down;
type = TopGhost;
},
{
horizontal = 1;
place = "{-175, 21}";
target = up;
type = BottomGhost;
}
);
layerId = "507F13DB-CCAB-4622-AAF1-433E81077BAF";
paths = (
{
closed = 1;
nodes = (
"276.5 -58.614 LINE",
"276.5 -96.398 LINE",
"307.5 -96.398 LINE",
"307.5 -103.358 LINE SMOOTH",
"307.5 -136.171 OFFCURVE",
"296.5 -157.051 OFFCURVE",
"264.5 -157.051 CURVE",
"264.5 -174.949 LINE",
"300.5 -174.949 OFFCURVE",
"329.5 -160.034 OFFCURVE",
"329.5 -89.438 CURVE SMOOTH",
"329.5 -80.489 OFFCURVE",
"328.5 -67.563 OFFCURVE",
"327.5 -58.614 CURVE"
);
}
);
width = 594;
}
);
unicode = 021A;
},
{
glyphname = U;
leftMetricsKey = "H*0.95";
rightMetricsKey = "H*0.95";
layers = (
{
anchors = (
{
name = ogonek;
position = "{441, 4}";
},
{
name = top;
position = "{352, 702}";
}
);
hints = (
{
place = "{28, 221}";
type = Stem;
},
{
place = "{454, 221}";
type = Stem;
},
{
horizontal = 1;
place = "{-7, 210}";
type = Stem;
},
{
horizontal = 1;
place = "{700, -20}";
target = down;
type = TopGhost;
}
);
layerId = "9A3F6695-68A9-4551-BE26-76B666927AA0";
paths = (
{
closed = 1;
nodes = (
"28 305.693 LINE SMOOTH",
"28 98.95 OFFCURVE",
"168 -6.895 OFFCURVE",
"345 -6.895 CURVE SMOOTH",
"522 -6.895 OFFCURVE",
"675 98.95 OFFCURVE",
"675 305.693 CURVE SMOOTH",
"675 700.035 LINE",
"454 700.035 LINE",
"454 305.693 LINE SMOOTH",
"454 246.371 OFFCURVE",
"417 202.61 OFFCURVE",
"350 202.61 CURVE SMOOTH",
"283 202.61 OFFCURVE",
"249 246.371 OFFCURVE",
"249 305.693 CURVE SMOOTH",
"249 700.035 LINE",
"28 700.035 LINE"
);
}
);
width = 703;
},
{
anchors = (
{
name = ogonek;
position = "{434, 0}";
},
{
name = top;
position = "{361, 701}";
}
);
hints = (
{
place = "{80, 114}";
type = Stem;
},
{
place = "{529, 114}";
type = Stem;
},
{
horizontal = 1;
place = "{-7, 100}";
type = Stem;
},
{
horizontal = 1;
place = "{700, -20}";
target = down;
type = TopGhost;
}
);
layerId = "122FC69B-F67C-4AD1-868A-17406666C75E";
paths = (
{
closed = 1;
nodes = (
"80 255.492 LINE SMOOTH",
"80 77.446 OFFCURVE",
"214 -7.05 OFFCURVE",
"360 -7.05 CURVE SMOOTH",
"505 -7.05 OFFCURVE",
"643 77.446 OFFCURVE",
"643 255.492 CURVE SMOOTH",
"643 700.328 LINE",
"529 700.328 LINE",
"529 253.478 LINE SMOOTH",
"529 144.474 OFFCURVE",
"458 93 OFFCURVE",
"361 93 CURVE SMOOTH",
"265 93 OFFCURVE",
"194 144.474 OFFCURVE",
"194 253.478 CURVE SMOOTH",
"194 700.328 LINE",
"80 700.328 LINE"
);
}
);
width = 723;
},
{
anchors = (
{
name = ogonek;
position = "{407, 0}";
},
{
name = top;
position = "{343, 679}";
}
);
hints = (
{
place = "{99, 20}";
type = Stem;
},
{
place = "{568, 20}";
type = Stem;
},
{
horizontal = 1;
place = "{-7, 21}";
target = up;
type = BottomGhost;
},
{
horizontal = 1;
place = "{700, -20}";
target = down;
type = TopGhost;
}
);
layerId = "507F13DB-CCAB-4622-AAF1-433E81077BAF";
paths = (
{
closed = 1;
nodes = (
"99 265.529 LINE SMOOTH",
"99 72.635 OFFCURVE",
"208 -6.909 OFFCURVE",
"346 -6.909 CURVE SMOOTH",
"484 -6.909 OFFCURVE",
"588 72.635 OFFCURVE",
"588 265.529 CURVE SMOOTH",
"588 700.038 LINE",
"568 700.038 LINE",
"568 265.529 LINE SMOOTH",
"568 78.601 OFFCURVE",
"468 10.988 OFFCURVE",
"346 10.988 CURVE SMOOTH",
"222 10.988 OFFCURVE",
"119 78.601 OFFCURVE",
"119 265.529 CURVE SMOOTH",
"119 700.038 LINE",
"99 700.038 LINE"
);
}
);
width = 687;
}
);
unicode = 0055;
},
{
glyphname = Uogonek;
leftMetricsKey = U;
rightMetricsKey = U;
layers = (
{
layerId = "7717BD86-136C-4431-84B1-16305B0123FC";
name = "Sep 20 17, 19:51";
paths = (
{
closed = 1;
nodes = (
"80 267 LINE SMOOTH",
"80 93 OFFCURVE",
"170 10 OFFCURVE",
"286 -5 CURVE",
"254 -14 OFFCURVE",
"233 -47.882 OFFCURVE",
"233 -82 CURVE",
"233 -135 OFFCURVE",
"271 -177 OFFCURVE",
"348 -177 CURVE",
"416 -177 LINE",
"416 -157 LINE",
"348 -157 LINE SMOOTH",
"289 -157 OFFCURVE",
"253 -129 OFFCURVE",
"253 -82 CURVE",
"253 -39 OFFCURVE",
"283 -11 OFFCURVE",
"333 -7 CURVE SMOOTH",
"462 2 OFFCURVE",
"549 80 OFFCURVE",
"549 267 CURVE SMOOTH",
"549 704 LINE",
"529 704 LINE",
"529 267 LINE SMOOTH",
"529 60 OFFCURVE",
"426 11 OFFCURVE",
"317 11 CURVE SMOOTH",
"193 11 OFFCURVE",
"100 79 OFFCURVE",
"100 267 CURVE SMOOTH",
"100 704 LINE",
"80 704 LINE"
);
}
);
width = 629;
},
{
components = (
{
name = U;
alignment = -1;
},
{
name = ogonek;
transform = "{1, 0, 0, 0.985, 166, 4.282}";
alignment = -1;
}
);
layerId = "9A3F6695-68A9-4551-BE26-76B666927AA0";
width = 703;
},
{
components = (
{
name = U;
alignment = -1;
},
{
name = ogonek;
transform = "{1, 0, 0, 1.007, 218.75, -0.334}";
alignment = -1;
}
);
layerId = "122FC69B-F67C-4AD1-868A-17406666C75E";
width = 723;
},
{
components = (
{
name = U;
alignment = -1;
},
{
name = ogonek;
transform = "{1, 0, 0, 0.994, 175, 0.051}";
alignment = -1;
}
);
layerId = "507F13DB-CCAB-4622-AAF1-433E81077BAF";
width = 687;
}
);
unicode = 0172;
},
{
glyphname = V;
leftMetricsKey = "=H/3";
rightMetricsKey = "=H/3";
layers = (
{
hints = (
{
horizontal = 1;
place = "{0, 21}";
target = up;
type = BottomGhost;
},
{
horizontal = 1;
place = "{700, -20}";
target = down;
type = TopGhost;
}
);
layerId = "9A3F6695-68A9-4551-BE26-76B666927AA0";
paths = (
{
closed = 1;
nodes = (
"393 219.391 LINE",
"246.712 700.035 LINE",
"10.403 700.035 LINE",
"249.309 0 LINE",
"535.691 0 LINE",
"774.597 700.035 LINE",
"538.287 700.035 LINE"
);
}
);
width = 785;
},
{
hints = (
{
horizontal = 1;
place = "{0, 21}";
target = up;
type = BottomGhost;
},
{
horizontal = 1;
place = "{700, -20}";
target = down;
type = TopGhost;
}
);
layerId = "122FC69B-F67C-4AD1-868A-17406666C75E";
paths = (
{
closed = 1;
nodes = (
"356 117.394 LINE",
"150.079 700.328 LINE",
"28.169 700.328 LINE",
"289.919 0 LINE",
"422.081 0 LINE",
"682.832 700.328 LINE",
"562.921 700.328 LINE"
);
}
);
width = 711;
},
{
hints = (
{
horizontal = 1;
place = "{700, -20}";
target = down;
type = TopGhost;
},
{
horizontal = 1;
place = "{0, 21}";
target = up;
type = BottomGhost;
}
);
layerId = "507F13DB-CCAB-4622-AAF1-433E81077BAF";
paths = (
{
closed = 1;
nodes = (
"314 29.881 LINE",
"58 700.052 LINE",
"35 700.052 LINE",
"304 0.051 LINE",
"324 0.051 LINE",
"594 700.052 LINE",
"572 700.052 LINE"
);
}
);
width = 629;
}
);
unicode = 0056;
},
{
glyphname = W;
leftMetricsKey = V;
rightMetricsKey = V;
layers = (
{
hints = (
{
horizontal = 1;
place = "{0, 21}";
target = up;
type = BottomGhost;
},
{
horizontal = 1;
place = "{700, -20}";
target = down;
type = TopGhost;
}
);
layerId = "9A3F6695-68A9-4551-BE26-76B666927AA0";
paths = (
{
closed = 1;
nodes = (
"531 397.011 LINE",
"613.22 0 LINE",
"888.76 0 LINE",
"1051.377 700.035 LINE",
"812.167 700.035 LINE",
"747.701 259.974 LINE",
"651.771 700.035 LINE",
"410.229 700.035 LINE",
"314.299 260.063 LINE",
"249.833 700.035 LINE",
"10.623 700.035 LINE",
"173.24 0 LINE",
"448.78 0 LINE"
);
}
);
width = 1062;
},
{
hints = (
{
horizontal = 1;
place = "{700, -20}";
target = down;
type = TopGhost;
}
);
layerId = "122FC69B-F67C-4AD1-868A-17406666C75E";
paths = (
{
closed = 1;
nodes = (
"507.592 529.152 LINE",
"653.932 0 LINE",
"783.07 0 LINE",
"988.874 700.328 LINE",
"866.936 700.328 LINE",
"721.885 132.087 LINE",
"577.064 700.328 LINE",
"448.933 700.328 LINE",
"293.144 129.74 LINE",
"149.064 700.328 LINE",
"28.12 700.328 LINE",
"224.932 -1.008 LINE",
"353.07 0 LINE"
);
}
);
width = 1017;
},
{
hints = (
{
horizontal = 1;
place = "{700, -20}";
target = down;
type = TopGhost;
},
{
horizontal = 1;
place = "{0, 21}";
target = up;
type = BottomGhost;
}
);
layerId = "507F13DB-CCAB-4622-AAF1-433E81077BAF";
paths = (
{
closed = 1;
nodes = (
"451.13 667.114 LINE",
"660 0.051 LINE",
"680 0.051 LINE",
"869 700.038 LINE",
"847 700.038 LINE",
"670.019 37.498 LINE",
"462 700.038 LINE",
"440 700.038 LINE",
"233.783 39.881 LINE",
"57 700.038 LINE",
"35 700.038 LINE",
"224 0.051 LINE",
"242 0.051 LINE"
);
}
);
width = 904;
}
);
unicode = 0057;
},
{
glyphname = X;
leftMetricsKey = "H*0.666";
rightMetricsKey = "H*0.666";
layers = (
{
hints = (
{
horizontal = 1;
place = "{700, -20}";
target = down;
type = TopGhost;
},
{
horizontal = 1;
place = "{0, 21}";
target = up;
type = BottomGhost;
}
);
layerId = "9A3F6695-68A9-4551-BE26-76B666927AA0";
paths = (
{
closed = 1;
nodes = (
"522.403 0 LINE",
"786.505 0 LINE",
"283.597 700.035 LINE",
"19.495 700.035 LINE"
);
},
{
closed = 1;
nodes = (
"296.031 411.849 LINE",
"29.68 0 LINE",
"283.609 0 LINE",
"427.496 240.839 LINE"
);
},
{
closed = 1;
nodes = (
"500.971 289.173 LINE",
"767.324 700.035 LINE",
"513.391 700.035 LINE",
"370.508 460.184 LINE"
);
}
);
width = 806;
},
{
hints = (
{
horizontal = 1;
place = "{700, -20}";
target = down;
type = TopGhost;
},
{
horizontal = 1;
place = "{0, 21}";
target = up;
type = BottomGhost;
}
);
layerId = "122FC69B-F67C-4AD1-868A-17406666C75E";
paths = (
{
closed = 1;
nodes = (
"487.903 0 LINE",
"615.685 0 LINE",
"184.097 700.328 LINE",
"56.315 700.328 LINE"
);
},
{
closed = 1;
nodes = (
"291.995 380.2 LINE",
"57.315 0 LINE",
"184.096 0 LINE",
"352.887 291.724 LINE"
);
},
{
closed = 1;
nodes = (
"382.005 319.129 LINE",
"616.685 700.328 LINE",
"489.904 700.328 LINE",
"321.113 407.604 LINE"
);
}
);
width = 673;
},
{
hints = (
{
horizontal = 1;
place = "{700, -20}";
target = down;
type = TopGhost;
},
{
horizontal = 1;
place = "{0, 21}";
target = up;
type = BottomGhost;
}
);
layerId = "507F13DB-CCAB-4622-AAF1-433E81077BAF";
paths = (
{
closed = 1;
nodes = (
"486 0.051 LINE",
"509 0.051 LINE",
"92 700.052 LINE",
"69 700.052 LINE"
);
},
{
closed = 1;
nodes = (
"283 368.944 LINE",
"69 0.051 LINE",
"92 0.051 LINE",
"299 359 LINE"
);
},
{
closed = 1;
nodes = (
"297 345.08 LINE",
"509 700.052 LINE",
"486 700.052 LINE",
"281 355.023 LINE"
);
}
);
width = 578;
}
);
unicode = 0058;
},
{
glyphname = Y;
leftMetricsKey = V;
rightMetricsKey = V;
layers = (
{
anchors = (
{
name = top;
position = "{378, 702}";
}
);
hints = (
{
place = "{266, 222}";
type = Stem;
},
{
horizontal = 1;
place = "{700, -20}";
target = down;
type = TopGhost;
},
{
horizontal = 1;
place = "{0, 21}";
target = up;
type = BottomGhost;
}
);
layerId = "9A3F6695-68A9-4551-BE26-76B666927AA0";
paths = (
{
closed = 1;
nodes = (
"379 451.908 LINE",
"265.642 700.035 LINE",
"10.988 700.035 LINE",
"266 212.103 LINE",
"266 0 LINE",
"488 0 LINE",
"488 212.495 LINE",
"743.012 700.035 LINE",
"492.358 700.035 LINE"
);
}
);
width = 754;
},
{
anchors = (
{
name = top;
position = "{316, 701}";
}
);
hints = (
{
place = "{259, 114}";
type = Stem;
},
{
horizontal = 1;
place = "{700, -20}";
target = down;
type = TopGhost;
},
{
horizontal = 1;
place = "{0, 21}";
target = up;
type = BottomGhost;
}
);
layerId = "122FC69B-F67C-4AD1-868A-17406666C75E";
paths = (
{
closed = 1;
nodes = (
"316.432 356.077 LINE",
"155.09 700.328 LINE",
"28.253 700.328 LINE",
"259 253.478 LINE",
"259 0 LINE",
"373 0 LINE",
"373 253.632 LINE",
"602.748 700.328 LINE",
"476.91 700.328 LINE"
);
}
);
width = 631;
},
{
anchors = (
{
name = top;
position = "{265, 679}";
}
);
hints = (
{
place = "{255, 20}";
type = Stem;
},
{
horizontal = 1;
place = "{700, -20}";
target = down;
type = TopGhost;
},
{
horizontal = 1;
place = "{0, 21}";
target = up;
type = BottomGhost;
}
);
layerId = "507F13DB-CCAB-4622-AAF1-433E81077BAF";
paths = (
{
closed = 1;
nodes = (
"263.909 314.636 LINE",
"59 700.038 LINE",
"35 700.038 LINE",
"255 293.37 LINE",
"255 0.051 LINE",
"275 0.051 LINE",
"275 293.37 LINE",
"493 700.038 LINE",
"469 700.038 LINE"
);
}
);
width = 528;
}
);
unicode = 0059;
},
{
glyphname = Z;
leftMetricsKey = "H*0.666";
rightMetricsKey = "H*0.666";
layers = (
{
anchors = (
{
name = top;
position = "{284, 702}";
}
);
hints = (
{
horizontal = 1;
place = "{0, 177}";
type = Stem;
},
{
horizontal = 1;
place = "{524, 176}";
type = Stem;
}
);
layerId = "9A3F6695-68A9-4551-BE26-76B666927AA0";
paths = (
{
closed = 1;
nodes = (
"589 700.035 LINE",
"19 700.035 LINE",
"19 524.02 LINE",
"337.04 524.02 LINE",
"19 166.698 LINE",
"19 0 LINE",
"589 0 LINE",
"589 177 LINE",
"266.997 177 LINE",
"589 533.33 LINE"
);
}
);
width = 608;
},
{
anchors = (
{
name = top;
position = "{285, 701}";
}
);
hints = (
{
horizontal = 1;
place = "{0, 99}";
type = Stem;
},
{
horizontal = 1;
place = "{601, 100}";
type = Stem;
}
);
layerId = "122FC69B-F67C-4AD1-868A-17406666C75E";
paths = (
{
closed = 1;
nodes = (
"554 700.328 LINE",
"56 700.328 LINE",
"56 601.285 LINE",
"418 600.757 LINE",
"56 89.111 LINE",
"56 0 LINE",
"554 0 LINE",
"554 99.308 LINE",
"191 99.308 LINE",
"554 611.217 LINE"
);
}
);
width = 610;
},
{
anchors = (
{
name = top;
position = "{279, 679}";
}
);
hints = (
{
horizontal = 1;
place = "{680, 20}";
type = Stem;
},
{
horizontal = 1;
place = "{0, 21}";
target = up;
type = BottomGhost;
}
);
layerId = "507F13DB-CCAB-4622-AAF1-433E81077BAF";
paths = (
{
closed = 1;
nodes = (
"516 700.038 LINE",
"82 700.038 LINE",
"82 680.152 LINE",
"495 680.152 LINE",
"69 18.943 LINE",
"69 0.051 LINE",
"526 0.051 LINE",
"526 18.943 LINE",
"91 18.943 LINE",
"516 680.152 LINE"
);
}
);
width = 595;
}
);
unicode = 005A;
},
{
glyphname = a.old;
leftMetricsKey = a;
rightMetricsKey = a;
layers = (
{
anchors = (
{
name = ogonek;
position = "{544, 15}";
},
{
name = top;
position = "{308, 516}";
}
);
hints = (
{
place = "{17, 225}";
type = Stem;
},
{
place = "{341, 221}";
type = Stem;
},
{
horizontal = 1;
place = "{-6, 193}";
type = Stem;
},
{
horizontal = 1;
place = "{314, 192}";
type = Stem;
}
);
layerId = "9A3F6695-68A9-4551-BE26-76B666927AA0";
paths = (
{
closed = 1;
nodes = (
"16.68 89.085 OFFCURVE",
"110.727 -5.838 OFFCURVE",
"229.428 -5.838 CURVE SMOOTH",
"291.214 -5.838 OFFCURVE",
"338.581 19.689 OFFCURVE",
"367.358 60.516 CURVE",
"341.106 0 LINE",
"562.272 0 LINE",
"562.272 500.086 LINE",
"341.106 500.086 LINE",
"341.106 468.838 LINE",
"313.36 492.146 OFFCURVE",
"275.76 505.924 OFFCURVE",
"229.428 505.924 CURVE SMOOTH",
"110.727 505.924 OFFCURVE",
"16.68 412 OFFCURVE",
"16.68 250.543 CURVE SMOOTH"
);
},
{
closed = 1;
nodes = (
"341.106 208.856 OFFCURVE",
"319.171 186.668 OFFCURVE",
"291.144 186.668 CURVE SMOOTH",
"263.117 186.668 OFFCURVE",
"241.182 208.856 OFFCURVE",
"241.182 250.543 CURVE SMOOTH",
"241.182 292.23 OFFCURVE",
"263.117 314.418 OFFCURVE",
"291.144 314.418 CURVE SMOOTH",
"319.171 314.418 OFFCURVE",
"341.106 292.23 OFFCURVE",
"341.106 250.543 CURVE SMOOTH"
);
}
);
width = 587;
},
{
anchors = (
{
name = ogonek;
position = "{558, 5}";
},
{
name = top;
position = "{323, 521}";
}
);
guideLines = (
{
position = "{0, 81.65}";
},
{
position = "{0, 419.86}";
}
);
hints = (
{
place = "{48, 117}";
type = Stem;
},
{
place = "{449, 115}";
type = Stem;
},
{
horizontal = 1;
place = "{-8, 98}";
type = Stem;
},
{
horizontal = 1;
place = "{409, 98}";
type = Stem;
}
);
layerId = "122FC69B-F67C-4AD1-868A-17406666C75E";
paths = (
{
closed = 1;
nodes = (
"47.93 98.205 OFFCURVE",
"153.075 -8.01 OFFCURVE",
"283.82 -8.01 CURVE SMOOTH",
"358.106 -8.01 OFFCURVE",
"414.349 23.92 OFFCURVE",
"449.034 61.557 CURVE",
"449.32 0 LINE",
"564.21 0 LINE",
"564.21 499.62 LINE",
"449.32 499.62 LINE",
"449.32 439.346 LINE",
"415.992 474.896 OFFCURVE",
"360.288 507.63 OFFCURVE",
"285.6 507.63 CURVE SMOOTH",
"153.053 507.63 OFFCURVE",
"47.93 406.919 OFFCURVE",
"47.93 252.535 CURVE SMOOTH"
);
},
{
closed = 1;
nodes = (
"449.32 148.117 OFFCURVE",
"380.271 90.33 OFFCURVE",
"306.96 90.33 CURVE SMOOTH",
"234.501 90.33 OFFCURVE",
"164.6 149.863 OFFCURVE",
"164.6 252.535 CURVE SMOOTH",
"164.6 355.119 OFFCURVE",
"234.501 409.29 OFFCURVE",
"306.96 409.29 CURVE SMOOTH",
"380.271 409.29 OFFCURVE",
"449.32 352.512 OFFCURVE",
"449.32 250.755 CURVE SMOOTH"
);
}
);
width = 633;
},
{
anchors = (
{
name = ogonek;
position = "{546, 1}";
},
{
name = top;
position = "{318, 520}";
}
);
hints = (
{
place = "{59, 20}";
type = Stem;
},
{
horizontal = 1;
place = "{-6, 21}";
target = up;
type = BottomGhost;
},
{
horizontal = 1;
place = "{508, -20}";
target = down;
type = TopGhost;
}
);
layerId = "507F13DB-CCAB-4622-AAF1-433E81077BAF";
paths = (
{
closed = 1;
nodes = (
"58.556 91.022 OFFCURVE",
"158.86 -6.482 OFFCURVE",
"302.816 -6.482 CURVE SMOOTH",
"420.381 -6.482 OFFCURVE",
"500.466 61.81 OFFCURVE",
"528.002 148.819 CURVE",
"528.002 0 LINE",
"547.076 0 LINE",
"547.076 501.484 LINE",
"528.002 501.484 LINE",
"528.002 352.607 LINE",
"499.487 437.982 OFFCURVE",
"418.916 507.965 OFFCURVE",
"302.816 507.965 CURVE SMOOTH",
"158.86 507.965 OFFCURVE",
"58.556 410.462 OFFCURVE",
"58.556 250.742 CURVE SMOOTH"
);
},
{
closed = 1;
nodes = (
"528.002 106.743 OFFCURVE",
"432.944 11.667 OFFCURVE",
"302.816 11.667 CURVE SMOOTH",
"166.23 11.667 OFFCURVE",
"78.556 102.128 OFFCURVE",
"78.556 250.742 CURVE SMOOTH",
"78.556 399.356 OFFCURVE",
"166.23 489.817 OFFCURVE",
"302.816 489.817 CURVE SMOOTH",
"432.944 489.817 OFFCURVE",
"528.002 394.741 OFFCURVE",
"528.002 250.742 CURVE SMOOTH"
);
}
);
width = 633;
}
);
},
{
glyphname = ae;
leftMetricsKey = a;
rightMetricsKey = e;
layers = (
{
hints = (
{
horizontal = 1;
place = "{-9, 159}";
type = Stem;
},
{
horizontal = 1;
place = "{-6, 178}";
type = Stem;
},
{
horizontal = 1;
place = "{203, 112}";
type = Stem;
},
{
horizontal = 1;
place = "{330, 177}";
type = Stem;
}
);
layerId = "9A3F6695-68A9-4551-BE26-76B666927AA0";
paths = (
{
closed = 1;
nodes = (
"230.75 309.036 LINE",
"235.339 322.415 OFFCURVE",
"250.013 329.596 OFFCURVE",
"263.788 329.596 CURVE SMOOTH",
"280.991 329.596 OFFCURVE",
"296.904 325.159 OFFCURVE",
"296.904 313.085 CURVE SMOOTH",
"296.904 305.388 OFFCURVE",
"278.619 301.339 OFFCURVE",
"234.706 294.927 CURVE SMOOTH",
"85.135 273.085 OFFCURVE",
"16.68 218.11 OFFCURVE",
"16.68 138.787 CURVE SMOOTH",
"16.68 41.077 OFFCURVE",
"90.837 -9.174 OFFCURVE",
"181.89 -9.174 CURVE SMOOTH",
"289.219 -9.174 OFFCURVE",
"364.222 0 OFFCURVE",
"429.09 80.684 CURVE",
"445.573 97.11 LINE",
"518.904 268.585 LINE",
"518.904 292.243 LINE SMOOTH",
"518.904 430.25 OFFCURVE",
"426.771 507.758 OFFCURVE",
"263.622 507.758 CURVE SMOOTH",
"162.563 507.758 OFFCURVE",
"74.021 460.379 OFFCURVE",
"38.563 372.097 CURVE"
);
},
{
closed = 1;
nodes = (
"239.514 182.118 OFFCURVE",
"248.275 190.986 OFFCURVE",
"270.24 194.517 CURVE",
"296.07 198.91 LINE",
"295.849 193.301 LINE SMOOTH",
"294.948 170.421 OFFCURVE",
"283.457 149.972 OFFCURVE",
"261.954 149.972 CURVE SMOOTH",
"251.595 149.972 OFFCURVE",
"239.514 159.151 OFFCURVE",
"239.514 170.479 CURVE SMOOTH"
);
},
{
closed = 1;
nodes = (
"671.99 -4.161 OFFCURVE",
"771.327 56.716 OFFCURVE",
"808.821 160.755 CURVE",
"594.142 198.334 LINE",
"583.673 179.323 OFFCURVE",
"572.966 172.49 OFFCURVE",
"553.185 172.49 CURVE SMOOTH",
"538.111 172.49 OFFCURVE",
"522.086 181.96 OFFCURVE",
"513.464 202.662 CURVE",
"806.659 202.662 LINE",
"809.759 224.361 OFFCURVE",
"811.309 242.842 OFFCURVE",
"811.309 254.713 CURVE SMOOTH",
"811.309 411.901 OFFCURVE",
"704.449 506.924 OFFCURVE",
"552.691 506.924 CURVE SMOOTH",
"400.932 506.924 OFFCURVE",
"294.073 410.227 OFFCURVE",
"294.073 250.543 CURVE SMOOTH",
"294.073 90.859 OFFCURVE",
"400.932 -5.838 OFFCURVE",
"552.691 -5.838 CURVE"
);
},
{
closed = 1;
nodes = (
"530.101 314.27 LINE",
"539.864 324.861 OFFCURVE",
"553.002 331.098 OFFCURVE",
"566.691 331.098 CURVE SMOOTH",
"578.676 331.098 OFFCURVE",
"591.726 325.389 OFFCURVE",
"600.257 314.27 CURVE"
);
}
);
width = 828;
},
{
guideLines = (
{
position = "{0, 426.08}";
}
);
hints = (
{
place = "{48, 117}";
type = Stem;
},
{
place = "{727, 119}";
type = Stem;
},
{
horizontal = 1;
place = "{-9, 97}";
type = Stem;
},
{
horizontal = 1;
place = "{207, 92}";
type = Stem;
},
{
horizontal = 1;
place = "{411, 97}";
type = Stem;
},
{
horizontal = 1;
place = "{413, 96}";
type = Stem;
},
{
horizontal = 1;
place = "{-9, 99}";
type = Stem;
}
);
layerId = "122FC69B-F67C-4AD1-868A-17406666C75E";
paths = (
{
closed = 1;
nodes = (
"163.647 330.575 LINE",
"178.046 382.558 OFFCURVE",
"216.744 411.18 OFFCURVE",
"268.69 411.18 CURVE SMOOTH",
"335.332 411.18 OFFCURVE",
"359.43 381.126 OFFCURVE",
"359.43 348.435 CURVE SMOOTH",
"359.43 314.845 OFFCURVE",
"326.968 305.456 OFFCURVE",
"267.111 298.207 CURVE SMOOTH",
"163.752 285.689 OFFCURVE",
"47.93 257.47 OFFCURVE",
"47.93 137.725 CURVE SMOOTH",
"47.93 47.799 OFFCURVE",
"116.082 -8.9 OFFCURVE",
"219.74 -8.9 CURVE SMOOTH",
"288.659 -8.9 OFFCURVE",
"384.726 13.239 OFFCURVE",
"425.454 110.36 CURVE",
"447.303 143.065 LINE",
"475.21 255.5 LINE",
"475.21 292.585 LINE SMOOTH",
"475.21 438.884 OFFCURVE",
"397.183 509.52 OFFCURVE",
"274.92 509.52 CURVE SMOOTH",
"168.761 509.52 OFFCURVE",
"87.375 454.227 OFFCURVE",
"62.877 367.181 CURVE"
);
},
{
closed = 1;
nodes = (
"164.6 177.603 OFFCURVE",
"183.957 195.141 OFFCURVE",
"249.871 204.198 CURVE",
"359.43 218.85 LINE",
"359.43 216.935 LINE SMOOTH",
"359.43 129.68 OFFCURVE",
"302.801 90.33 OFFCURVE",
"241.1 90.33 CURVE SMOOTH",
"192.586 90.33 OFFCURVE",
"164.6 109.217 OFFCURVE",
"164.6 143.065 CURVE SMOOTH"
);
},
{
closed = 1;
nodes = (
"720.051 -8.01 OFFCURVE",
"796.893 41.968 OFFCURVE",
"836.049 119.248 CURVE",
"731.732 157.063 LINE",
"709.551 112.27 OFFCURVE",
"670.667 87.66 OFFCURVE",
"605.427 87.66 CURVE SMOOTH",
"535.463 87.66 OFFCURVE",
"483.918 131.515 OFFCURVE",
"476.645 207.37 CURVE",
"841.429 207.37 LINE",
"844.683 227.976 OFFCURVE",
"845.767 245.299 OFFCURVE",
"845.767 262.325 CURVE SMOOTH",
"845.767 409.563 OFFCURVE",
"747.996 508.63 OFFCURVE",
"604.537 508.63 CURVE SMOOTH",
"455.668 508.63 OFFCURVE",
"358.857 407.841 OFFCURVE",
"358.857 250.755 CURVE SMOOTH",
"358.857 93.68 OFFCURVE",
"463.849 -8.01 OFFCURVE",
"608.097 -8.01 CURVE SMOOTH"
);
},
{
closed = 1;
nodes = (
"477.778 299.48 LINE",
"490.236 367.641 OFFCURVE",
"537.947 412.96 OFFCURVE",
"600.087 412.96 CURVE SMOOTH",
"671.213 412.96 OFFCURVE",
"724.078 370.512 OFFCURVE",
"727.102 299.48 CURVE"
);
}
);
width = 891;
},
{
hints = (
{
place = "{58, 20}";
type = Stem;
},
{
place = "{430, 21}";
type = Stem;
},
{
place = "{869, 20}";
type = Stem;
},
{
horizontal = 1;
place = "{508, -20}";
target = down;
type = TopGhost;
},
{
horizontal = 1;
place = "{-6, 21}";
target = up;
type = BottomGhost;
}
);
layerId = "507F13DB-CCAB-4622-AAF1-433E81077BAF";
paths = (
{
closed = 1;
nodes = (
"96.573 367.167 LINE",
"120.71 443.267 OFFCURVE",
"185.425 489.616 OFFCURVE",
"268.697 489.616 CURVE SMOOTH",
"378.986 489.616 OFFCURVE",
"429.803 406.717 OFFCURVE",
"429.803 326.297 CURVE SMOOTH",
"429.803 287.602 OFFCURVE",
"408.716 289.714 OFFCURVE",
"252.03 273.437 CURVE SMOOTH",
"133.437 261.117 OFFCURVE",
"58.295 212.777 OFFCURVE",
"58.295 126.367 CURVE SMOOTH",
"58.295 37.54 OFFCURVE",
"129.234 -5.518 OFFCURVE",
"230.735 -5.518 CURVE SMOOTH",
"326.836 -5.518 OFFCURVE",
"423.664 49.432 OFFCURVE",
"442.664 176.155 CURVE",
"441.664 195.27 LINE",
"450.395 251.201 LINE",
"450.395 315.547 LINE SMOOTH",
"450.395 448.958 OFFCURVE",
"362.625 508.356 OFFCURVE",
"268.697 508.356 CURVE SMOOTH",
"171.092 508.356 OFFCURVE",
"103.903 450.053 OFFCURVE",
"78.481 373.494 CURVE"
);
},
{
closed = 1;
nodes = (
"77.961 204.083 OFFCURVE",
"146.679 245.752 OFFCURVE",
"252.03 256.77 CURVE SMOOTH",
"429.803 275.362 LINE",
"429.803 234.993 LINE SMOOTH",
"429.803 99.812 OFFCURVE",
"354.805 12.148 OFFCURVE",
"231.661 12.148 CURVE SMOOTH",
"140.744 12.148 OFFCURVE",
"77.961 47.995 OFFCURVE",
"77.961 126.367 CURVE SMOOTH"
);
},
{
closed = 1;
nodes = (
"775.766 -5.74 OFFCURVE",
"850.439 48.862 OFFCURVE",
"882.414 130 CURVE",
"865.08 136.07 LINE",
"833.409 57.468 OFFCURVE",
"761.478 11.925 OFFCURVE",
"663.77 11.925 CURVE SMOOTH",
"551.179 11.925 OFFCURVE",
"453.068 85.417 OFFCURVE",
"450.851 252.4 CURVE",
"888.837 252.4 LINE",
"889.763 269.066 OFFCURVE",
"888.763 282.325 OFFCURVE",
"888.763 292.398 CURVE SMOOTH",
"888.763 399.025 OFFCURVE",
"816.543 508.207 OFFCURVE",
"663.77 508.207 CURVE SMOOTH",
"524.885 508.207 OFFCURVE",
"431.295 412.84 OFFCURVE",
"431.295 255.733 CURVE SMOOTH",
"431.295 94.626 OFFCURVE",
"524.885 -5.741 OFFCURVE",
"663.77 -5.741 CURVE SMOOTH"
);
},
{
closed = 1;
nodes = (
"450.83 270.067 LINE",
"455.527 422.909 OFFCURVE",
"556.166 489.542 OFFCURVE",
"663.77 489.542 CURVE SMOOTH",
"778.65 489.542 OFFCURVE",
"879.494 412.84 OFFCURVE",
"869.097 270.067 CURVE"
);
}
);
width = 946;
}
);
unicode = 00E6;
},
{
glyphname = b;
leftMetricsKey = l;
layers = (
{
hints = (
{
place = "{28, 222}";
type = Stem;
},
{
place = "{349, 225}";
type = Stem;
},
{
horizontal = 1;
place = "{-6, 193}";
type = Stem;
},
{
horizontal = 1;
place = "{314, 193}";
type = Stem;
},
{
horizontal = 1;
place = "{720, -20}";
target = down;
type = TopGhost;
}
);
layerId = "9A3F6695-68A9-4551-BE26-76B666927AA0";
rightMetricsKey = "l*0.5";
paths = (
{
closed = 1;
nodes = (
"249.7 421.513 LINE",
"249.7 720.023 LINE",
"27.7 720.023 LINE",
"27.7 0 LINE",
"229.201 0 LINE",
"239.447 46.447 LINE",
"270.429 15.495 OFFCURVE",
"313.249 -5.838 OFFCURVE",
"360.544 -5.838 CURVE SMOOTH",
"479.245 -5.838 OFFCURVE",
"573.292 89.085 OFFCURVE",
"573.292 250.543 CURVE SMOOTH",
"573.292 412 OFFCURVE",
"479.245 506.923 OFFCURVE",
"360.544 506.923 CURVE SMOOTH",
"290.373 506.923 OFFCURVE",
"240.862 466.191 OFFCURVE",
"215.718 418.696 CURVE"
);
},
{
closed = 1;
nodes = (
"348.79 208.856 OFFCURVE",
"326.855 186.668 OFFCURVE",
"298.828 186.668 CURVE SMOOTH",
"270.801 186.668 OFFCURVE",
"248.866 208.856 OFFCURVE",
"248.866 250.543 CURVE SMOOTH",
"248.866 292.23 OFFCURVE",
"270.801 314.418 OFFCURVE",
"298.828 314.418 CURVE SMOOTH",
"326.855 314.418 OFFCURVE",
"348.79 292.23 OFFCURVE",
"348.79 250.543 CURVE SMOOTH"
);
}
);
width = 587;
},
{
hints = (
{
place = "{77, 114}";
type = Stem;
},
{
place = "{467, 116}";
type = Stem;
},
{
horizontal = 1;
place = "{-8, 98}";
type = Stem;
},
{
horizontal = 1;
place = "{410, 98}";
type = Stem;
},
{
horizontal = 1;
place = "{720, -20}";
target = down;
type = TopGhost;
}
);
layerId = "122FC69B-F67C-4AD1-868A-17406666C75E";
rightMetricsKey = "l*0.5";
paths = (
{
closed = 1;
nodes = (
"190.75 422.525 LINE",
"190.75 720.025 LINE",
"76.75 720.025 LINE",
"76.75 0 LINE",
"180.853 0 LINE",
"188.931 62.164 LINE",
"223.951 23.144 OFFCURVE",
"280.217 -8.01 OFFCURVE",
"355.36 -8.01 CURVE SMOOTH",
"488.061 -8.01 OFFCURVE",
"583.24 98.205 OFFCURVE",
"583.24 252.535 CURVE SMOOTH",
"583.24 406.919 OFFCURVE",
"488.976 508.63 OFFCURVE",
"355.36 508.63 CURVE SMOOTH",
"275.63 508.63 OFFCURVE",
"212.487 471.182 OFFCURVE",
"179.605 425.514 CURVE"
);
},
{
closed = 1;
nodes = (
"467.46 149.863 OFFCURVE",
"406.237 90.33 OFFCURVE",
"333.11 90.33 CURVE SMOOTH",
"260.651 90.33 OFFCURVE",
"190.75 148.117 OFFCURVE",
"190.75 250.755 CURVE SMOOTH",
"190.75 352.512 OFFCURVE",
"260.651 410.29 OFFCURVE",
"333.11 410.29 CURVE SMOOTH",
"406.237 410.29 OFFCURVE",
"467.46 355.119 OFFCURVE",
"467.46 252.535 CURVE SMOOTH"
);
}
);
width = 622;
},
{
hints = (
{
place = "{95, 20}";
type = Stem;
},
{
place = "{552, 20}";
type = Stem;
},
{
horizontal = 1;
place = "{-6, 21}";
target = up;
type = BottomGhost;
},
{
horizontal = 1;
place = "{720, -20}";
target = down;
type = TopGhost;
}
);
layerId = "507F13DB-CCAB-4622-AAF1-433E81077BAF";
rightMetricsKey = "=l/2";
paths = (
{
closed = 1;
nodes = (
"114.778 355.429 LINE",
"114.778 720 LINE",
"94.704 720 LINE",
"94.704 0 LINE",
"114.778 0 LINE",
"114.778 147.088 LINE",
"143.546 61.82 OFFCURVE",
"214.587 -6.482 OFFCURVE",
"330.705 -6.482 CURVE SMOOTH",
"474.666 -6.482 OFFCURVE",
"572.188 91.022 OFFCURVE",
"572.188 250.742 CURVE SMOOTH",
"572.188 410.462 OFFCURVE",
"474.666 507.965 OFFCURVE",
"330.705 507.965 CURVE SMOOTH",
"210.876 507.965 OFFCURVE",
"142.136 440.151 OFFCURVE",
"113.338 350.97 CURVE"
);
},
{
closed = 1;
nodes = (
"552.188 102.128 OFFCURVE",
"467.286 11.667 OFFCURVE",
"330.705 11.667 CURVE SMOOTH",
"200.595 11.667 OFFCURVE",
"114.778 106.743 OFFCURVE",
"114.778 250.742 CURVE SMOOTH",
"114.778 394.741 OFFCURVE",
"200.595 489.817 OFFCURVE",
"330.705 489.817 CURVE SMOOTH",
"467.286 489.817 OFFCURVE",
"552.188 399.356 OFFCURVE",
"552.188 250.742 CURVE SMOOTH"
);
}
);
width = 620;
}
);
unicode = 0062;
},
{
glyphname = c;
leftMetricsKey = o;
rightMetricsKey = "o*1.2";
layers = (
{
anchors = (
{
name = bottom;
position = "{268, 15}";
},
{
name = top;
position = "{268, 486}";
}
);
hints = (
{
place = "{17, 222}";
type = Stem;
},
{
horizontal = 1;
place = "{-6, 189}";
type = Stem;
},
{
horizontal = 1;
place = "{318, 189}";
type = Stem;
}
);
layerId = "9A3F6695-68A9-4551-BE26-76B666927AA0";
paths = (
{
closed = 1;
nodes = (
"391.263 -4.127 OFFCURVE",
"487.969 64.207 OFFCURVE",
"518.676 182.437 CURVE",
"308.279 222.227 LINE",
"301.096 198.345 OFFCURVE",
"286.989 183.332 OFFCURVE",
"274.128 183.332 CURVE SMOOTH",
"256.573 183.332 OFFCURVE",
"238.182 204.378 OFFCURVE",
"238.182 250.543 CURVE SMOOTH",
"238.182 296.708 OFFCURVE",
"256.573 317.754 OFFCURVE",
"274.128 317.754 CURVE SMOOTH",
"286.939 317.754 OFFCURVE",
"301.035 302.875 OFFCURVE",
"308.223 279.185 CURVE",
"518.906 317.76 LINE",
"487.95 438.059 OFFCURVE",
"393.651 506.924 OFFCURVE",
"275.298 506.924 CURVE SMOOTH",
"123.54 506.924 OFFCURVE",
"16.68 410.227 OFFCURVE",
"16.68 250.543 CURVE SMOOTH",
"16.68 90.859 OFFCURVE",
"123.54 -5.838 OFFCURVE",
"275.298 -5.838 CURVE"
);
}
);
width = 538;
},
{
anchors = (
{
name = bottom;
position = "{286, 5}";
},
{
name = top;
position = "{286, 496}";
}
);
hints = (
{
place = "{46, 117}";
type = Stem;
},
{
horizontal = 1;
place = "{-8, 98}";
type = Stem;
},
{
horizontal = 1;
place = "{410, 98}";
type = Stem;
}
);
layerId = "122FC69B-F67C-4AD1-868A-17406666C75E";
paths = (
{
closed = 1;
nodes = (
"398.041 -8.01 OFFCURVE",
"479.728 44.014 OFFCURVE",
"519.916 123.111 CURVE",
"413.388 162.049 LINE",
"390.781 113.408 OFFCURVE",
"348.452 90.33 OFFCURVE",
"292.5 90.33 CURVE SMOOTH",
"220.204 90.33 OFFCURVE",
"162.6 152.686 OFFCURVE",
"162.6 250.755 CURVE SMOOTH",
"162.6 347.945 OFFCURVE",
"220.204 410.29 OFFCURVE",
"292.5 410.29 CURVE SMOOTH",
"348.863 410.29 OFFCURVE",
"392.193 383.256 OFFCURVE",
"410.385 336.864 CURVE",
"518.933 376.069 LINE",
"480.051 460.711 OFFCURVE",
"399.71 508.63 OFFCURVE",
"292.5 508.63 CURVE SMOOTH",
"148.211 508.63 OFFCURVE",
"45.93 406.933 OFFCURVE",
"45.93 250.755 CURVE SMOOTH",
"45.93 93.68 OFFCURVE",
"148.211 -8.01 OFFCURVE",
"292.5 -8.01 CURVE SMOOTH"
);
}
);
width = 575;
},
{
anchors = (
{
name = bottom;
position = "{294, 1}";
},
{
name = top;
position = "{294, 501}";
}
);
hints = (
{
place = "{56, 20}";
type = Stem;
},
{
horizontal = 1;
place = "{508, -20}";
target = down;
type = TopGhost;
},
{
horizontal = 1;
place = "{-6, 21}";
target = up;
type = BottomGhost;
}
);
layerId = "507F13DB-CCAB-4622-AAF1-433E81077BAF";
paths = (
{
closed = 1;
nodes = (
"408.613 -5.741 OFFCURVE",
"485.892 48.461 OFFCURVE",
"515.873 129.106 CURVE",
"499.21 135.197 LINE",
"471.109 57.123 OFFCURVE",
"394.374 11.926 OFFCURVE",
"297.029 11.926 CURVE SMOOTH",
"182.217 11.926 OFFCURVE",
"75.813 84.998 OFFCURVE",
"75.813 250.734 CURVE SMOOTH",
"75.813 416.47 OFFCURVE",
"182.217 489.542 OFFCURVE",
"297.029 489.542 CURVE SMOOTH",
"394.417 489.542 OFFCURVE",
"470.176 444.304 OFFCURVE",
"498.247 366.169 CURVE",
"515.935 372.196 LINE",
"485.998 452.932 OFFCURVE",
"408.689 508.208 OFFCURVE",
"297.029 508.208 CURVE SMOOTH",
"158.144 508.208 OFFCURVE",
"56.295 411.84 OFFCURVE",
"56.295 250.734 CURVE SMOOTH",
"56.295 89.627 OFFCURVE",
"158.144 -5.741 OFFCURVE",
"297.029 -5.741 CURVE SMOOTH"
);
}
);
width = 584;
}
);
unicode = 0063;
},
{
glyphname = d;
leftMetricsKey = "l*0.5";
rightMetricsKey = l;
layers = (
{
anchors = (
{
name = topright;
position = "{516, 633}";
}
);
hints = (
{
place = "{14, 225}";
type = Stem;
},
{
place = "{337, 222}";
type = Stem;
},
{
horizontal = 1;
place = "{-6, 193}";
type = Stem;
},
{
horizontal = 1;
place = "{314, 193}";
type = Stem;
},
{
horizontal = 1;
place = "{720, -20}";
target = down;
type = TopGhost;
}
);
layerId = "9A3F6695-68A9-4551-BE26-76B666927AA0";
paths = (
{
closed = 1;
nodes = (
"357.771 0 LINE",
"559.272 0 LINE",
"559.272 720.021 LINE",
"337.272 720.021 LINE",
"337.272 465.043 LINE",
"309.787 488.351 OFFCURVE",
"272.805 506.924 OFFCURVE",
"226.428 506.924 CURVE SMOOTH",
"107.727 506.924 OFFCURVE",
"13.68 412 OFFCURVE",
"13.68 250.542 CURVE SMOOTH",
"13.68 89.084 OFFCURVE",
"107.727 -5.839 OFFCURVE",
"226.428 -5.839 CURVE SMOOTH",
"277.588 -5.839 OFFCURVE",
"317.366 16.629 OFFCURVE",
"346.125 45.776 CURVE"
);
},
{
closed = 1;
nodes = (
"238.182 292.23 OFFCURVE",
"260.117 314.418 OFFCURVE",
"288.144 314.418 CURVE SMOOTH",
"316.171 314.418 OFFCURVE",
"338.106 292.23 OFFCURVE",
"338.106 250.543 CURVE SMOOTH",
"338.106 208.856 OFFCURVE",
"316.171 186.668 OFFCURVE",
"288.144 186.668 CURVE SMOOTH",
"260.117 186.668 OFFCURVE",
"238.182 208.856 OFFCURVE",
"238.182 250.543 CURVE SMOOTH"
);
}
);
width = 587;
},
{
anchors = (
{
name = topright;
position = "{553, 664}";
}
);
hints = (
{
place = "{38, 116}";
type = Stem;
},
{
place = "{431, 114}";
type = Stem;
},
{
horizontal = 1;
place = "{-8, 98}";
type = Stem;
},
{
horizontal = 1;
place = "{410, 98}";
type = Stem;
},
{
horizontal = 1;
place = "{720, -20}";
target = down;
type = TopGhost;
}
);
layerId = "122FC69B-F67C-4AD1-868A-17406666C75E";
paths = (
{
closed = 1;
nodes = (
"440.502 0 LINE",
"544.606 0 LINE",
"544.606 720.205 LINE",
"430.606 720.205 LINE",
"430.606 439.006 LINE",
"395.225 477.16 OFFCURVE",
"335.883 508.63 OFFCURVE",
"265.996 508.63 CURVE SMOOTH",
"132.379 508.63 OFFCURVE",
"38.116 406.919 OFFCURVE",
"38.116 252.535 CURVE SMOOTH",
"38.116 98.205 OFFCURVE",
"133.294 -8.01 OFFCURVE",
"265.996 -8.01 CURVE SMOOTH",
"341.113 -8.01 OFFCURVE",
"397.366 23.122 OFFCURVE",
"432.388 62.447 CURVE"
);
},
{
closed = 1;
nodes = (
"153.896 355.119 OFFCURVE",
"215.118 410.29 OFFCURVE",
"288.246 410.29 CURVE SMOOTH",
"360.704 410.29 OFFCURVE",
"430.606 352.512 OFFCURVE",
"430.606 250.755 CURVE SMOOTH",
"430.606 148.117 OFFCURVE",
"360.704 90.33 OFFCURVE",
"288.246 90.33 CURVE SMOOTH",
"215.118 90.33 OFFCURVE",
"153.896 149.863 OFFCURVE",
"153.896 252.535 CURVE SMOOTH"
);
}
);
width = 621;
},
{
anchors = (
{
name = topright;
position = "{512, 720}";
}
);
hints = (
{
place = "{48, 20}";
type = Stem;
},
{
place = "{505, 20}";
type = Stem;
},
{
horizontal = 1;
place = "{-6, 21}";
target = up;
type = BottomGhost;
},
{
horizontal = 1;
place = "{721, -20}";
target = down;
type = TopGhost;
}
);
layerId = "507F13DB-CCAB-4622-AAF1-433E81077BAF";
paths = (
{
closed = 1;
nodes = (
"504.965 355.082 LINE",
"474.614 440.289 OFFCURVE",
"405.154 507.965 OFFCURVE",
"289.038 507.965 CURVE SMOOTH",
"145.078 507.965 OFFCURVE",
"47.556 410.462 OFFCURVE",
"47.556 250.742 CURVE SMOOTH",
"47.556 91.022 OFFCURVE",
"145.078 -6.482 OFFCURVE",
"289.038 -6.482 CURVE SMOOTH",
"406.621 -6.482 OFFCURVE",
"476.92 59.245 OFFCURVE",
"504.965 146.162 CURVE",
"504.965 0 LINE",
"525.039 0 LINE",
"525.039 720.741 LINE",
"504.965 720.67 LINE"
);
},
{
closed = 1;
nodes = (
"67.556 399.356 OFFCURVE",
"152.457 489.817 OFFCURVE",
"289.038 489.817 CURVE SMOOTH",
"419.148 489.817 OFFCURVE",
"504.965 394.741 OFFCURVE",
"504.965 250.742 CURVE SMOOTH",
"504.965 106.743 OFFCURVE",
"419.148 11.667 OFFCURVE",
"289.038 11.667 CURVE SMOOTH",
"152.457 11.667 OFFCURVE",
"67.556 102.128 OFFCURVE",
"67.556 250.742 CURVE SMOOTH"
);
}
);
width = 620;
}
);
unicode = 0064;
},
{
glyphname = eth;
leftMetricsKey = o;
rightMetricsKey = o;
layers = (
{
hints = (
{
place = "{17, 225}";
type = Stem;
},
{
place = "{331, 225}";
type = Stem;
},
{
horizontal = 1;
place = "{-5, 191}";
type = Stem;
}
);
layerId = "9A3F6695-68A9-4551-BE26-76B666927AA0";
paths = (
{
closed = 1;
nodes = (
"220.176 576.553 LINE",
"220.176 484.559 LINE",
"478.038 557.539 LINE",
"478.038 649.533 LINE"
);
},
{
closed = 1;
nodes = (
"128.227 504.422 OFFCURVE",
"16.68 410.287 OFFCURVE",
"16.68 252.211 CURVE SMOOTH",
"16.68 93.447 OFFCURVE",
"145.391 -5.004 OFFCURVE",
"291.978 -5.004 CURVE SMOOTH",
"435.412 -5.004 OFFCURVE",
"556.434 94.61 OFFCURVE",
"556.434 279.733 CURVE SMOOTH",
"556.434 415.108 OFFCURVE",
"483.142 554.914 OFFCURVE",
"392.868 647.87 CURVE",
"183.097 647.87 LINE",
"224.554 611.233 OFFCURVE",
"272.982 554.469 OFFCURVE",
"305.433 502.198 CURVE",
"292.778 503.614 OFFCURVE",
"280.546 504.422 OFFCURVE",
"269.46 504.422 CURVE SMOOTH"
);
},
{
closed = 1;
nodes = (
"271.871 185.834 OFFCURVE",
"242.016 202.011 OFFCURVE",
"242.016 250.543 CURVE SMOOTH",
"242.016 298.954 OFFCURVE",
"267.72 314.418 OFFCURVE",
"288.642 314.418 CURVE SMOOTH",
"306.671 314.418 OFFCURVE",
"331.098 298.954 OFFCURVE",
"331.098 250.543 CURVE SMOOTH",
"331.098 202.011 OFFCURVE",
"311.255 185.834 OFFCURVE",
"291.978 185.834 CURVE SMOOTH"
);
}
);
width = 573;
},
{
hints = (
{
place = "{46, 117}";
type = Stem;
},
{
place = "{442, 117}";
type = Stem;
},
{
horizontal = 1;
place = "{-8, 96}";
type = Stem;
},
{
horizontal = 1;
place = "{413, 96}";
type = Stem;
}
);
layerId = "122FC69B-F67C-4AD1-868A-17406666C75E";
paths = (
{
closed = 1;
nodes = (
"247.96 586.107 LINE",
"247.96 520.946 LINE",
"515.93 608.713 LINE",
"515.93 673.874 LINE"
);
},
{
closed = 1;
nodes = (
"156.43 508.63 OFFCURVE",
"45.93 407.841 OFFCURVE",
"45.93 250.755 CURVE SMOOTH",
"45.93 93.68 OFFCURVE",
"154.534 -8.01 OFFCURVE",
"298.73 -8.01 CURVE SMOOTH",
"446.474 -8.01 OFFCURVE",
"558.65 91.616 OFFCURVE",
"558.65 287.245 CURVE SMOOTH",
"558.65 434.417 OFFCURVE",
"488.713 562.562 OFFCURVE",
"364.279 668.83 CURVE",
"243.923 668.83 LINE",
"329.323 598.802 OFFCURVE",
"385.386 536.481 OFFCURVE",
"418.975 471.036 CURVE",
"383.549 495.971 OFFCURVE",
"344.911 508.63 OFFCURVE",
"292.5 508.63 CURVE SMOOTH"
);
},
{
closed = 1;
nodes = (
"225.56 87.66 OFFCURVE",
"162.6 142.888 OFFCURVE",
"162.6 250.755 CURVE SMOOTH",
"162.6 358.604 OFFCURVE",
"228.15 412.96 OFFCURVE",
"300.51 412.96 CURVE SMOOTH",
"373.802 412.96 OFFCURVE",
"441.98 358.604 OFFCURVE",
"441.98 250.755 CURVE SMOOTH",
"441.98 142.888 OFFCURVE",
"371.208 87.66 OFFCURVE",
"298.73 87.66 CURVE SMOOTH"
);
}
);
width = 604;
},
{
hints = (
{
place = "{57, 20}";
type = Stem;
},
{
place = "{524, 20}";
type = Stem;
},
{
horizontal = 1;
place = "{-6, 21}";
target = up;
type = BottomGhost;
}
);
layerId = "507F13DB-CCAB-4622-AAF1-433E81077BAF";
paths = (
{
closed = 1;
nodes = (
"234.334 584.589 LINE",
"234.334 566.358 LINE",
"518.224 669.676 LINE",
"518.224 687.906 LINE"
);
},
{
closed = 1;
nodes = (
"151.288 512.595 OFFCURVE",
"56.556 413.222 OFFCURVE",
"56.556 265.557 CURVE SMOOTH",
"56.556 104.933 OFFCURVE",
"147.573 -6.482 OFFCURVE",
"300.816 -6.482 CURVE SMOOTH",
"444.773 -6.482 OFFCURVE",
"544.15 88.204 OFFCURVE",
"544.15 285.001 CURVE SMOOTH",
"544.15 445.43 OFFCURVE",
"478.258 566.95 OFFCURVE",
"320.488 686.67 CURVE",
"297.776 686.67 LINE",
"448.432 567.917 OFFCURVE",
"506.012 467.058 OFFCURVE",
"527.937 337.213 CURVE",
"491.234 454.237 OFFCURVE",
"398.815 512.595 OFFCURVE",
"300.816 512.595 CURVE SMOOTH"
);
},
{
closed = 1;
nodes = (
"169.767 11.667 OFFCURVE",
"76.556 104.914 OFFCURVE",
"76.556 265.557 CURVE SMOOTH",
"76.556 412.305 OFFCURVE",
"172.536 494.447 OFFCURVE",
"300.816 494.447 CURVE SMOOTH",
"422.635 494.447 OFFCURVE",
"524.15 407.673 OFFCURVE",
"524.15 250.742 CURVE SMOOTH",
"524.15 99.358 OFFCURVE",
"426.326 11.667 OFFCURVE",
"300.816 11.667 CURVE SMOOTH"
);
}
);
width = 601;
}
);
unicode = 00F0;
},
{
glyphname = dcaron;
leftMetricsKey = d;
rightMetricsKey = d;
layers = (
{
components = (
{
name = d;
transform = "{1, 0, 0, 1, 0.02, 0}";
alignment = -1;
}
);
hints = (
{
place = "{14, 225}";
type = Stem;
},
{
place = "{337, 222}";
type = Stem;
},
{
place = "{565, 174}";
type = Stem;
},
{
horizontal = 1;
place = "{-6, 193}";
type = Stem;
},
{
horizontal = 1;
place = "{314, 193}";
type = Stem;
},
{
horizontal = 1;
place = "{495, 153}";
type = Stem;
},
{
horizontal = 1;
place = "{720, -20}";
target = down;
type = TopGhost;
}
);
layerId = "9A3F6695-68A9-4551-BE26-76B666927AA0";
paths = (
{
closed = 1;
nodes = (
"550.46 647.87 LINE",
"550.46 495.396 LINE",
"610.187 495.1 LINE",
"610.125 494.412 OFFCURVE",
"610.053 493.733 OFFCURVE",
"609.973 493.063 CURVE SMOOTH",
"606.907 467.583 OFFCURVE",
"590.795 454.382 OFFCURVE",
"564.638 454.382 CURVE",
"564.638 357.786 LINE",
"685.175 357.786 OFFCURVE",
"739.1 431.446 OFFCURVE",
"739.1 520.759 CURVE SMOOTH",
"739.1 556.494 OFFCURVE",
"730.716 599.662 OFFCURVE",
"711.852 647.87 CURVE"
);
}
);
width = 767;
},
{
components = (
{
name = d;
transform = "{1, 0, 0, 1, 0.136, 0}";
alignment = -1;
}
);
hints = (
{
place = "{38, 116}";
type = Stem;
},
{
place = "{431, 114}";
type = Stem;
},
{
place = "{588, 117}";
type = Stem;
},
{
place = "{592, 113}";
type = Stem;
},
{
place = "{635, 70}";
type = Stem;
},
{
horizontal = 1;
place = "{-8, 98}";
type = Stem;
},
{
horizontal = 1;
place = "{410, 98}";
type = Stem;
},
{
horizontal = 1;
place = "{572, 97}";
type = Stem;
},
{
horizontal = 1;
place = "{720, -20}";
target = down;
type = TopGhost;
}
);
layerId = "122FC69B-F67C-4AD1-868A-17406666C75E";
paths = (
{
closed = 1;
nodes = (
"588.06 668.83 LINE",
"588.06 572.27 LINE",
"635.23 572.27 LINE",
"635.23 558.695 LINE SMOOTH",
"635.23 529.145 OFFCURVE",
"621.88 513.97 OFFCURVE",
"591.62 513.97 CURVE",
"591.62 459.24 LINE",
"666.693 459.24 OFFCURVE",
"704.73 498.353 OFFCURVE",
"704.73 574.715 CURVE SMOOTH",
"704.73 601.625 OFFCURVE",
"699.861 632.803 OFFCURVE",
"691.098 668.83 CURVE"
);
}
);
width = 781;
},
{
components = (
{
name = d;
transform = "{1, 0, 0, 1, 0.148, 0}";
alignment = -1;
}
);
hints = (
{
place = "{48, 20}";
type = Stem;
},
{
place = "{505, 20}";
type = Stem;
},
{
place = "{607, 22}";
type = Stem;
},
{
horizontal = 1;
place = "{-6, 21}";
target = up;
type = BottomGhost;
},
{
horizontal = 1;
place = "{721, -20}";
target = down;
type = TopGhost;
}
);
layerId = "507F13DB-CCAB-4622-AAF1-433E81077BAF";
paths = (
{
closed = 1;
nodes = (
"571.447 686.67 LINE",
"571.447 636.114 LINE",
"606.632 636.114 LINE",
"606.632 610.003 LINE SMOOTH",
"606.632 583.628 OFFCURVE",
"597.373 569.076 OFFCURVE",
"564.966 569.076 CURVE",
"564.966 549.076 LINE",
"602.887 549.076 OFFCURVE",
"628.484 563.108 OFFCURVE",
"628.484 622.04 CURVE SMOOTH",
"628.484 638.725 OFFCURVE",
"627.54 659.286 OFFCURVE",
"624.707 686.67 CURVE"
);
}
);
width = 723;
}
);
unicode = 010F;
},
{
glyphname = dcroat;
leftMetricsKey = d;
rightMetricsKey = d;
layers = (
{
components = (
{
name = d;
transform = "{1, 0, 0, 1, 0.02, 0}";
alignment = -1;
}
);
hints = (
{
place = "{14, 225}";
type = Stem;
},
{
place = "{337, 222}";
type = Stem;
},
{
horizontal = 1;
place = "{-6, 193}";
type = Stem;
},
{
horizontal = 1;
place = "{494, 111}";
type = Stem;
},
{
horizontal = 1;
place = "{720, -20}";
target = down;
type = TopGhost;
}
);
layerId = "9A3F6695-68A9-4551-BE26-76B666927AA0";
paths = (
{
closed = 1;
nodes = (
"266.066 493.728 LINE",
"590.648 493.728 LINE",
"590.648 604.502 LINE",
"266.066 604.502 LINE"
);
}
);
width = 618;
},
{
components = (
{
name = d;
transform = "{1, 0, 0, 1, 0.136, 0}";
alignment = -1;
}
);
hints = (
{
place = "{38, 116}";
type = Stem;
},
{
place = "{431, 114}";
type = Stem;
},
{
horizontal = 1;
place = "{-8, 98}";
type = Stem;
},
{
horizontal = 1;
place = "{410, 98}";
type = Stem;
},
{
horizontal = 1;
place = "{525, 69}";
type = Stem;
},
{
horizontal = 1;
place = "{720, -20}";
target = down;
type = TopGhost;
}
);
layerId = "122FC69B-F67C-4AD1-868A-17406666C75E";
paths = (
{
closed = 1;
nodes = (
"367.34 525.1 LINE",
"607.72 525.1 LINE",
"607.72 594.07 LINE",
"367.34 594.07 LINE"
);
}
);
width = 684;
},
{
components = (
{
name = d;
transform = "{1, 0, 0, 1, 0.148, 0}";
alignment = -1;
}
);
hints = (
{
place = "{48, 20}";
type = Stem;
},
{
place = "{505, 20}";
type = Stem;
},
{
horizontal = 1;
place = "{490, 130}";
type = Stem;
},
{
horizontal = 1;
place = "{-6, 21}";
target = up;
type = BottomGhost;
},
{
horizontal = 1;
place = "{721, -20}";
target = down;
type = TopGhost;
}
);
layerId = "507F13DB-CCAB-4622-AAF1-433E81077BAF";
paths = (
{
closed = 1;
nodes = (
"312.187 601.854 LINE",
"584.04 601.854 LINE",
"584.04 620.003 LINE",
"312.187 620.003 LINE"
);
}
);
width = 679;
}
);
unicode = 0111;
},
{
glyphname = e;
leftMetricsKey = o;
rightMetricsKey = o;
layers = (
{
anchors = (
{
name = bottom;
position = "{275, 10}";
},
{
name = ogonek;
position = "{355, 22}";
},
{
name = right;
position = "{2888, 234}";
},
{
name = top;
position = "{275, 492}";
}
);
guideLines = (
{
position = "{0, -168.96}";
}
);
hints = (
{
horizontal = 1;
place = "{-6, 176}";
type = Stem;
},
{
horizontal = 1;
place = "{203, 112}";
type = Stem;
},
{
horizontal = 1;
place = "{338, 169}";
type = Stem;
}
);
layerId = "9A3F6695-68A9-4551-BE26-76B666927AA0";
paths = (
{
closed = 1;
nodes = (
"394.598 -4.161 OFFCURVE",
"493.935 56.716 OFFCURVE",
"531.428 160.755 CURVE",
"316.749 198.334 LINE",
"306.28 179.323 OFFCURVE",
"295.574 170.49 OFFCURVE",
"275.792 170.49 CURVE SMOOTH",
"260.718 170.49 OFFCURVE",
"243.693 181.96 OFFCURVE",
"235.072 202.662 CURVE",
"529.266 202.662 LINE",
"532.366 224.361 OFFCURVE",
"533.916 242.842 OFFCURVE",
"533.916 254.713 CURVE SMOOTH",
"533.916 411.901 OFFCURVE",
"427.056 506.924 OFFCURVE",
"275.298 506.924 CURVE SMOOTH",
"123.54 506.924 OFFCURVE",
"16.68 410.227 OFFCURVE",
"16.68 250.543 CURVE SMOOTH",
"16.68 90.859 OFFCURVE",
"123.54 -5.838 OFFCURVE",
"275.298 -5.838 CURVE"
);
},
{
closed = 1;
nodes = (
"237.709 314.27 LINE",
"250.062 330.846 OFFCURVE",
"258.252 337.972 OFFCURVE",
"275.298 338.098 CURVE SMOOTH",
"290.113 338.207 OFFCURVE",
"298.571 330.361 OFFCURVE",
"309.865 314.27 CURVE"
);
}
);
width = 550;
},
{
anchors = (
{
name = bottom;
position = "{294, 5}";
},
{
name = ogonek;
position = "{391, 18}";
},
{
name = right;
position = "{3082, 238}";
},
{
name = top;
position = "{294, 496}";
}
);
hints = (
{
place = "{414, 119}";
type = Stem;
},
{
horizontal = 1;
place = "{-8, 96}";
type = Stem;
},
{
horizontal = 1;
place = "{207, 92}";
type = Stem;
},
{
horizontal = 1;
place = "{413, 96}";
type = Stem;
}
);
layerId = "122FC69B-F67C-4AD1-868A-17406666C75E";
paths = (
{
closed = 1;
nodes = (
"45.93 93.68 OFFCURVE",
"150.921 -8.01 OFFCURVE",
"295.17 -8.01 CURVE SMOOTH",
"407.123 -8.01 OFFCURVE",
"483.965 41.968 OFFCURVE",
"523.122 119.248 CURVE",
"418.804 157.063 LINE",
"396.623 112.27 OFFCURVE",
"357.739 87.66 OFFCURVE",
"292.5 87.66 CURVE SMOOTH",
"222.536 87.66 OFFCURVE",
"170.991 131.515 OFFCURVE",
"163.717 207.37 CURVE",
"528.502 207.37 LINE",
"531.755 227.976 OFFCURVE",
"532.84 245.299 OFFCURVE",
"532.84 262.325 CURVE SMOOTH",
"532.84 409.563 OFFCURVE",
"435.069 508.63 OFFCURVE",
"291.61 508.63 CURVE SMOOTH",
"142.741 508.63 OFFCURVE",
"45.93 407.841 OFFCURVE",
"45.93 250.755 CURVE SMOOTH"
);
},
{
closed = 1;
nodes = (
"164.851 299.48 LINE",
"177.309 367.641 OFFCURVE",
"225.019 412.96 OFFCURVE",
"287.16 412.96 CURVE SMOOTH",
"358.286 412.96 OFFCURVE",
"411.151 370.512 OFFCURVE",
"414.174 299.48 CURVE"
);
}
);
width = 578;
},
{
anchors = (
{
name = bottom;
position = "{292, 1}";
},
{
name = ogonek;
position = "{398, 12}";
},
{
name = right;
position = "{3188, 243}";
},
{
name = top;
position = "{292, 501}";
}
);
hints = (
{
place = "{56, 20}";
type = Stem;
},
{
place = "{494, 20}";
type = Stem;
},
{
horizontal = 1;
place = "{508, -20}";
target = down;
type = TopGhost;
},
{
horizontal = 1;
place = "{-6, 21}";
target = up;
type = BottomGhost;
}
);
layerId = "507F13DB-CCAB-4622-AAF1-433E81077BAF";
paths = (
{
closed = 1;
nodes = (
"400.766 -5.741 OFFCURVE",
"475.439 48.862 OFFCURVE",
"507.414 130.001 CURVE",
"490.08 136.071 LINE",
"458.409 57.468 OFFCURVE",
"386.478 11.926 OFFCURVE",
"288.77 11.926 CURVE SMOOTH",
"176.179 11.926 OFFCURVE",
"78.068 85.418 OFFCURVE",
"75.851 252.401 CURVE",
"513.837 252.401 LINE",
"514.763 269.067 OFFCURVE",
"513.763 282.326 OFFCURVE",
"513.763 292.399 CURVE SMOOTH",
"513.763 399.026 OFFCURVE",
"441.543 508.208 OFFCURVE",
"288.77 508.208 CURVE SMOOTH",
"149.885 508.208 OFFCURVE",
"56.295 412.84 OFFCURVE",
"56.295 255.734 CURVE SMOOTH",
"56.295 94.627 OFFCURVE",
"149.885 -5.741 OFFCURVE",
"288.77 -5.741 CURVE SMOOTH"
);
},
{
closed = 1;
nodes = (
"75.83 270.067 LINE",
"80.527 422.909 OFFCURVE",
"181.166 489.542 OFFCURVE",
"288.77 489.542 CURVE SMOOTH",
"403.65 489.542 OFFCURVE",
"504.494 412.84 OFFCURVE",
"494.097 270.067 CURVE"
);
}
);
width = 571;
}
);
unicode = 0065;
},
{
glyphname = f;
leftMetricsKey = "l*0.45";
rightMetricsKey = "l*0.45";
layers = (
{
hints = (
{
place = "{62, 222}";
type = Stem;
},
{
horizontal = 1;
place = "{316, 184}";
type = Stem;
},
{
horizontal = 1;
place = "{0, 21}";
target = up;
type = BottomGhost;
}
);
layerId = "9A3F6695-68A9-4551-BE26-76B666927AA0";
paths = (
{
closed = 1;
nodes = (
"62.38 0 LINE",
"284.38 0 LINE",
"284.38 483.881 LINE SMOOTH",
"284.38 526.444 OFFCURVE",
"313.173 543.25 OFFCURVE",
"353.602 534.52 CURVE",
"353.602 719.509 LINE",
"197.805 740 OFFCURVE",
"62.38 691.564 OFFCURVE",
"62.38 510.561 CURVE SMOOTH"
);
},
{
closed = 1;
nodes = (
"12.34 316.086 LINE",
"353.602 316.086 LINE",
"353.602 500.086 LINE",
"12.34 500.086 LINE"
);
}
);
width = 366;
},
{
hints = (
{
place = "{94, 115}";
type = Stem;
},
{
place = "{94, 199}";
type = Stem;
},
{
horizontal = 1;
place = "{400, 99}";
type = Stem;
},
{
horizontal = 1;
place = "{0, 21}";
target = up;
type = BottomGhost;
}
);
layerId = "122FC69B-F67C-4AD1-868A-17406666C75E";
paths = (
{
closed = 1;
nodes = (
"94.21 0 LINE",
"209.1 0 LINE",
"209.1 553.215 LINE SMOOTH",
"209.1 605.581 OFFCURVE",
"230.46 631.53 OFFCURVE",
"292.76 625.53 CURVE",
"292.76 720.31 LINE",
"155.96 730.31 OFFCURVE",
"94.21 669.814 OFFCURVE",
"94.21 553.215 CURVE SMOOTH"
);
},
{
closed = 1;
nodes = (
"34.58 400.39 LINE",
"299.88 400.39 LINE",
"299.88 499.62 LINE",
"34.58 499.62 LINE"
);
}
);
width = 334;
},
{
hints = (
{
place = "{129, 20}";
type = Stem;
},
{
horizontal = 1;
place = "{480, 21}";
type = Stem;
},
{
horizontal = 1;
place = "{500, 200}";
type = Stem;
},
{
horizontal = 1;
place = "{0, 21}";
target = up;
type = BottomGhost;
}
);
layerId = "507F13DB-CCAB-4622-AAF1-433E81077BAF";
paths = (
{
closed = 1;
nodes = (
"129 0 LINE",
"149 0 LINE",
"149 569.259 LINE SMOOTH",
"149 658.568 OFFCURVE",
"182.333 708 OFFCURVE",
"292.519 700 CURVE",
"292.519 720 LINE",
"170.113 730 OFFCURVE",
"129 666.961 OFFCURVE",
"129 569.259 CURVE SMOOTH"
);
},
{
closed = 1;
nodes = (
"42.889 479.558 LINE",
"292.52 479.558 LINE",
"292.52 500.484 LINE",
"42.889 500.484 LINE"
);
}
);
width = 335;
}
);
unicode = 0066;
},
{
glyphname = g;
leftMetricsKey = o;
rightMetricsKey = l;
layers = (
{
anchors = (
{
name = top;
position = "{308, 486}";
}
);
hints = (
{
place = "{17, 225}";
type = Stem;
},
{
place = "{341, 221}";
type = Stem;
},
{
horizontal = 1;
place = "{-202, 165}";
type = Stem;
},
{
horizontal = 1;
place = "{-6, 193}";
type = Stem;
},
{
horizontal = 1;
place = "{314, 193}";
type = Stem;
}
);
layerId = "9A3F6695-68A9-4551-BE26-76B666927AA0";
paths = (
{
closed = 1;
nodes = (
"299.53 -5.838 OFFCURVE",
"351.072 27.023 OFFCURVE",
"377.958 77.809 CURVE",
"341.106 50.573 LINE",
"341.106 46.819 LINE SMOOTH",
"341.106 -35.051 OFFCURVE",
"241.319 -32.386 OFFCURVE",
"157.857 -36.986 CURVE",
"192.087 -201.672 LINE",
"407.266 -195.569 OFFCURVE",
"562.272 -122.381 OFFCURVE",
"562.272 68.487 CURVE SMOOTH",
"562.272 501.086 LINE",
"361.226 501.086 LINE",
"350.723 460.385 LINE",
"321.711 489.487 OFFCURVE",
"280.494 506.924 OFFCURVE",
"229.428 506.924 CURVE SMOOTH",
"110.727 506.924 OFFCURVE",
"16.68 412 OFFCURVE",
"16.68 250.542 CURVE SMOOTH",
"16.68 89.084 OFFCURVE",
"110.727 -5.839 OFFCURVE",
"229.428 -5.838 CURVE SMOOTH"
);
},
{
closed = 1;
nodes = (
"241.182 292.23 OFFCURVE",
"263.117 314.418 OFFCURVE",
"291.144 314.418 CURVE SMOOTH",
"319.171 314.418 OFFCURVE",
"341.106 292.23 OFFCURVE",
"341.106 250.543 CURVE SMOOTH",
"341.106 208.856 OFFCURVE",
"319.171 186.668 OFFCURVE",
"291.144 186.668 CURVE SMOOTH",
"263.117 186.668 OFFCURVE",
"241.182 208.856 OFFCURVE",
"241.182 250.543 CURVE SMOOTH"
);
}
);
width = 590;
},
{
anchors = (
{
name = top;
position = "{312, 496}";
}
);
hints = (
{
place = "{46, 117}";
type = Stem;
},
{
place = "{438, 115}";
type = Stem;
},
{
horizontal = 1;
place = "{-200, 96}";
type = Stem;
},
{
horizontal = 1;
place = "{-8, 98}";
type = Stem;
},
{
horizontal = 1;
place = "{410, 98}";
type = Stem;
}
);
layerId = "122FC69B-F67C-4AD1-868A-17406666C75E";
paths = (
{
closed = 1;
nodes = (
"440.069 438.776 LINE",
"406.051 477.02 OFFCURVE",
"348.567 508.63 OFFCURVE",
"274.6 508.63 CURVE SMOOTH",
"141.913 508.63 OFFCURVE",
"45.83 406.919 OFFCURVE",
"45.83 252.535 CURVE SMOOTH",
"45.83 98.205 OFFCURVE",
"141.913 -8.01 OFFCURVE",
"274.6 -8.01 CURVE",
"356.088 -8.01 OFFCURVE",
"417.151 33.635 OFFCURVE",
"449.354 75.93 CURVE",
"438.32 75.93 LINE",
"438.32 75.124 LINE SMOOTH",
"438.32 -51.798 OFFCURVE",
"319.834 -97.482 OFFCURVE",
"182.007 -104.024 CURVE",
"198.901 -200.333 LINE",
"400.803 -195.553 OFFCURVE",
"553.21 -99.559 OFFCURVE",
"553.21 75.124 CURVE SMOOTH",
"553.21 500.62 LINE",
"447.619 500.62 LINE"
);
},
{
closed = 1;
nodes = (
"162.5 355.119 OFFCURVE",
"223.705 410.29 OFFCURVE",
"295.96 410.29 CURVE SMOOTH",
"369.271 410.29 OFFCURVE",
"438.32 352.512 OFFCURVE",
"438.32 250.755 CURVE SMOOTH",
"438.32 148.117 OFFCURVE",
"369.271 90.33 OFFCURVE",
"295.96 90.33 CURVE SMOOTH",
"223.705 90.33 OFFCURVE",
"162.5 149.863 OFFCURVE",
"162.5 252.535 CURVE SMOOTH"
);
}
);
width = 630;
},
{
anchors = (
{
name = top;
position = "{304, 501}";
}
);
hints = (
{
place = "{57, 20}";
type = Stem;
},
{
place = "{514, 20}";
type = Stem;
},
{
horizontal = 1;
place = "{-200, 212}";
type = Stem;
},
{
horizontal = 1;
place = "{508, -20}";
target = down;
type = TopGhost;
}
);
layerId = "507F13DB-CCAB-4622-AAF1-433E81077BAF";
paths = (
{
closed = 1;
nodes = (
"411.138 -4.972 OFFCURVE",
"487.191 61.453 OFFCURVE",
"514.86 148.562 CURVE",
"513.965 148.562 LINE",
"513.965 121.422 LINE SMOOTH",
"513.965 -104.894 OFFCURVE",
"373.43 -176.158 OFFCURVE",
"197.17 -182.188 CURVE",
"200.193 -200.323 LINE",
"381.573 -194.291 OFFCURVE",
"534.039 -120.729 OFFCURVE",
"534.039 121.422 CURVE SMOOTH",
"534.039 501.484 LINE",
"513.965 501.484 LINE",
"513.965 357.182 LINE",
"485.772 440.709 OFFCURVE",
"410.443 507.965 OFFCURVE",
"294.335 507.965 CURVE SMOOTH",
"150.367 507.965 OFFCURVE",
"56.556 410.462 OFFCURVE",
"56.556 250.742 CURVE SMOOTH",
"56.556 91.022 OFFCURVE",
"150.367 -6.482 OFFCURVE",
"294.335 -6.482 CURVE"
);
},
{
closed = 1;
nodes = (
"76.556 399.356 OFFCURVE",
"157.761 489.817 OFFCURVE",
"294.335 489.817 CURVE SMOOTH",
"424.452 489.817 OFFCURVE",
"513.965 394.741 OFFCURVE",
"513.965 250.742 CURVE SMOOTH",
"513.965 106.743 OFFCURVE",
"424.452 11.667 OFFCURVE",
"294.335 11.667 CURVE SMOOTH",
"157.761 11.667 OFFCURVE",
"76.556 102.128 OFFCURVE",
"76.556 250.742 CURVE SMOOTH"
);
}
);
width = 629;
}
);
unicode = 0067;
},
{
glyphname = gcommaaccent;
leftMetricsKey = g;
rightMetricsKey = g;
layers = (
{
components = (
{
name = g;
alignment = -1;
}
);
hints = (
{
place = "{17, 225}";
type = Stem;
},
{
place = "{214, 174}";
type = Stem;
},
{
place = "{341, 221}";
type = Stem;
},
{
place = "{214, 188}";
type = Stem;
},
{
horizontal = 1;
place = "{-202, 165}";
type = Stem;
},
{
horizontal = 1;
place = "{-6, 193}";
type = Stem;
},
{
horizontal = 1;
place = "{500, 153}";
type = Stem;
},
{
horizontal = 1;
place = "{790, -20}";
target = down;
type = TopGhost;
}
);
layerId = "9A3F6695-68A9-4551-BE26-76B666927AA0";
paths = (
{
closed = 1;
nodes = (
"402.144 499.566 LINE",
"402.144 652.874 LINE",
"342.317 652.858 LINE",
"342.77 658.957 OFFCURVE",
"343.912 664.33 OFFCURVE",
"345.69 669.006 CURVE SMOOTH",
"352.183 686.092 OFFCURVE",
"367.154 693.888 OFFCURVE",
"387.966 693.888 CURVE",
"387.966 789.65 LINE",
"268.332 789.65 OFFCURVE",
"214.338 715.95 OFFCURVE",
"214.338 627.511 CURVE SMOOTH",
"214.338 591.819 OFFCURVE",
"221.704 549.026 OFFCURVE",
"240.647 499.566 CURVE"
);
}
);
width = 590;
},
{
components = (
{
name = g;
alignment = -1;
}
);
hints = (
{
place = "{46, 117}";
type = Stem;
},
{
place = "{218, 70}";
type = Stem;
},
{
place = "{438, 115}";
type = Stem;
},
{
place = "{218, 116}";
type = Stem;
},
{
place = "{218, 112}";
type = Stem;
},
{
horizontal = 1;
place = "{-200, 96}";
type = Stem;
},
{
horizontal = 1;
place = "{-8, 98}";
type = Stem;
},
{
horizontal = 1;
place = "{410, 98}";
type = Stem;
},
{
horizontal = 1;
place = "{531, 97}";
type = Stem;
},
{
horizontal = 1;
place = "{741, -20}";
target = down;
type = TopGhost;
}
);
layerId = "122FC69B-F67C-4AD1-868A-17406666C75E";
paths = (
{
closed = 1;
nodes = (
"333.31 531.33 LINE",
"333.31 627.89 LINE",
"287.03 627.893 LINE",
"287.03 641.465 LINE SMOOTH",
"287.03 671.015 OFFCURVE",
"300.38 686.19 OFFCURVE",
"329.75 686.19 CURVE",
"329.75 740.92 LINE",
"255.605 740.92 OFFCURVE",
"217.53 701.821 OFFCURVE",
"217.53 624.555 CURVE SMOOTH",
"217.53 598.556 OFFCURVE",
"221.451 567.596 OFFCURVE",
"230.272 531.33 CURVE"
);
}
);
width = 630;
},
{
components = (
{
name = g;
transform = "{1, 0, 0, 1, 0.037, 0}";
alignment = -1;
}
);
hints = (
{
place = "{57, 20}";
type = Stem;
},
{
place = "{288, 22}";
type = Stem;
},
{
place = "{514, 20}";
type = Stem;
},
{
horizontal = 1;
place = "{-200, 212}";
type = Stem;
},
{
horizontal = 1;
place = "{490, 197}";
type = Stem;
}
);
layerId = "507F13DB-CCAB-4622-AAF1-433E81077BAF";
paths = (
{
closed = 1;
nodes = (
"344.557 549.076 LINE",
"344.557 599.632 LINE",
"309.372 599.632 LINE",
"309.372 625.743 LINE SMOOTH",
"309.372 652.118 OFFCURVE",
"318.631 666.67 OFFCURVE",
"351.038 666.67 CURVE",
"351.038 686.67 LINE",
"313.117 686.67 OFFCURVE",
"287.52 672.638 OFFCURVE",
"287.52 613.706 CURVE SMOOTH",
"287.52 597.021 OFFCURVE",
"288.464 576.46 OFFCURVE",
"291.297 549.076 CURVE"
);
}
);
width = 629;
}
);
unicode = 0123;
},
{
glyphname = h;
leftMetricsKey = l;
rightMetricsKey = n;
layers = (
{
layerId = "E1E1A4F8-DC94-4278-9AA0-7FD559391106";
name = "Sep 19 17, 16:50";
paths = (
{
closed = 1;
nodes = (
"85 0 LINE",
"105 0 LINE",
"105 740 LINE",
"85 740 LINE"
);
},
{
closed = 1;
nodes = (
"515 0 LINE",
"534 0 LINE",
"534 315 LINE SMOOTH",
"534 482 OFFCURVE",
"435 552 OFFCURVE",
"317 552 CURVE",
"207 552 OFFCURVE",
"99 486 OFFCURVE",
"96 333 CURVE",
"105 287 LINE",
"105 456 OFFCURVE",
"194 534 OFFCURVE",
"317 534 CURVE",
"436 534 OFFCURVE",
"515 461 OFFCURVE",
"515 317 CURVE SMOOTH"
);
}
);
width = 614;
},
{
hints = (
{
place = "{28, 222}";
type = Stem;
},
{
place = "{345, 221}";
type = Stem;
},
{
horizontal = 1;
place = "{720, -20}";
target = down;
type = TopGhost;
},
{
horizontal = 1;
place = "{0, 21}";
target = up;
type = BottomGhost;
}
);
layerId = "9A3F6695-68A9-4551-BE26-76B666927AA0";
paths = (
{
closed = 1;
nodes = (
"27.7 0 LINE",
"249.7 0 LINE",
"249.7 720.073 LINE",
"27.7 720.073 LINE"
);
},
{
closed = 1;
nodes = (
"344.62 0 LINE",
"565.786 0 LINE",
"565.786 288.073 LINE SMOOTH",
"565.786 419.139 OFFCURVE",
"495.604 504.422 OFFCURVE",
"375.556 504.422 CURVE SMOOTH",
"283.185 504.422 OFFCURVE",
"226.013 439.934 OFFCURVE",
"200.202 382.578 CURVE",
"213.222 261.712 LINE",
"249.7 263.213 LINE",
"249.7 299.654 OFFCURVE",
"267.723 321.924 OFFCURVE",
"297.16 321.924 CURVE SMOOTH",
"325.996 321.924 OFFCURVE",
"344.62 300.226 OFFCURVE",
"344.62 264.721 CURVE SMOOTH"
);
}
);
width = 590;
},
{
hints = (
{
place = "{77, 114}";
type = Stem;
},
{
place = "{411, 113}";
type = Stem;
},
{
horizontal = 1;
place = "{410, 98}";
type = Stem;
},
{
horizontal = 1;
place = "{720, -20}";
target = down;
type = TopGhost;
},
{
horizontal = 1;
place = "{0, 21}";
target = up;
type = BottomGhost;
}
);
layerId = "122FC69B-F67C-4AD1-868A-17406666C75E";
paths = (
{
closed = 1;
nodes = (
"76.75 0 LINE",
"190.75 0 LINE",
"190.75 720.011 LINE",
"76.75 720.011 LINE"
);
},
{
closed = 1;
nodes = (
"410.5 0 LINE",
"523.61 0 LINE",
"523.61 294.365 LINE SMOOTH",
"523.61 434.777 OFFCURVE",
"445.398 508.63 OFFCURVE",
"332.22 508.63 CURVE SMOOTH",
"243.829 508.63 OFFCURVE",
"173.72 462.162 OFFCURVE",
"151.415 389.672 CURVE",
"178.848 276.863 LINE",
"190.75 278.032 LINE",
"190.75 365.34 OFFCURVE",
"232.91 410.29 OFFCURVE",
"303.74 410.29 CURVE SMOOTH",
"373.512 410.29 OFFCURVE",
"410.5 365.748 OFFCURVE",
"410.5 279.235 CURVE SMOOTH"
);
}
);
width = 592;
},
{
hints = (
{
place = "{95, 20}";
type = Stem;
},
{
horizontal = 1;
place = "{720, -20}";
target = down;
type = TopGhost;
},
{
horizontal = 1;
place = "{0, 21}";
target = up;
type = BottomGhost;
}
);
layerId = "507F13DB-CCAB-4622-AAF1-433E81077BAF";
paths = (
{
closed = 1;
nodes = (
"94.704 0 LINE",
"114.704 0 LINE",
"114.704 719.67 LINE",
"94.704 719.67 LINE"
);
},
{
closed = 1;
nodes = (
"483.595 0 LINE",
"502.669 0 LINE",
"502.669 282.409 LINE SMOOTH",
"502.669 437.561 OFFCURVE",
"416.231 507.595 OFFCURVE",
"306.557 507.595 CURVE SMOOTH",
"196.893 507.595 OFFCURVE",
"111.392 445.884 OFFCURVE",
"105.813 312.01 CURVE",
"113.245 256.385 LINE",
"114.704 256.385 LINE",
"114.704 412.427 OFFCURVE",
"193.105 490.447 OFFCURVE",
"306.557 490.447 CURVE SMOOTH",
"416.283 490.447 OFFCURVE",
"483.595 417.103 OFFCURVE",
"483.595 284.26 CURVE SMOOTH"
);
}
);
width = 588;
}
);
unicode = 0068;
},
{
glyphname = i;
leftMetricsKey = l;
rightMetricsKey = l;
layers = (
{
anchors = (
{
name = ogonek;
position = "{244, 15}";
}
);
hints = (
{
place = "{27, 250}";
type = Stem;
},
{
place = "{41, 222}";
type = Stem;
},
{
horizontal = 1;
place = "{508, 214}";
type = Stem;
},
{
horizontal = 1;
place = "{0, 21}";
target = up;
type = BottomGhost;
}
);
layerId = "9A3F6695-68A9-4551-BE26-76B666927AA0";
paths = (
{
closed = 1;
nodes = (
"40.7 0 LINE",
"262.7 0 LINE",
"262.7 501.086 LINE",
"40.7 501.086 LINE"
);
},
{
closed = 1;
nodes = (
"228.903 507.906 OFFCURVE",
"276.878 554.7 OFFCURVE",
"276.878 614.167 CURVE SMOOTH",
"276.878 674.452 OFFCURVE",
"228.903 722.096 OFFCURVE",
"152.534 722.096 CURVE SMOOTH",
"75.276 722.096 OFFCURVE",
"27.356 674.452 OFFCURVE",
"27.356 614.167 CURVE SMOOTH",
"27.356 554.7 OFFCURVE",
"75.276 507.906 OFFCURVE",
"152.534 507.906 CURVE SMOOTH"
);
}
);
width = 304;
},
{
anchors = (
{
name = ogonek;
position = "{197, 6}";
}
);
hints = (
{
place = "{76, 142}";
type = Stem;
},
{
place = "{90, 114}";
type = Stem;
},
{
horizontal = 1;
place = "{579, 140}";
type = Stem;
},
{
horizontal = 1;
place = "{0, 21}";
target = up;
type = BottomGhost;
}
);
layerId = "122FC69B-F67C-4AD1-868A-17406666C75E";
paths = (
{
closed = 1;
nodes = (
"89.75 0 LINE",
"203.75 0 LINE",
"203.75 495.62 LINE",
"89.75 495.62 LINE"
);
},
{
closed = 1;
nodes = (
"186.723 579.36 OFFCURVE",
"217.99 610.082 OFFCURVE",
"217.99 649.445 CURVE SMOOTH",
"217.99 688.808 OFFCURVE",
"186.723 719.53 OFFCURVE",
"147.64 719.53 CURVE SMOOTH",
"107.628 719.53 OFFCURVE",
"76.4 688.808 OFFCURVE",
"76.4 649.445 CURVE SMOOTH",
"76.4 610.082 OFFCURVE",
"107.628 579.36 OFFCURVE",
"147.64 579.36 CURVE SMOOTH"
);
}
);
width = 294;
},
{
anchors = (
{
name = ogonek;
position = "{125, 1}";
}
);
hints = (
{
place = "{95, 42}";
type = Stem;
},
{
place = "{106, 20}";
type = Stem;
},
{
horizontal = 1;
place = "{680, -20}";
target = down;
type = TopGhost;
},
{
horizontal = 1;
place = "{0, 21}";
target = up;
type = BottomGhost;
}
);
layerId = "507F13DB-CCAB-4622-AAF1-433E81077BAF";
paths = (
{
closed = 1;
nodes = (
"105.704 0 LINE",
"125.704 0 LINE",
"125.704 501.484 LINE",
"105.704 501.484 LINE"
);
},
{
closed = 1;
nodes = (
"127.01 636.745 OFFCURVE",
"136.701 644.81 OFFCURVE",
"136.701 658.521 CURVE SMOOTH",
"136.701 672.232 OFFCURVE",
"127.01 680.298 OFFCURVE",
"115.704 680.298 CURVE SMOOTH",
"104.398 680.298 OFFCURVE",
"94.707 672.232 OFFCURVE",
"94.707 658.521 CURVE SMOOTH",
"94.707 644.81 OFFCURVE",
"104.398 636.745 OFFCURVE",
"115.704 636.745 CURVE SMOOTH"
);
}
);
width = 231;
}
);
unicode = 0069;
},
{
glyphname = dotlessi;
leftMetricsKey = l;
rightMetricsKey = l;
layers = (
{
anchors = (
{
name = ogonek;
position = "{263, 24}";
},
{
name = top;
position = "{139, 486}";
}
);
hints = (
{
place = "{28, 222}";
type = Stem;
},
{
horizontal = 1;
place = "{0, 21}";
target = up;
type = BottomGhost;
},
{
horizontal = 1;
place = "{501, -20}";
target = down;
type = TopGhost;
}
);
layerId = "9A3F6695-68A9-4551-BE26-76B666927AA0";
paths = (
{
closed = 1;
nodes = (
"27.55 0 LINE",
"249.55 0 LINE",
"249.55 501.086 LINE",
"27.55 501.086 LINE"
);
}
);
width = 277;
},
{
anchors = (
{
name = ogonek;
position = "{228, 14}";
},
{
name = top;
position = "{134, 496}";
}
);
hints = (
{
place = "{77, 114}";
type = Stem;
},
{
horizontal = 1;
place = "{0, 21}";
target = up;
type = BottomGhost;
},
{
horizontal = 1;
place = "{501, -20}";
target = down;
type = TopGhost;
}
);
layerId = "122FC69B-F67C-4AD1-868A-17406666C75E";
paths = (
{
closed = 1;
nodes = (
"76.75 0 LINE",
"190.75 0 LINE",
"190.75 500.62 LINE",
"76.75 500.62 LINE"
);
}
);
width = 267;
},
{
anchors = (
{
name = ogonek;
position = "{168, 10}";
},
{
name = top;
position = "{105, 501}";
}
);
hints = (
{
place = "{95, 20}";
type = Stem;
},
{
horizontal = 1;
place = "{0, 21}";
target = up;
type = BottomGhost;
},
{
horizontal = 1;
place = "{501, -20}";
target = down;
type = TopGhost;
}
);
layerId = "507F13DB-CCAB-4622-AAF1-433E81077BAF";
paths = (
{
closed = 1;
nodes = (
"94.704 0 LINE",
"114.704 0 LINE",
"114.704 501.484 LINE",
"94.704 501.484 LINE"
);
}
);
width = 209;
}
);
unicode = 0131;
},
{
glyphname = j;
rightMetricsKey = l;
layers = (
{
hints = (
{
place = "{60, 250}";
type = Stem;
},
{
place = "{74, 222}";
type = Stem;
},
{
horizontal = 1;
place = "{508, 214}";
type = Stem;
}
);
layerId = "9A3F6695-68A9-4551-BE26-76B666927AA0";
leftMetricsKey = "=l*-1";
paths = (
{
closed = 1;
nodes = (
"73.7 500.086 LINE",
"295.7 500.086 LINE",
"295.7 56.768 LINE SMOOTH",
"295.7 -128.177 OFFCURVE",
"140.932 -194.875 OFFCURVE",
"4.617 -200.246 CURVE",
"-26.894 -14.13 LINE",
"33.269 -5.317 OFFCURVE",
"73.7 22.024 OFFCURVE",
"73.7 56.768 CURVE SMOOTH"
);
},
{
closed = 1;
nodes = (
"261.903 507.906 OFFCURVE",
"309.878 554.7 OFFCURVE",
"309.878 614.167 CURVE SMOOTH",
"309.878 674.452 OFFCURVE",
"261.903 722.096 OFFCURVE",
"185.534 722.096 CURVE SMOOTH",
"108.276 722.096 OFFCURVE",
"60.356 674.452 OFFCURVE",
"60.356 614.167 CURVE SMOOTH",
"60.356 554.7 OFFCURVE",
"108.276 507.906 OFFCURVE",
"185.534 507.906 CURVE SMOOTH"
);
}
);
width = 337;
},
{
hints = (
{
place = "{81, 142}";
type = Stem;
},
{
place = "{95, 114}";
type = Stem;
},
{
horizontal = 1;
place = "{579, 140}";
type = Stem;
}
);
layerId = "122FC69B-F67C-4AD1-868A-17406666C75E";
leftMetricsKey = "=l*-0.3";
paths = (
{
closed = 1;
nodes = (
"94.751 495.62 LINE",
"209.146 495.62 LINE",
"209.146 32.141 LINE SMOOTH",
"209.146 -124.308 OFFCURVE",
"102.579 -196.732 OFFCURVE",
"-5.916 -199.506 CURVE",
"-22.749 -103.462 LINE",
"53.776 -96.082 OFFCURVE",
"94.644 -46.932 OFFCURVE",
"94.66 32.699 CURVE SMOOTH"
);
},
{
closed = 1;
nodes = (
"191.723 579.36 OFFCURVE",
"222.99 610.082 OFFCURVE",
"222.99 649.445 CURVE SMOOTH",
"222.99 688.808 OFFCURVE",
"191.723 719.53 OFFCURVE",
"152.64 719.53 CURVE SMOOTH",
"112.628 719.53 OFFCURVE",
"81.4 688.808 OFFCURVE",
"81.4 649.445 CURVE SMOOTH",
"81.4 610.082 OFFCURVE",
"112.628 579.36 OFFCURVE",
"152.64 579.36 CURVE SMOOTH"
);
}
);
width = 299;
},
{
hints = (
{
place = "{106, 42}";
type = Stem;
},
{
place = "{114, 20}";
type = Stem;
},
{
horizontal = 1;
place = "{680, -20}";
target = down;
type = TopGhost;
}
);
layerId = "507F13DB-CCAB-4622-AAF1-433E81077BAF";
leftMetricsKey = "=l*-0.2";
paths = (
{
closed = 1;
nodes = (
"113.963 501.484 LINE",
"133.963 501.484 LINE",
"133.963 -22.585 LINE SMOOTH",
"133.963 -138.05 OFFCURVE",
"66.478 -193.75 OFFCURVE",
"-15.544 -200.229 CURVE",
"-18.564 -182.109 LINE",
"59.866 -174.688 OFFCURVE",
"113.963 -117.148 OFFCURVE",
"113.963 -22.585 CURVE SMOOTH"
);
},
{
closed = 1;
nodes = (
"138.01 636.745 OFFCURVE",
"147.701 644.81 OFFCURVE",
"147.701 658.521 CURVE SMOOTH",
"147.701 672.232 OFFCURVE",
"138.01 680.298 OFFCURVE",
"126.704 680.298 CURVE SMOOTH",
"115.398 680.298 OFFCURVE",
"105.707 672.232 OFFCURVE",
"105.707 658.521 CURVE SMOOTH",
"105.707 644.81 OFFCURVE",
"115.398 636.745 OFFCURVE",
"126.704 636.745 CURVE SMOOTH"
);
}
);
width = 242;
}
);
unicode = 006A;
},
{
glyphname = k;
leftMetricsKey = l;
rightMetricsKey = "l*0.2";
layers = (
{
anchors = (
{
name = bottom;
position = "{294, 15}";
}
);
hints = (
{
place = "{28, 222}";
type = Stem;
},
{
horizontal = 1;
place = "{0, 21}";
target = up;
type = BottomGhost;
},
{
horizontal = 1;
place = "{720, -20}";
target = down;
type = TopGhost;
}
);
layerId = "9A3F6695-68A9-4551-BE26-76B666927AA0";
paths = (
{
closed = 1;
nodes = (
"27.7 0 LINE",
"249.7 0 LINE",
"249.7 720.02 LINE",
"27.7 720.02 LINE"
);
},
{
closed = 1;
nodes = (
"438.669 249.261 LINE",
"626.034 500.086 LINE",
"369.034 500.086 LINE",
"207.152 258.263 LINE",
"366.902 0 LINE",
"630.826 0 LINE"
);
},
{
closed = 1;
nodes = (
"177.152 165.173 LINE",
"352.852 165.173 LINE",
"352.852 341.545 LINE",
"177.152 341.545 LINE"
);
}
);
width = 636;
},
{
anchors = (
{
name = bottom;
position = "{263, 5}";
}
);
hints = (
{
place = "{77, 114}";
type = Stem;
},
{
horizontal = 1;
place = "{0, 21}";
target = up;
type = BottomGhost;
},
{
horizontal = 1;
place = "{720, -20}";
target = down;
type = TopGhost;
}
);
layerId = "122FC69B-F67C-4AD1-868A-17406666C75E";
paths = (
{
closed = 1;
nodes = (
"76.75 0 LINE",
"190.75 0 LINE",
"190.75 720.026 LINE",
"76.75 720.026 LINE"
);
},
{
closed = 1;
nodes = (
"324.349 250.139 LINE",
"555.37 501.62 LINE",
"399.431 501.62 LINE",
"189.551 248.038 LINE",
"403.064 0 LINE",
"555.38 0 LINE"
);
},
{
closed = 1;
nodes = (
"99 203 LINE",
"294.447 203 LINE",
"294.447 296 LINE",
"99 296 LINE"
);
}
);
width = 571;
},
{
anchors = (
{
name = bottom;
position = "{206, 1}";
}
);
hints = (
{
place = "{95, 20}";
type = Stem;
},
{
horizontal = 1;
place = "{0, 21}";
target = up;
type = BottomGhost;
},
{
horizontal = 1;
place = "{687, -20}";
target = down;
type = TopGhost;
}
);
layerId = "507F13DB-CCAB-4622-AAF1-433E81077BAF";
paths = (
{
closed = 1;
nodes = (
"94.704 0 LINE",
"114.704 0 LINE",
"114.704 686.67 LINE",
"94.704 686.67 LINE"
);
},
{
closed = 1;
nodes = (
"191.771 253.003 LINE",
"438.501 501.484 LINE",
"411.601 501.484 LINE",
"166.424 253.52 LINE",
"415.23 0 LINE",
"442.201 0 LINE"
);
},
{
closed = 1;
nodes = (
"104 245 LINE",
"181 245 LINE",
"181 264 LINE",
"104 264 LINE"
);
}
);
width = 461;
}
);
unicode = 006B;
},
{
glyphname = kcommaaccent;
leftMetricsKey = l;
rightMetricsKey = k;
layers = (
{
components = (
{
name = k;
alignment = -1;
}
);
hints = (
{
place = "{28, 222}";
type = Stem;
},
{
place = "{219, 188}";
type = Stem;
},
{
place = "{233, 174}";
type = Stem;
},
{
horizontal = 1;
place = "{-152, 153}";
type = Stem;
},
{
horizontal = 1;
place = "{720, -20}";
target = down;
type = TopGhost;
},
{
horizontal = 1;
place = "{-289, 21}";
target = up;
type = BottomGhost;
}
);
layerId = "9A3F6695-68A9-4551-BE26-76B666927AA0";
paths = (
{
closed = 1;
nodes = (
"218.508 1.52 LINE",
"218.508 -151.788 LINE",
"275.45 -151.788 LINE",
"278.301 -152.213 LINE",
"277.836 -158.01 OFFCURVE",
"276.743 -163.143 OFFCURVE",
"275.068 -167.64 CURVE SMOOTH",
"268.632 -184.92 OFFCURVE",
"253.611 -192.802 OFFCURVE",
"232.686 -192.802 CURVE",
"232.686 -288.564 LINE",
"352.32 -288.564 OFFCURVE",
"406.314 -214.864 OFFCURVE",
"406.314 -126.425 CURVE SMOOTH",
"406.314 -90.733 OFFCURVE",
"398.948 -47.94 OFFCURVE",
"380.005 1.52 CURVE"
);
}
);
width = 636;
},
{
components = (
{
name = k;
alignment = -1;
}
);
hints = (
{
place = "{77, 114}";
type = Stem;
},
{
place = "{199, 116}";
type = Stem;
},
{
place = "{203, 112}";
type = Stem;
},
{
horizontal = 1;
place = "{-126, 96}";
type = Stem;
},
{
horizontal = 1;
place = "{720, -20}";
target = down;
type = TopGhost;
},
{
horizontal = 1;
place = "{-240, 21}";
target = up;
type = BottomGhost;
}
);
layerId = "122FC69B-F67C-4AD1-868A-17406666C75E";
paths = (
{
closed = 1;
nodes = (
"199.47 -30.71 LINE",
"199.47 -126.38 LINE",
"246.64 -126.38 LINE",
"246.43 -146.119 LINE",
"246.046 -151.55 OFFCURVE",
"245.135 -156.42 OFFCURVE",
"243.69 -160.729 CURVE SMOOTH",
"238.138 -177.29 OFFCURVE",
"224.704 -185.57 OFFCURVE",
"203.03 -185.57 CURVE",
"203.03 -240.3 LINE",
"277.175 -240.3 OFFCURVE",
"315.25 -201.201 OFFCURVE",
"315.25 -123.935 CURVE SMOOTH",
"315.25 -97.936 OFFCURVE",
"311.329 -66.976 OFFCURVE",
"302.508 -30.71 CURVE"
);
}
);
width = 571;
},
{
components = (
{
name = k;
alignment = -1;
}
);
hints = (
{
place = "{95, 20}";
type = Stem;
},
{
horizontal = 1;
place = "{-163, 21}";
target = up;
type = BottomGhost;
},
{
horizontal = 1;
place = "{687, -20}";
target = down;
type = TopGhost;
}
);
layerId = "507F13DB-CCAB-4622-AAF1-433E81077BAF";
paths = (
{
closed = 1;
nodes = (
"163.89 -53.148 LINE",
"163.89 -89.815 LINE",
"192.593 -89.815 LINE",
"192.44 -101.715 LINE",
"192.158 -107.194 OFFCURVE",
"191.476 -112.248 OFFCURVE",
"190.329 -116.819 CURVE SMOOTH",
"185.92 -134.383 OFFCURVE",
"174.644 -144.816 OFFCURVE",
"152.778 -144.816 CURVE",
"152.778 -162.964 LINE",
"186.932 -162.964 OFFCURVE",
"214.445 -148.946 OFFCURVE",
"214.445 -82.593 CURVE SMOOTH",
"214.445 -74.236 OFFCURVE",
"213.48 -61.835 OFFCURVE",
"212.515 -53.148 CURVE"
);
}
);
width = 461;
}
);
unicode = 0137;
},
{
glyphname = l;
leftMetricsKey = "H*0.9";
rightMetricsKey = "H*0.9";
layers = (
{
anchors = (
{
name = bottom;
position = "{140, 15}";
},
{
name = commaaccent;
position = "{140, 24}";
},
{
name = top;
position = "{140, 721}";
},
{
name = topright;
position = "{277, 486}";
}
);
hints = (
{
place = "{28, 222}";
type = Stem;
},
{
horizontal = 1;
place = "{0, 21}";
target = up;
type = BottomGhost;
},
{
horizontal = 1;
place = "{720, -20}";
target = down;
type = TopGhost;
}
);
layerId = "9A3F6695-68A9-4551-BE26-76B666927AA0";
paths = (
{
closed = 1;
nodes = (
"27.7 0 LINE",
"249.7 0 LINE",
"249.7 720 LINE",
"27.7 720 LINE"
);
}
);
width = 277;
},
{
anchors = (
{
name = bottom;
position = "{134, 5}";
},
{
name = commaaccent;
position = "{134, 14}";
},
{
name = top;
position = "{134, 720}";
},
{
name = topright;
position = "{233, 496}";
}
);
hints = (
{
place = "{77, 114}";
type = Stem;
},
{
horizontal = 1;
place = "{0, 21}";
target = up;
type = BottomGhost;
},
{
horizontal = 1;
place = "{720, -20}";
target = down;
type = TopGhost;
}
);
layerId = "122FC69B-F67C-4AD1-868A-17406666C75E";
paths = (
{
closed = 1;
nodes = (
"76.75 0 LINE",
"190.75 0 LINE",
"190.75 720.055 LINE",
"76.75 720.055 LINE"
);
}
);
width = 267;
},
{
anchors = (
{
name = bottom;
position = "{105, 1}";
},
{
name = commaaccent;
position = "{105, 10}";
},
{
name = top;
position = "{105, 723}";
},
{
name = topright;
position = "{165, 501}";
}
);
hints = (
{
place = "{95, 20}";
type = Stem;
},
{
horizontal = 1;
place = "{0, 21}";
target = up;
type = BottomGhost;
},
{
horizontal = 1;
place = "{720, -20}";
target = down;
type = TopGhost;
}
);
layerId = "507F13DB-CCAB-4622-AAF1-433E81077BAF";
paths = (
{
closed = 1;
nodes = (
"94.704 0 LINE",
"114.704 0 LINE",
"114.704 720 LINE",
"94.704 720.086 LINE"
);
}
);
width = 209;
}
);
unicode = 006C;
},
{
glyphname = lcaron;
leftMetricsKey = l;
rightMetricsKey = l;
layers = (
{
components = (
{
name = l;
alignment = -1;
}
);
hints = (
{
place = "{28, 222}";
type = Stem;
},
{
place = "{271, 188}";
type = Stem;
},
{
place = "{285, 174}";
type = Stem;
},
{
horizontal = 1;
place = "{495, 152}";
type = Stem;
},
{
horizontal = 1;
place = "{720, -20}";
target = down;
type = TopGhost;
},
{
horizontal = 1;
place = "{0, 21}";
target = up;
type = BottomGhost;
}
);
layerId = "9A3F6695-68A9-4551-BE26-76B666927AA0";
paths = (
{
closed = 1;
nodes = (
"271.05 647.87 LINE",
"271.05 495.396 LINE",
"367.95 495.396 LINE",
"367.95 510.751 LINE",
"331.098 510.751 LINE",
"331.098 500.743 LINE SMOOTH",
"331.098 468.791 OFFCURVE",
"313.584 454.382 OFFCURVE",
"285.228 454.382 CURVE",
"285.228 357.786 LINE",
"404.862 357.786 OFFCURVE",
"458.856 431.446 OFFCURVE",
"458.856 520.759 CURVE SMOOTH",
"458.856 556.468 OFFCURVE",
"451.46 599.269 OFFCURVE",
"432.442 647.87 CURVE"
);
}
);
width = 486;
},
{
components = (
{
name = l;
transform = "{1, 0, 0, 1, -0.2, 0}";
alignment = -1;
}
);
hints = (
{
place = "{77, 114}";
type = Stem;
},
{
place = "{238, 117}";
type = Stem;
},
{
place = "{242, 112}";
type = Stem;
},
{
place = "{285, 70}";
type = Stem;
},
{
horizontal = 1;
place = "{572, 97}";
type = Stem;
},
{
horizontal = 1;
place = "{720, -20}";
target = down;
type = TopGhost;
},
{
horizontal = 1;
place = "{0, 21}";
target = up;
type = BottomGhost;
}
);
layerId = "122FC69B-F67C-4AD1-868A-17406666C75E";
paths = (
{
closed = 1;
nodes = (
"237.63 668.83 LINE",
"237.63 572.27 LINE",
"297.34 572.27 LINE",
"297.34 577.385 LINE",
"284.8 577.385 LINE",
"284.8 558.695 LINE SMOOTH",
"284.8 529.145 OFFCURVE",
"271.45 513.97 OFFCURVE",
"242.08 513.97 CURVE",
"242.08 459.24 LINE",
"316.225 459.24 OFFCURVE",
"354.3 498.353 OFFCURVE",
"354.3 574.715 CURVE SMOOTH",
"354.3 601.623 OFFCURVE",
"350.371 632.485 OFFCURVE",
"340.548 668.83 CURVE"
);
}
);
width = 431;
},
{
components = (
{
name = l;
alignment = -1;
}
);
hints = (
{
place = "{95, 20}";
type = Stem;
},
{
place = "{185, 22}";
type = Stem;
},
{
horizontal = 1;
place = "{0, 21}";
target = up;
type = BottomGhost;
},
{
horizontal = 1;
place = "{720, -20}";
target = down;
type = TopGhost;
}
);
layerId = "507F13DB-CCAB-4622-AAF1-433E81077BAF";
paths = (
{
closed = 1;
nodes = (
"150 686.67 LINE",
"150 636.114 LINE",
"185.185 636.114 LINE",
"185.185 610.003 LINE SMOOTH",
"185.185 583.628 OFFCURVE",
"175.926 569.076 OFFCURVE",
"143.518 569.076 CURVE",
"143.518 549.076 LINE",
"181.44 549.076 OFFCURVE",
"207.037 563.108 OFFCURVE",
"207.037 622.04 CURVE SMOOTH",
"207.037 638.725 OFFCURVE",
"206.093 659.286 OFFCURVE",
"203.26 686.67 CURVE"
);
}
);
width = 302;
}
);
unicode = 013E;
},
{
glyphname = lcommaaccent;
leftMetricsKey = l;
rightMetricsKey = l;
layers = (
{
components = (
{
name = l;
alignment = -1;
}
);
hints = (
{
place = "{28, 222}";
type = Stem;
},
{
place = "{73, 188}";
type = Stem;
},
{
place = "{87, 174}";
type = Stem;
},
{
horizontal = 1;
place = "{720, -20}";
target = down;
type = TopGhost;
},
{
horizontal = 1;
place = "{-289, 21}";
target = up;
type = BottomGhost;
}
);
layerId = "9A3F6695-68A9-4551-BE26-76B666927AA0";
paths = (
{
closed = 1;
nodes = (
"72.558 1.52 LINE",
"72.558 -151.788 LINE",
"169.458 -151.788 LINE",
"169.458 -136.433 LINE",
"132.606 -136.433 LINE",
"132.606 -145.607 LINE SMOOTH",
"132.606 -178.329 OFFCURVE",
"115.092 -192.802 OFFCURVE",
"86.736 -192.802 CURVE",
"86.736 -288.564 LINE",
"206.37 -288.564 OFFCURVE",
"260.364 -214.864 OFFCURVE",
"260.364 -126.425 CURVE SMOOTH",
"260.364 -90.733 OFFCURVE",
"252.998 -47.94 OFFCURVE",
"234.055 1.52 CURVE"
);
}
);
width = 288;
},
{
components = (
{
name = l;
transform = "{1, 0, 0, 1, 6.8, 0}";
alignment = -1;
}
);
hints = (
{
place = "{76, 117}";
type = Stem;
},
{
place = "{80, 113}";
type = Stem;
},
{
place = "{84, 114}";
type = Stem;
},
{
place = "{124, 70}";
type = Stem;
},
{
horizontal = 1;
place = "{-126, 96}";
type = Stem;
},
{
horizontal = 1;
place = "{720, -20}";
target = down;
type = TopGhost;
},
{
horizontal = 1;
place = "{-240, 21}";
target = up;
type = BottomGhost;
}
);
layerId = "122FC69B-F67C-4AD1-868A-17406666C75E";
paths = (
{
closed = 1;
nodes = (
"76.42 -30.71 LINE",
"76.42 -126.38 LINE",
"136.13 -126.38 LINE",
"136.13 -121.265 LINE",
"123.59 -121.265 LINE",
"123.59 -139.955 LINE SMOOTH",
"123.59 -170.365 OFFCURVE",
"110.24 -185.57 OFFCURVE",
"79.98 -185.57 CURVE",
"79.98 -240.3 LINE",
"154.052 -240.3 OFFCURVE",
"193.09 -201.201 OFFCURVE",
"193.09 -123.935 CURVE SMOOTH",
"193.09 -97.917 OFFCURVE",
"188.221 -66.737 OFFCURVE",
"179.458 -30.71 CURVE"
);
}
);
width = 274;
},
{
components = (
{
name = l;
transform = "{1, 0, 0, 1, 44, 0}";
alignment = -1;
}
);
hints = (
{
place = "{135, 22}";
type = Stem;
},
{
place = "{139, 20}";
type = Stem;
},
{
horizontal = 1;
place = "{-163, 21}";
target = up;
type = BottomGhost;
},
{
horizontal = 1;
place = "{720, -20}";
target = down;
type = TopGhost;
}
);
layerId = "507F13DB-CCAB-4622-AAF1-433E81077BAF";
paths = (
{
closed = 1;
nodes = (
"106.037 -53.148 LINE",
"106.037 -89.815 LINE",
"134.741 -89.815 LINE",
"134.741 -95.556 LINE SMOOTH",
"134.741 -125.659 OFFCURVE",
"124.556 -144.816 OFFCURVE",
"94.926 -144.816 CURVE",
"94.926 -162.964 LINE",
"129.08 -162.964 OFFCURVE",
"156.593 -148.946 OFFCURVE",
"156.593 -82.593 CURVE SMOOTH",
"156.593 -74.236 OFFCURVE",
"155.628 -61.835 OFFCURVE",
"154.663 -53.148 CURVE"
);
}
);
width = 253;
}
);
unicode = 013C;
},
{
color = 4;
glyphname = ldot;
leftMetricsKey = l;
rightMetricsKey = "=l*-0.5";
layers = (
{
hints = (
{
place = "{28, 222}";
type = Stem;
},
{
horizontal = 1;
place = "{231, 174}";
type = Stem;
},
{
horizontal = 1;
place = "{720, -20}";
target = down;
type = TopGhost;
},
{
horizontal = 1;
place = "{0, 21}";
target = up;
type = BottomGhost;
}
);
layerId = "9A3F6695-68A9-4551-BE26-76B666927AA0";
paths = (
{
closed = 1;
nodes = (
"249.7 0 LINE",
"249.7 720.144 LINE",
"27.7 720.144 LINE",
"27.7 0 LINE"
);
},
{
closed = 1;
nodes = (
"373.636 231.018 OFFCURVE",
"412.33 268.56 OFFCURVE",
"412.33 317.263 CURVE SMOOTH",
"412.33 367.788 OFFCURVE",
"373.636 405.176 OFFCURVE",
"321.346 405.176 CURVE SMOOTH",
"270.909 405.176 OFFCURVE",
"232.03 367.788 OFFCURVE",
"232.03 317.263 CURVE SMOOTH",
"232.03 268.56 OFFCURVE",
"270.909 231.018 OFFCURVE",
"321.346 231.018 CURVE SMOOTH"
);
}
);
width = 399;
},
{
hints = (
{
place = "{77, 114}";
type = Stem;
},
{
place = "{213, 119}";
type = Stem;
},
{
horizontal = 1;
place = "{271, 117}";
type = Stem;
},
{
horizontal = 1;
place = "{720, -20}";
target = down;
type = TopGhost;
},
{
horizontal = 1;
place = "{0, 21}";
target = up;
type = BottomGhost;
}
);
layerId = "122FC69B-F67C-4AD1-868A-17406666C75E";
paths = (
{
closed = 1;
nodes = (
"190.75 0 LINE",
"190.75 720.055 LINE",
"76.75 720.055 LINE",
"76.75 0 LINE"
);
},
{
closed = 1;
nodes = (
"305.409 271.45 OFFCURVE",
"332.26 296.806 OFFCURVE",
"332.26 329.965 CURVE SMOOTH",
"332.26 362.148 OFFCURVE",
"305.409 388.48 OFFCURVE",
"272.59 388.48 CURVE SMOOTH",
"238.777 388.48 OFFCURVE",
"212.92 362.148 OFFCURVE",
"212.92 329.965 CURVE SMOOTH",
"212.92 296.806 OFFCURVE",
"238.777 271.45 OFFCURVE",
"272.59 271.45 CURVE SMOOTH"
);
}
);
width = 294;
},
{
hints = (
{
place = "{95, 20}";
type = Stem;
},
{
place = "{189, 57}";
type = Stem;
},
{
horizontal = 1;
place = "{317, 57}";
type = Stem;
},
{
horizontal = 1;
place = "{687, -20}";
target = down;
type = TopGhost;
},
{
horizontal = 1;
place = "{0, 21}";
target = up;
type = BottomGhost;
}
);
layerId = "507F13DB-CCAB-4622-AAF1-433E81077BAF";
paths = (
{
closed = 1;
nodes = (
"114.704 0 LINE",
"114.704 686.67 LINE",
"94.704 686.67 LINE",
"94.704 0 LINE"
);
},
{
closed = 1;
nodes = (
"232.877 316.668 OFFCURVE",
"246.186 329.977 OFFCURVE",
"246.186 345.187 CURVE SMOOTH",
"246.186 360.397 OFFCURVE",
"232.877 373.705 OFFCURVE",
"217.668 373.705 CURVE SMOOTH",
"202.458 373.705 OFFCURVE",
"189.149 360.397 OFFCURVE",
"189.149 345.187 CURVE SMOOTH",
"189.149 329.977 OFFCURVE",
"202.458 316.668 OFFCURVE",
"217.668 316.668 CURVE SMOOTH"
);
}
);
width = 199;
}
);
unicode = 0140;
},
{
glyphname = lslash;
leftMetricsKey = "l*0.1";
rightMetricsKey = "l*0.1";
layers = (
{
hints = (
{
place = "{57, 222}";
type = Stem;
},
{
horizontal = 1;
place = "{720, -20}";
target = down;
type = TopGhost;
},
{
horizontal = 1;
place = "{0, 21}";
target = up;
type = BottomGhost;
}
);
layerId = "9A3F6695-68A9-4551-BE26-76B666927AA0";
paths = (
{
closed = 1;
nodes = (
"2.34 195.331 LINE",
"332.76 286.384 LINE",
"332.76 481.729 LINE",
"2.34 390.676 LINE"
);
},
{
closed = 1;
nodes = (
"56.55 0 LINE",
"278.55 0 LINE",
"278.55 720.144 LINE",
"56.55 720.144 LINE"
);
}
);
width = 335;
},
{
hints = (
{
place = "{7, 173}";
type = Stem;
},
{
place = "{66, 114}";
type = Stem;
},
{
place = "{66, 174}";
type = Stem;
},
{
horizontal = 1;
place = "{720, -20}";
target = down;
type = TopGhost;
},
{
horizontal = 1;
place = "{0, 21}";
target = up;
type = BottomGhost;
}
);
layerId = "122FC69B-F67C-4AD1-868A-17406666C75E";
paths = (
{
closed = 1;
nodes = (
"7.01 240.459 LINE",
"239.38 320.424 LINE",
"239.38 408.758 LINE",
"7.01 329.733 LINE"
);
},
{
closed = 1;
nodes = (
"65.75 0 LINE",
"179.75 0 LINE",
"179.75 720.207 LINE",
"65.75 720.207 LINE"
);
}
);
width = 247;
},
{
hints = (
{
place = "{88, 20}";
type = Stem;
},
{
horizontal = 1;
place = "{687, -20}";
target = down;
type = TopGhost;
},
{
horizontal = 1;
place = "{0, 21}";
target = up;
type = BottomGhost;
}
);
layerId = "507F13DB-CCAB-4622-AAF1-433E81077BAF";
paths = (
{
closed = 1;
nodes = (
"9.259 390.216 LINE",
"186.667 491.993 LINE",
"186.667 511.269 LINE",
"9.259 409.493 LINE"
);
},
{
closed = 1;
nodes = (
"87.963 0 LINE",
"107.963 0 LINE",
"107.963 686.67 LINE",
"87.963 686.67 LINE"
);
}
);
width = 196;
}
);
unicode = 0142;
},
{
glyphname = m;
leftMetricsKey = l;
rightMetricsKey = "l*0.9";
layers = (
{
layerId = "35F8BAEB-74B4-4F8B-AD9E-1A352FEA8952";
name = "Sep 19 17, 16:54";
paths = (
{
closed = 1;
nodes = (
"85 0 LINE",
"105 0 LINE",
"105 540 LINE",
"85 540 LINE"
);
},
{
closed = 1;
nodes = (
"495 0 LINE",
"514 0 LINE",
"514 315 LINE SMOOTH",
"514 482 OFFCURVE",
"420 552 OFFCURVE",
"309 552 CURVE",
"203 552 OFFCURVE",
"102 485 OFFCURVE",
"97 325 CURVE",
"105 287 LINE",
"105 456 OFFCURVE",
"191 534 OFFCURVE",
"309 534 CURVE",
"421 534 OFFCURVE",
"495 461 OFFCURVE",
"495 317 CURVE SMOOTH"
);
},
{
closed = 1;
nodes = (
"904 0 LINE",
"923 0 LINE",
"923 315 LINE SMOOTH",
"923 482 OFFCURVE",
"829 552 OFFCURVE",
"718 552 CURVE",
"611 552 OFFCURVE",
"509 485 OFFCURVE",
"504 325 CURVE",
"514 287 LINE",
"514 456 OFFCURVE",
"600 534 OFFCURVE",
"718 534 CURVE",
"830 534 OFFCURVE",
"904 461 OFFCURVE",
"904 317 CURVE SMOOTH"
);
}
);
width = 1003;
},
{
layerId = "C602B31B-3BF5-412B-8808-E5FB776E2069";
name = "Sep 19 17, 16:56.1";
paths = (
{
closed = 1;
nodes = (
"85 0 LINE",
"105 0 LINE",
"105 540 LINE",
"85 540 LINE"
);
},
{
closed = 1;
nodes = (
"495 0 LINE",
"514 0 LINE",
"514 315 LINE SMOOTH",
"514 482 OFFCURVE",
"420 552 OFFCURVE",
"308 552 CURVE SMOOTH",
"196 552 OFFCURVE",
"102 485 OFFCURVE",
"95 327 CURVE",
"105 282 LINE",
"105 452 OFFCURVE",
"191 534 OFFCURVE",
"308 534 CURVE SMOOTH",
"421 534 OFFCURVE",
"495 461 OFFCURVE",
"495 317 CURVE SMOOTH"
);
},
{
closed = 1;
nodes = (
"904 0 LINE",
"923 0 LINE",
"923 315 LINE SMOOTH",
"923 482 OFFCURVE",
"829 552 OFFCURVE",
"717 552 CURVE SMOOTH",
"604 552 OFFCURVE",
"509 485 OFFCURVE",
"502 327 CURVE",
"514 282 LINE",
"514 452 OFFCURVE",
"601 534 OFFCURVE",
"717 534 CURVE SMOOTH",
"830 534 OFFCURVE",
"904 461 OFFCURVE",
"904 317 CURVE SMOOTH"
);
}
);
width = 1003;
},
{
layerId = "F9361BA0-93E5-4553-85B6-E32AA3D3F39B";
name = "Sep 19 17, 16:56";
paths = (
{
closed = 1;
nodes = (
"75 0 LINE",
"189 0 LINE",
"189 551 LINE",
"75 551 LINE"
);
},
{
closed = 1;
nodes = (
"466 0 LINE",
"579 0 LINE",
"579 325 LINE SMOOTH",
"579 479 OFFCURVE",
"483 560 OFFCURVE",
"365 560 CURVE SMOOTH",
"266 560 OFFCURVE",
"187 504 OFFCURVE",
"165 400 CURVE",
"189 308 LINE",
"189 409 OFFCURVE",
"244 461 OFFCURVE",
"328 461 CURVE SMOOTH",
"411 461 OFFCURVE",
"466 409 OFFCURVE",
"466 308 CURVE SMOOTH"
);
},
{
closed = 1;
nodes = (
"855 0 LINE",
"969 0 LINE",
"969 325 LINE SMOOTH",
"969 479 OFFCURVE",
"874 560 OFFCURVE",
"752 560 CURVE SMOOTH",
"643 560 OFFCURVE",
"561 491 OFFCURVE",
"534 389 CURVE",
"579 308 LINE",
"579 409 OFFCURVE",
"634 461 OFFCURVE",
"717 461 CURVE SMOOTH",
"801 461 OFFCURVE",
"855 409 OFFCURVE",
"855 308 CURVE SMOOTH"
);
}
);
width = 1039;
},
{
hints = (
{
place = "{28, 222}";
type = Stem;
},
{
place = "{345, 221}";
type = Stem;
},
{
place = "{661, 221}";
type = Stem;
},
{
horizontal = 1;
place = "{314, 191}";
type = Stem;
},
{
horizontal = 1;
place = "{0, 21}";
target = up;
type = BottomGhost;
}
);
layerId = "9A3F6695-68A9-4551-BE26-76B666927AA0";
paths = (
{
closed = 1;
nodes = (
"27.7 0 LINE",
"249.7 0 LINE",
"249.7 422.697 LINE",
"229.171 501.086 LINE",
"27.7 501.086 LINE"
);
},
{
closed = 1;
nodes = (
"344.62 0 LINE",
"565.786 0 LINE",
"565.786 288.073 LINE SMOOTH",
"565.786 419.139 OFFCURVE",
"487.645 504.422 OFFCURVE",
"367.216 504.422 CURVE SMOOTH",
"288.134 504.422 OFFCURVE",
"228.667 453.563 OFFCURVE",
"200.209 390.957 CURVE",
"213.178 261.896 LINE",
"249.7 263.305 LINE",
"249.7 294.648 OFFCURVE",
"267.723 313.584 OFFCURVE",
"297.16 313.584 CURVE SMOOTH",
"325.996 313.584 OFFCURVE",
"344.62 295.181 OFFCURVE",
"344.62 264.721 CURVE SMOOTH"
);
},
{
closed = 1;
nodes = (
"660.706 0 LINE",
"881.872 0 LINE",
"881.872 288.073 LINE SMOOTH",
"881.872 419.139 OFFCURVE",
"807.743 504.422 OFFCURVE",
"674.128 504.422 CURVE SMOOTH",
"580.493 504.422 OFFCURVE",
"511.725 427.416 OFFCURVE",
"481.525 361.354 CURVE",
"534.559 252.928 LINE",
"565.786 258.566 LINE",
"565.786 292.863 OFFCURVE",
"583.809 313.584 OFFCURVE",
"613.246 313.584 CURVE SMOOTH",
"642.082 313.584 OFFCURVE",
"660.706 295.181 OFFCURVE",
"660.706 264.721 CURVE SMOOTH"
);
}
);
width = 906;
},
{
hints = (
{
place = "{77, 114}";
type = Stem;
},
{
place = "{410, 113}";
type = Stem;
},
{
place = "{743, 113}";
type = Stem;
},
{
horizontal = 1;
place = "{410, 98}";
type = Stem;
},
{
horizontal = 1;
place = "{0, 21}";
target = up;
type = BottomGhost;
}
);
layerId = "122FC69B-F67C-4AD1-868A-17406666C75E";
paths = (
{
closed = 1;
nodes = (
"76.75 0 LINE",
"190.75 0 LINE",
"190.75 439.524 LINE",
"181.069 500.62 LINE",
"76.75 500.62 LINE"
);
},
{
closed = 1;
nodes = (
"409.61 0 LINE",
"522.72 0 LINE",
"522.72 294.365 LINE SMOOTH",
"522.72 434.777 OFFCURVE",
"443.672 508.63 OFFCURVE",
"325.1 508.63 CURVE SMOOTH",
"244.969 508.63 OFFCURVE",
"174.102 463.406 OFFCURVE",
"151.415 389.672 CURVE",
"178.848 276.863 LINE",
"190.75 278.032 LINE",
"190.75 365.34 OFFCURVE",
"232.91 410.29 OFFCURVE",
"303.74 410.29 CURVE SMOOTH",
"373.48 410.29 OFFCURVE",
"409.61 365.748 OFFCURVE",
"409.61 279.235 CURVE SMOOTH"
);
},
{
closed = 1;
nodes = (
"743.36 0 LINE",
"856.47 0 LINE",
"856.47 294.365 LINE SMOOTH",
"856.47 434.777 OFFCURVE",
"775.607 508.63 OFFCURVE",
"657.07 508.63 CURVE SMOOTH",
"576.154 508.63 OFFCURVE",
"499.645 469.478 OFFCURVE",
"473.544 396.768 CURVE",
"511.189 276.269 LINE",
"522.72 277.718 LINE",
"522.72 365.233 OFFCURVE",
"564.88 410.29 OFFCURVE",
"635.71 410.29 CURVE SMOOTH",
"705.514 410.29 OFFCURVE",
"743.36 365.748 OFFCURVE",
"743.36 279.235 CURVE SMOOTH"
);
}
);
width = 925;
},
{
hints = (
{
place = "{95, 20}";
type = Stem;
},
{
horizontal = 1;
place = "{508, -20}";
target = down;
type = TopGhost;
},
{
horizontal = 1;
place = "{0, 21}";
target = up;
type = BottomGhost;
}
);
layerId = "507F13DB-CCAB-4622-AAF1-433E81077BAF";
paths = (
{
closed = 1;
nodes = (
"94.704 0 LINE",
"114.704 0 LINE",
"114.704 371.748 LINE",
"114.704 501.484 LINE",
"94.704 501.484 LINE"
);
},
{
closed = 1;
nodes = (
"465.076 0 LINE",
"484.15 0 LINE",
"484.15 282.409 LINE SMOOTH",
"484.15 437.561 OFFCURVE",
"400.486 507.595 OFFCURVE",
"296.372 507.595 CURVE SMOOTH",
"162.222 507.595 OFFCURVE",
"109.224 412.274 OFFCURVE",
"103.96 293.465 CURVE",
"113.283 251.692 LINE",
"114.704 251.692 LINE",
"114.704 408.709 OFFCURVE",
"188.478 490.447 OFFCURVE",
"296.372 490.447 CURVE SMOOTH",
"400.544 490.447 OFFCURVE",
"465.076 417.103 OFFCURVE",
"465.076 284.26 CURVE SMOOTH"
);
},
{
closed = 1;
nodes = (
"834.522 0 LINE",
"853.596 0 LINE",
"853.596 282.409 LINE SMOOTH",
"853.596 437.561 OFFCURVE",
"769.932 507.595 OFFCURVE",
"665.818 507.595 CURVE SMOOTH",
"560.785 507.595 OFFCURVE",
"478.061 450.316 OFFCURVE",
"471.554 303.451 CURVE",
"471.398 251.987 LINE",
"484.15 251.662 LINE",
"484.15 408.699 OFFCURVE",
"558.846 490.447 OFFCURVE",
"665.818 490.447 CURVE SMOOTH",
"769.99 490.447 OFFCURVE",
"834.522 417.103 OFFCURVE",
"834.522 284.26 CURVE SMOOTH"
);
}
);
width = 939;
}
);
unicode = 006D;
},
{
glyphname = n;
leftMetricsKey = m;
rightMetricsKey = m;
layers = (
{
anchors = (
{
name = bottom;
position = "{293, 0}";
},
{
name = top;
position = "{281, 540}";
}
);
layerId = "B4AD2DBA-D49E-4666-8320-641BE055B4A9";
name = "Sep 19 17, 16:53.1";
paths = (
{
closed = 1;
nodes = (
"85 0 LINE",
"105 0 LINE",
"105 540 LINE",
"85 540 LINE"
);
},
{
closed = 1;
nodes = (
"515 0 LINE",
"534 0 LINE",
"534 315 LINE SMOOTH",
"534 482 OFFCURVE",
"435 552 OFFCURVE",
"317 552 CURVE",
"207 552 OFFCURVE",
"102 485 OFFCURVE",
"97 325 CURVE",
"105 287 LINE",
"105 456 OFFCURVE",
"194 534 OFFCURVE",
"317 534 CURVE",
"436 534 OFFCURVE",
"515 461 OFFCURVE",
"515 317 CURVE SMOOTH"
);
}
);
width = 614;
},
{
anchors = (
{
name = bottom;
position = "{325, 0}";
},
{
name = top;
position = "{335, 551}";
}
);
layerId = "7AE8018F-6096-4D34-AFA7-AEAB46715B3F";
name = "Sep 19 17, 16:53";
paths = (
{
closed = 1;
nodes = (
"75 0 LINE",
"189 0 LINE",
"189 551 LINE",
"75 551 LINE"
);
},
{
closed = 1;
nodes = (
"466 0 LINE",
"579 0 LINE",
"579 325 LINE SMOOTH",
"579 479 OFFCURVE",
"483 560 OFFCURVE",
"365 560 CURVE SMOOTH",
"266 560 OFFCURVE",
"187 504 OFFCURVE",
"165 400 CURVE",
"189 308 LINE",
"189 409 OFFCURVE",
"244 461 OFFCURVE",
"328 461 CURVE SMOOTH",
"411 461 OFFCURVE",
"466 409 OFFCURVE",
"466 308 CURVE SMOOTH"
);
}
);
width = 649;
},
{
anchors = (
{
name = bottom;
position = "{295, 15}";
},
{
name = top;
position = "{325, 486}";
}
);
hints = (
{
place = "{28, 222}";
type = Stem;
},
{
place = "{345, 221}";
type = Stem;
},
{
horizontal = 1;
place = "{322, 182}";
type = Stem;
},
{
horizontal = 1;
place = "{0, 21}";
target = up;
type = BottomGhost;
}
);
layerId = "9A3F6695-68A9-4551-BE26-76B666927AA0";
paths = (
{
closed = 1;
nodes = (
"27.7 0 LINE",
"249.7 0 LINE",
"249.7 414.95 LINE",
"229.564 501.086 LINE",
"27.7 501.086 LINE"
);
},
{
closed = 1;
nodes = (
"344.62 0 LINE",
"565.786 0 LINE",
"565.786 288.073 LINE SMOOTH",
"565.786 419.139 OFFCURVE",
"495.604 504.422 OFFCURVE",
"375.556 504.422 CURVE SMOOTH",
"291.588 504.422 OFFCURVE",
"230.033 448.868 OFFCURVE",
"200.202 382.578 CURVE",
"213.222 261.712 LINE",
"249.7 263.213 LINE",
"249.7 299.654 OFFCURVE",
"267.723 321.924 OFFCURVE",
"297.16 321.924 CURVE SMOOTH",
"325.996 321.924 OFFCURVE",
"344.62 300.226 OFFCURVE",
"344.62 264.721 CURVE SMOOTH"
);
}
);
width = 590;
},
{
anchors = (
{
name = bottom;
position = "{306, 5}";
},
{
name = top;
position = "{314, 496}";
}
);
hints = (
{
place = "{77, 114}";
type = Stem;
},
{
place = "{411, 113}";
type = Stem;
},
{
horizontal = 1;
place = "{410, 98}";
type = Stem;
},
{
horizontal = 1;
place = "{0, 21}";
target = up;
type = BottomGhost;
}
);
layerId = "122FC69B-F67C-4AD1-868A-17406666C75E";
paths = (
{
closed = 1;
nodes = (
"76.75 0 LINE",
"190.75 0 LINE",
"190.75 439.332 LINE",
"181.072 500.62 LINE",
"76.75 500.62 LINE"
);
},
{
closed = 1;
nodes = (
"411.39 0 LINE",
"524.5 0 LINE",
"524.5 294.365 LINE SMOOTH",
"524.5 434.777 OFFCURVE",
"444.545 508.63 OFFCURVE",
"325.99 508.63 CURVE SMOOTH",
"246.052 508.63 OFFCURVE",
"174.12 463.463 OFFCURVE",
"151.415 389.672 CURVE",
"178.848 276.863 LINE",
"190.75 278.032 LINE",
"190.75 365.34 OFFCURVE",
"232.91 410.29 OFFCURVE",
"303.74 410.29 CURVE SMOOTH",
"373.544 410.29 OFFCURVE",
"411.39 365.748 OFFCURVE",
"411.39 279.235 CURVE SMOOTH"
);
}
);
width = 593;
},
{
anchors = (
{
name = bottom;
position = "{288, 1}";
},
{
name = top;
position = "{277, 501}";
}
);
hints = (
{
place = "{95, 20}";
type = Stem;
},
{
horizontal = 1;
place = "{508, -20}";
target = down;
type = TopGhost;
},
{
horizontal = 1;
place = "{0, 21}";
target = up;
type = BottomGhost;
}
);
layerId = "507F13DB-CCAB-4622-AAF1-433E81077BAF";
paths = (
{
closed = 1;
nodes = (
"94.704 0 LINE",
"114.704 0 LINE",
"114.704 370.147 LINE",
"114.704 501.484 LINE",
"94.704 501.484 LINE"
);
},
{
closed = 1;
nodes = (
"483.595 0 LINE",
"502.669 0 LINE",
"502.669 282.409 LINE SMOOTH",
"502.669 437.561 OFFCURVE",
"415.303 507.595 OFFCURVE",
"305.631 507.595 CURVE SMOOTH",
"176.254 507.595 OFFCURVE",
"110.853 426.486 OFFCURVE",
"105.813 305.523 CURVE",
"113.251 256.372 LINE",
"114.704 256.372 LINE",
"114.704 412.423 OFFCURVE",
"192.182 490.447 OFFCURVE",
"305.631 490.447 CURVE SMOOTH",
"415.36 490.447 OFFCURVE",
"483.595 417.103 OFFCURVE",
"483.595 284.26 CURVE SMOOTH"
);
}
);
width = 588;
}
);
unicode = 006E;
},
{
glyphname = ncommaaccent;
leftMetricsKey = n;
rightMetricsKey = n;
layers = (
{
components = (
{
name = n;
alignment = -1;
}
);
hints = (
{
place = "{28, 222}";
type = Stem;
},
{
place = "{244, 188}";
type = Stem;
},
{
place = "{259, 174}";
type = Stem;
},
{
place = "{345, 221}";
type = Stem;
},
{
horizontal = 1;
place = "{-152, 153}";
type = Stem;
},
{
horizontal = 1;
place = "{322, 182}";
type = Stem;
},
{
horizontal = 1;
place = "{-289, 21}";
target = up;
type = BottomGhost;
}
);
layerId = "9A3F6695-68A9-4551-BE26-76B666927AA0";
paths = (
{
closed = 1;
nodes = (
"244.362 1.52 LINE",
"244.362 -151.788 LINE",
"341.262 -151.788 LINE",
"341.262 -136.433 LINE",
"304.41 -136.433 LINE",
"304.41 -145.607 LINE SMOOTH",
"304.41 -178.329 OFFCURVE",
"286.896 -192.802 OFFCURVE",
"258.54 -192.802 CURVE",
"258.54 -288.564 LINE",
"378.174 -288.564 OFFCURVE",
"432.168 -214.864 OFFCURVE",
"432.168 -126.425 CURVE SMOOTH",
"432.168 -90.733 OFFCURVE",
"424.802 -47.94 OFFCURVE",
"405.859 1.52 CURVE"
);
}
);
width = 590;
},
{
components = (
{
name = n;
alignment = -1;
}
);
hints = (
{
place = "{77, 114}";
type = Stem;
},
{
place = "{241, 117}";
type = Stem;
},
{
place = "{246, 112}";
type = Stem;
},
{
place = "{288, 70}";
type = Stem;
},
{
place = "{411, 113}";
type = Stem;
},
{
horizontal = 1;
place = "{-126, 96}";
type = Stem;
},
{
horizontal = 1;
place = "{410, 98}";
type = Stem;
},
{
horizontal = 1;
place = "{-240, 21}";
target = up;
type = BottomGhost;
}
);
layerId = "122FC69B-F67C-4AD1-868A-17406666C75E";
paths = (
{
closed = 1;
nodes = (
"241.3 -30.71 LINE",
"241.3 -126.38 LINE",
"301.01 -126.38 LINE",
"301.01 -121.265 LINE",
"288.47 -121.265 LINE",
"288.47 -139.955 LINE SMOOTH",
"288.47 -170.365 OFFCURVE",
"275.12 -185.57 OFFCURVE",
"245.75 -185.57 CURVE",
"245.75 -240.3 LINE",
"319.895 -240.3 OFFCURVE",
"357.97 -201.201 OFFCURVE",
"357.97 -123.935 CURVE SMOOTH",
"357.97 -97.92 OFFCURVE",
"354.041 -67.055 OFFCURVE",
"344.218 -30.71 CURVE"
);
}
);
width = 593;
},
{
components = (
{
name = n;
alignment = -1;
}
);
hints = (
{
place = "{95, 20}";
type = Stem;
},
{
place = "{294, 22}";
type = Stem;
},
{
horizontal = 1;
place = "{508, -20}";
target = down;
type = TopGhost;
},
{
horizontal = 1;
place = "{-163, 21}";
target = up;
type = BottomGhost;
}
);
layerId = "507F13DB-CCAB-4622-AAF1-433E81077BAF";
paths = (
{
closed = 1;
nodes = (
"265.742 -53.148 LINE",
"265.742 -89.815 LINE",
"295.927 -89.815 LINE",
"295.927 -89.075 LINE",
"294.446 -89.075 LINE",
"294.446 -95.556 LINE SMOOTH",
"294.446 -125.659 OFFCURVE",
"284.261 -144.816 OFFCURVE",
"254.631 -144.816 CURVE",
"254.631 -162.964 LINE",
"288.785 -162.964 OFFCURVE",
"316.298 -148.946 OFFCURVE",
"316.298 -82.593 CURVE SMOOTH",
"316.298 -74.236 OFFCURVE",
"315.332 -61.835 OFFCURVE",
"314.367 -53.148 CURVE"
);
}
);
width = 588;
}
);
unicode = 0146;
},
{
glyphname = o;
leftMetricsKey = "l*0.6";
rightMetricsKey = "l*0.6";
layers = (
{
anchors = (
{
name = top;
position = "{304, 486}";
}
);
hints = (
{
place = "{17, 225}";
type = Stem;
},
{
place = "{326, 225}";
type = Stem;
},
{
horizontal = 1;
place = "{-6, 191}";
type = Stem;
},
{
horizontal = 1;
place = "{316, 191}";
type = Stem;
}
);
layerId = "9A3F6695-68A9-4551-BE26-76B666927AA0";
paths = (
{
closed = 1;
nodes = (
"435.929 -5.838 OFFCURVE",
"550.596 90.859 OFFCURVE",
"550.596 250.543 CURVE SMOOTH",
"550.596 410.227 OFFCURVE",
"435.929 506.924 OFFCURVE",
"283.638 506.924 CURVE SMOOTH",
"131.347 506.924 OFFCURVE",
"16.68 410.227 OFFCURVE",
"16.68 250.543 CURVE SMOOTH",
"16.68 90.859 OFFCURVE",
"131.347 -5.838 OFFCURVE",
"283.638 -5.838 CURVE SMOOTH"
);
},
{
closed = 1;
nodes = (
"260.374 185 OFFCURVE",
"241.182 205.271 OFFCURVE",
"241.182 250.543 CURVE SMOOTH",
"241.182 295.815 OFFCURVE",
"260.956 316.086 OFFCURVE",
"283.638 316.086 CURVE SMOOTH",
"306.32 316.086 OFFCURVE",
"326.094 295.815 OFFCURVE",
"326.094 250.543 CURVE SMOOTH",
"326.094 205.271 OFFCURVE",
"306.32 185 OFFCURVE",
"283.638 185 CURVE SMOOTH"
);
}
);
width = 567;
},
{
anchors = (
{
name = top;
position = "{302, 504}";
}
);
hints = (
{
place = "{46, 116}";
type = Stem;
},
{
place = "{442, 117}";
type = Stem;
},
{
horizontal = 1;
place = "{-8, 98}";
type = Stem;
},
{
horizontal = 1;
place = "{410, 98}";
type = Stem;
}
);
layerId = "122FC69B-F67C-4AD1-868A-17406666C75E";
paths = (
{
closed = 1;
nodes = (
"441.814 -8.01 OFFCURVE",
"558.54 93.68 OFFCURVE",
"558.54 250.755 CURVE SMOOTH",
"558.54 407.841 OFFCURVE",
"445.413 508.63 OFFCURVE",
"302.18 508.63 CURVE SMOOTH",
"158.947 508.63 OFFCURVE",
"45.82 407.841 OFFCURVE",
"45.82 250.755 CURVE SMOOTH",
"45.82 93.68 OFFCURVE",
"154.433 -8.01 OFFCURVE",
"297.73 -8.01 CURVE SMOOTH"
);
},
{
closed = 1;
nodes = (
"224.56 90.33 OFFCURVE",
"161.6 142.943 OFFCURVE",
"161.6 250.755 CURVE SMOOTH",
"161.6 358.549 OFFCURVE",
"227.168 410.29 OFFCURVE",
"300.4 410.29 CURVE SMOOTH",
"372.839 410.29 OFFCURVE",
"441.87 358.549 OFFCURVE",
"441.87 250.755 CURVE SMOOTH",
"441.87 142.943 OFFCURVE",
"370.226 90.33 OFFCURVE",
"297.73 90.33 CURVE SMOOTH"
);
}
);
width = 604;
},
{
anchors = (
{
name = top;
position = "{305, 501}";
}
);
hints = (
{
place = "{57, 20}";
type = Stem;
},
{
place = "{526, 20}";
type = Stem;
},
{
horizontal = 1;
place = "{508, -20}";
target = down;
type = TopGhost;
},
{
horizontal = 1;
place = "{-6, 21}";
target = up;
type = BottomGhost;
}
);
layerId = "507F13DB-CCAB-4622-AAF1-433E81077BAF";
paths = (
{
closed = 1;
nodes = (
"441.054 -6.482 OFFCURVE",
"546.002 89.165 OFFCURVE",
"546.002 250.742 CURVE SMOOTH",
"546.002 412.319 OFFCURVE",
"441.054 507.965 OFFCURVE",
"301.742 507.965 CURVE SMOOTH",
"162.432 507.965 OFFCURVE",
"56.556 412.319 OFFCURVE",
"56.556 250.742 CURVE SMOOTH",
"56.556 89.165 OFFCURVE",
"162.432 -6.482 OFFCURVE",
"301.742 -6.482 CURVE SMOOTH"
);
},
{
closed = 1;
nodes = (
"187.303 11.667 OFFCURVE",
"76.556 85.512 OFFCURVE",
"76.556 250.742 CURVE SMOOTH",
"76.556 415.971 OFFCURVE",
"187.303 489.817 OFFCURVE",
"301.742 489.817 CURVE SMOOTH",
"416.179 489.817 OFFCURVE",
"526.002 415.971 OFFCURVE",
"526.002 250.742 CURVE SMOOTH",
"526.002 85.512 OFFCURVE",
"416.179 11.667 OFFCURVE",
"301.742 11.667 CURVE SMOOTH"
);
}
);
width = 603;
}
);
unicode = 006F;
},
{
glyphname = oslash;
leftMetricsKey = o;
rightMetricsKey = o;
layers = (
{
components = (
{
name = o;
transform = "{1, 0, 0, 1, -0.672, 0}";
alignment = -1;
}
);
hints = (
{
place = "{16, 225}";
type = Stem;
},
{
place = "{325, 225}";
type = Stem;
},
{
horizontal = 1;
place = "{-6, 191}";
type = Stem;
},
{
horizontal = 1;
place = "{316, 191}";
type = Stem;
}
);
layerId = "9A3F6695-68A9-4551-BE26-76B666927AA0";
paths = (
{
closed = 1;
nodes = (
"149.747 134.769 LINE",
"200.956 107.645 LINE",
"480.807 413.042 LINE",
"429.597 440.167 LINE"
);
}
);
width = 566;
},
{
components = (
{
name = o;
alignment = -1;
}
);
hints = (
{
place = "{46, 116}";
type = Stem;
},
{
place = "{442, 117}";
type = Stem;
},
{
horizontal = 1;
place = "{-8, 98}";
type = Stem;
},
{
horizontal = 1;
place = "{410, 98}";
type = Stem;
}
);
layerId = "122FC69B-F67C-4AD1-868A-17406666C75E";
paths = (
{
closed = 1;
nodes = (
"105.291 114.947 LINE",
"184.676 57.669 LINE",
"488.569 391.651 LINE",
"409.184 448.929 LINE"
);
}
);
width = 604;
},
{
components = (
{
name = o;
alignment = -1;
}
);
hints = (
{
place = "{57, 20}";
type = Stem;
},
{
place = "{526, 20}";
type = Stem;
},
{
horizontal = 1;
place = "{508, -20}";
target = down;
type = TopGhost;
},
{
horizontal = 1;
place = "{-6, 21}";
target = up;
type = BottomGhost;
}
);
layerId = "507F13DB-CCAB-4622-AAF1-433E81077BAF";
paths = (
{
closed = 1;
nodes = (
"126.688 72.915 LINE",
"144.545 66.936 LINE",
"476.89 431.606 LINE",
"459.705 438.622 LINE"
);
}
);
width = 603;
}
);
unicode = 00F8;
},
